<?xml version="1.0" encoding="UTF-8" standalone="no"?>
<svg
   height="240.55278mm"
   viewBox="0 0 240.55279 240.55279"
   width="240.55278mm"
   version="1.1"
   id="svg363"
   sodipodi:docname="Large box for large round push button with Light - part1b.svg"
   inkscape:version="1.1 (c68e22c387, 2021-05-23)"
   xmlns:inkscape="http://www.inkscape.org/namespaces/inkscape"
   xmlns:sodipodi="http://sodipodi.sourceforge.net/DTD/sodipodi-0.dtd"
   xmlns="http://www.w3.org/2000/svg"
   xmlns:svg="http://www.w3.org/2000/svg"
   xmlns:rdf="http://www.w3.org/1999/02/22-rdf-syntax-ns#"
   xmlns:cc="http://creativecommons.org/ns#"
   xmlns:dc="http://purl.org/dc/elements/1.1/">
  <defs
     id="defs367" />
  <sodipodi:namedview
     id="namedview365"
     pagecolor="#ffffff"
     bordercolor="#666666"
     borderopacity="1.0"
     inkscape:pageshadow="2"
     inkscape:pageopacity="0.0"
     inkscape:pagecheckerboard="0"
     inkscape:document-units="mm"
     showgrid="false"
     fit-margin-top="0"
     fit-margin-left="0"
     fit-margin-right="0"
     fit-margin-bottom="0"
     inkscape:zoom="0.20683796"
     inkscape:cx="481.0529"
     inkscape:cy="848.49029"
     inkscape:window-width="1551"
     inkscape:window-height="836"
     inkscape:window-x="0"
     inkscape:window-y="27"
     inkscape:window-maximized="1"
     inkscape:current-layer="svg363"
     showguides="true"
     inkscape:guide-bbox="true">
    <sodipodi:guide
       position="-221.63338,245.19112"
       orientation="1,0"
       id="guide1870" />
    <sodipodi:guide
       position="-208.1522,220.5428"
       orientation="0,-1"
       id="guide1872" />
    <sodipodi:guide
       position="-206.51905,20.630629"
       orientation="0,-1"
       id="guide1874" />
    <sodipodi:guide
       position="-21.958005,247.25275"
       orientation="1,0"
       id="guide1876" />
  </sodipodi:namedview>
  <!--
TypeTray - Type tray - allows only continuous walls

Created with Boxes.py (https://festi.info/boxes.py)
Creation date: 2021-09-21 10:44:13
Command line (remove spaces between dashes): boxes TypeTray - -FingerJoint_angle=90.0 - -FingerJoint_style=rectangular - -FingerJoint_surroundingspaces=0.5 - -FingerJoint_edge_width=1.0 - -FingerJoint_finger=2.0 - -FingerJoint_play=0.0 - -FingerJoint_space=2.0 - -FingerJoint_width=1.0 - -Stackable_angle=60 - -Stackable_height=2.0 - -Stackable_holedistance=1.0 - -Stackable_width=4.0 - -Hinge_grip_percentage=0 - -Hinge_outset=0 - -Hinge_pinwidth=0.5 - -Hinge_style=outset - -Hinge_axle=2 - -Hinge_grip_length=0 - -Hinge_hingestrength=1 - -CabinetHinge_bore=3.2 - -CabinetHinge_eyes_per_hinge=5 - -CabinetHinge_hinges=2 - -CabinetHinge_style=inside - -CabinetHinge_eye=1.5 - -CabinetHinge_play=0.05 - -CabinetHinge_spacing=2.0 - -Lid_angle=90.0 - -Lid_hole_width=0 - -Lid_second_pin=0 - -Lid_second_pin=1 - -Lid_spring=both - -Lid_style=rectangular - -Lid_surroundingspaces=2.0 - -Lid_edge_width=1.0 - -Lid_finger=3.0 - -Lid_play=0.05 - -Lid_space=2.0 - -Lid_width=1.0 - -Click_angle=5.0 - -Click_bottom_radius=0.1 - -Click_depth=3.0 - -RoundedTriangleEdge_height=150.0 - -RoundedTriangleEdge_r_hole=2.0 - -RoundedTriangleEdge_radius=30.0 - -RoundedTriangleEdge_outset=1 '- -sx=120*2' '- -sy=120*2' - -h=110.0 - -hi=0.0 - -outside=0 - -outside=1 - -bottom_edge=h - -top_edge=e - -gripheight=30 - -gripwidth=70 - -thickness=2.8 - -format=svg - -tabs=0.0 - -debug=0 - -labels=0 - -labels=1 - -reference=0 - -burn=0.1
Url: http://www.festi.info/TypeTray?FingerJoint_angle=90.0&FingerJoint_style=rectangular&FingerJoint_surroundingspaces=0.5&FingerJoint_edge_width=1.0&FingerJoint_finger=2.0&FingerJoint_play=0.0&FingerJoint_space=2.0&FingerJoint_width=1.0&Stackable_angle=60&Stackable_height=2.0&Stackable_holedistance=1.0&Stackable_width=4.0&Hinge_grip_percentage=0&Hinge_outset=0&Hinge_pinwidth=0.5&Hinge_style=outset&Hinge_axle=2&Hinge_grip_length=0&Hinge_hingestrength=1&CabinetHinge_bore=3.2&CabinetHinge_eyes_per_hinge=5&CabinetHinge_hinges=2&CabinetHinge_style=inside&CabinetHinge_eye=1.5&CabinetHinge_play=0.05&CabinetHinge_spacing=2.0&Lid_angle=90.0&Lid_hole_width=0&Lid_second_pin=0&Lid_second_pin=1&Lid_spring=both&Lid_style=rectangular&Lid_surroundingspaces=2.0&Lid_edge_width=1.0&Lid_finger=3.0&Lid_play=0.05&Lid_space=2.0&Lid_width=1.0&Click_angle=5.0&Click_bottom_radius=0.1&Click_depth=3.0&RoundedTriangleEdge_height=150.0&RoundedTriangleEdge_r_hole=2.0&RoundedTriangleEdge_radius=30.0&RoundedTriangleEdge_outset=1&sx=120*2&sy=120*2&h=110.0&hi=0.0&outside=0&outside=1&bottom_edge=h&top_edge=e&gripheight=30&gripwidth=70&thickness=2.8&format=svg&tabs=0.0&debug=0&labels=0&labels=1&reference=0&burn=0.1&render=1
SettingsUrl: http://www.festi.info/TypeTray?FingerJoint_angle=90.0&FingerJoint_style=rectangular&FingerJoint_surroundingspaces=0.5&FingerJoint_edge_width=1.0&FingerJoint_finger=2.0&FingerJoint_play=0.0&FingerJoint_space=2.0&FingerJoint_width=1.0&Stackable_angle=60&Stackable_height=2.0&Stackable_holedistance=1.0&Stackable_width=4.0&Hinge_grip_percentage=0&Hinge_outset=0&Hinge_pinwidth=0.5&Hinge_style=outset&Hinge_axle=2&Hinge_grip_length=0&Hinge_hingestrength=1&CabinetHinge_bore=3.2&CabinetHinge_eyes_per_hinge=5&CabinetHinge_hinges=2&CabinetHinge_style=inside&CabinetHinge_eye=1.5&CabinetHinge_play=0.05&CabinetHinge_spacing=2.0&Lid_angle=90.0&Lid_hole_width=0&Lid_second_pin=0&Lid_second_pin=1&Lid_spring=both&Lid_style=rectangular&Lid_surroundingspaces=2.0&Lid_edge_width=1.0&Lid_finger=3.0&Lid_play=0.05&Lid_space=2.0&Lid_width=1.0&Click_angle=5.0&Click_bottom_radius=0.1&Click_depth=3.0&RoundedTriangleEdge_height=150.0&RoundedTriangleEdge_r_hole=2.0&RoundedTriangleEdge_radius=30.0&RoundedTriangleEdge_outset=1&sx=120*2&sy=120*2&h=110.0&hi=0.0&outside=0&outside=1&bottom_edge=h&top_edge=e&gripheight=30&gripwidth=70&thickness=2.8&format=svg&tabs=0.0&debug=0&labels=0&labels=1&reference=0&burn=0.1
-->
  <title
     id="title2">TypeTray</title>
  <metadata
     id="metadata4">
    <rdf:RDF>
      <cc:Work>
        <dc:title>Tray - TypeTray</dc:title>
        <dc:date>2021-09-21 10:44:13</dc:date>
        <dc:source>http://www.festi.info/TypeTray?FingerJoint_angle=90.0&amp;FingerJoint_style=rectangular&amp;FingerJoint_surroundingspaces=0.5&amp;FingerJoint_edge_width=1.0&amp;FingerJoint_finger=2.0&amp;FingerJoint_play=0.0&amp;FingerJoint_space=2.0&amp;FingerJoint_width=1.0&amp;Stackable_angle=60&amp;Stackable_height=2.0&amp;Stackable_holedistance=1.0&amp;Stackable_width=4.0&amp;Hinge_grip_percentage=0&amp;Hinge_outset=0&amp;Hinge_pinwidth=0.5&amp;Hinge_style=outset&amp;Hinge_axle=2&amp;Hinge_grip_length=0&amp;Hinge_hingestrength=1&amp;CabinetHinge_bore=3.2&amp;CabinetHinge_eyes_per_hinge=5&amp;CabinetHinge_hinges=2&amp;CabinetHinge_style=inside&amp;CabinetHinge_eye=1.5&amp;CabinetHinge_play=0.05&amp;CabinetHinge_spacing=2.0&amp;Lid_angle=90.0&amp;Lid_hole_width=0&amp;Lid_second_pin=0&amp;Lid_second_pin=1&amp;Lid_spring=both&amp;Lid_style=rectangular&amp;Lid_surroundingspaces=2.0&amp;Lid_edge_width=1.0&amp;Lid_finger=3.0&amp;Lid_play=0.05&amp;Lid_space=2.0&amp;Lid_width=1.0&amp;Click_angle=5.0&amp;Click_bottom_radius=0.1&amp;Click_depth=3.0&amp;RoundedTriangleEdge_height=150.0&amp;RoundedTriangleEdge_r_hole=2.0&amp;RoundedTriangleEdge_radius=30.0&amp;RoundedTriangleEdge_outset=1&amp;sx=120*2&amp;sy=120*2&amp;h=110.0&amp;hi=0.0&amp;outside=0&amp;outside=1&amp;bottom_edge=h&amp;top_edge=e&amp;gripheight=30&amp;gripwidth=70&amp;thickness=2.8&amp;format=svg&amp;tabs=0.0&amp;debug=0&amp;labels=0&amp;labels=1&amp;reference=0&amp;burn=0.1&amp;render=1</dc:source>
        <dc:description>Type tray - allows only continuous walls

Created with Boxes.py (https://festi.info/boxes.py)
Command line: boxes TypeTray --FingerJoint_angle=90.0 --FingerJoint_style=rectangular --FingerJoint_surroundingspaces=0.5 --FingerJoint_edge_width=1.0 --FingerJoint_finger=2.0 --FingerJoint_play=0.0 --FingerJoint_space=2.0 --FingerJoint_width=1.0 --Stackable_angle=60 --Stackable_height=2.0 --Stackable_holedistance=1.0 --Stackable_width=4.0 --Hinge_grip_percentage=0 --Hinge_outset=0 --Hinge_pinwidth=0.5 --Hinge_style=outset --Hinge_axle=2 --Hinge_grip_length=0 --Hinge_hingestrength=1 --CabinetHinge_bore=3.2 --CabinetHinge_eyes_per_hinge=5 --CabinetHinge_hinges=2 --CabinetHinge_style=inside --CabinetHinge_eye=1.5 --CabinetHinge_play=0.05 --CabinetHinge_spacing=2.0 --Lid_angle=90.0 --Lid_hole_width=0 --Lid_second_pin=0 --Lid_second_pin=1 --Lid_spring=both --Lid_style=rectangular --Lid_surroundingspaces=2.0 --Lid_edge_width=1.0 --Lid_finger=3.0 --Lid_play=0.05 --Lid_space=2.0 --Lid_width=1.0 --Click_angle=5.0 --Click_bottom_radius=0.1 --Click_depth=3.0 --RoundedTriangleEdge_height=150.0 --RoundedTriangleEdge_r_hole=2.0 --RoundedTriangleEdge_radius=30.0 --RoundedTriangleEdge_outset=1 '--sx=120*2' '--sy=120*2' --h=110.0 --hi=0.0 --outside=0 --outside=1 --bottom_edge=h --top_edge=e --gripheight=30 --gripwidth=70 --thickness=2.8 --format=svg --tabs=0.0 --debug=0 --labels=0 --labels=1 --reference=0 --burn=0.1
Url: http://www.festi.info/TypeTray?FingerJoint_angle=90.0&amp;FingerJoint_style=rectangular&amp;FingerJoint_surroundingspaces=0.5&amp;FingerJoint_edge_width=1.0&amp;FingerJoint_finger=2.0&amp;FingerJoint_play=0.0&amp;FingerJoint_space=2.0&amp;FingerJoint_width=1.0&amp;Stackable_angle=60&amp;Stackable_height=2.0&amp;Stackable_holedistance=1.0&amp;Stackable_width=4.0&amp;Hinge_grip_percentage=0&amp;Hinge_outset=0&amp;Hinge_pinwidth=0.5&amp;Hinge_style=outset&amp;Hinge_axle=2&amp;Hinge_grip_length=0&amp;Hinge_hingestrength=1&amp;CabinetHinge_bore=3.2&amp;CabinetHinge_eyes_per_hinge=5&amp;CabinetHinge_hinges=2&amp;CabinetHinge_style=inside&amp;CabinetHinge_eye=1.5&amp;CabinetHinge_play=0.05&amp;CabinetHinge_spacing=2.0&amp;Lid_angle=90.0&amp;Lid_hole_width=0&amp;Lid_second_pin=0&amp;Lid_second_pin=1&amp;Lid_spring=both&amp;Lid_style=rectangular&amp;Lid_surroundingspaces=2.0&amp;Lid_edge_width=1.0&amp;Lid_finger=3.0&amp;Lid_play=0.05&amp;Lid_space=2.0&amp;Lid_width=1.0&amp;Click_angle=5.0&amp;Click_bottom_radius=0.1&amp;Click_depth=3.0&amp;RoundedTriangleEdge_height=150.0&amp;RoundedTriangleEdge_r_hole=2.0&amp;RoundedTriangleEdge_radius=30.0&amp;RoundedTriangleEdge_outset=1&amp;sx=120*2&amp;sy=120*2&amp;h=110.0&amp;hi=0.0&amp;outside=0&amp;outside=1&amp;bottom_edge=h&amp;top_edge=e&amp;gripheight=30&amp;gripwidth=70&amp;thickness=2.8&amp;format=svg&amp;tabs=0.0&amp;debug=0&amp;labels=0&amp;labels=1&amp;reference=0&amp;burn=0.1&amp;render=1
SettingsUrl: http://www.festi.info/TypeTray?FingerJoint_angle=90.0&amp;FingerJoint_style=rectangular&amp;FingerJoint_surroundingspaces=0.5&amp;FingerJoint_edge_width=1.0&amp;FingerJoint_finger=2.0&amp;FingerJoint_play=0.0&amp;FingerJoint_space=2.0&amp;FingerJoint_width=1.0&amp;Stackable_angle=60&amp;Stackable_height=2.0&amp;Stackable_holedistance=1.0&amp;Stackable_width=4.0&amp;Hinge_grip_percentage=0&amp;Hinge_outset=0&amp;Hinge_pinwidth=0.5&amp;Hinge_style=outset&amp;Hinge_axle=2&amp;Hinge_grip_length=0&amp;Hinge_hingestrength=1&amp;CabinetHinge_bore=3.2&amp;CabinetHinge_eyes_per_hinge=5&amp;CabinetHinge_hinges=2&amp;CabinetHinge_style=inside&amp;CabinetHinge_eye=1.5&amp;CabinetHinge_play=0.05&amp;CabinetHinge_spacing=2.0&amp;Lid_angle=90.0&amp;Lid_hole_width=0&amp;Lid_second_pin=0&amp;Lid_second_pin=1&amp;Lid_spring=both&amp;Lid_style=rectangular&amp;Lid_surroundingspaces=2.0&amp;Lid_edge_width=1.0&amp;Lid_finger=3.0&amp;Lid_play=0.05&amp;Lid_space=2.0&amp;Lid_width=1.0&amp;Click_angle=5.0&amp;Click_bottom_radius=0.1&amp;Click_depth=3.0&amp;RoundedTriangleEdge_height=150.0&amp;RoundedTriangleEdge_r_hole=2.0&amp;RoundedTriangleEdge_radius=30.0&amp;RoundedTriangleEdge_outset=1&amp;sx=120*2&amp;sy=120*2&amp;h=110.0&amp;hi=0.0&amp;outside=0&amp;outside=1&amp;bottom_edge=h&amp;top_edge=e&amp;gripheight=30&amp;gripwidth=70&amp;thickness=2.8&amp;format=svg&amp;tabs=0.0&amp;debug=0&amp;labels=0&amp;labels=1&amp;reference=0&amp;burn=0.1
</dc:description>
      </cc:Work>
    </rdf:RDF>
  </metadata>
  <text
     alignment-baseline="hanging"
     font-size="4px"
     style="font-style:normal;font-weight:normal;font-family:sans-serif;fill:#ff0000;stroke:#ff0000;stroke-width:0.352778;stroke-linecap:round;stroke-linejoin:round;stroke-miterlimit:4;stroke-dasharray:none"
     text-anchor="middle"
     id="text66"
     x="-120.84429"
     y="522.22681" />
  <g
     id="p-2"
     style="fill:none;stroke:#ff0000;stroke-width:0.352778;stroke-linecap:round;stroke-linejoin:round;stroke-miterlimit:4;stroke-dasharray:none"
     transform="translate(-9.823611,-121.42361)">
    <path
       d="m 131.4,351.4 v 2.7 c 0,0.1 0.1,0 0,0 h -2.6 c -0.1,0 0,0.1 0,0 v -5.4 c 0,-0.1 -0.1,0 0,0 h 2.6 c 0.1,0 0,-0.1 0,0 z"
       stroke="rgb(0,0,255)"
       stroke-width="0.20"
       id="path138"
       style="stroke:#ff0000;stroke-width:0.352778;stroke-miterlimit:4;stroke-dasharray:none" />
    <path
       d="m 131.4,340.2 v 2.7 c 0,0.1 0.1,0 0,0 h -2.6 c -0.1,0 0,0.1 0,0 v -5.4 c 0,-0.1 -0.1,0 0,0 h 2.6 c 0.1,0 0,-0.1 0,0 z"
       stroke="rgb(0,0,255)"
       stroke-width="0.20"
       id="path140"
       style="stroke:#ff0000;stroke-width:0.352778;stroke-miterlimit:4;stroke-dasharray:none" />
    <path
       d="m 131.4,329 v 2.7 c 0,0.1 0.1,0 0,0 h -2.6 c -0.1,0 0,0.1 0,0 v -5.4 c 0,-0.1 -0.1,0 0,0 h 2.6 c 0.1,0 0,-0.1 0,0 z"
       stroke="rgb(0,0,255)"
       stroke-width="0.20"
       id="path142"
       style="stroke:#ff0000;stroke-width:0.352778;stroke-miterlimit:4;stroke-dasharray:none" />
    <path
       d="m 131.4,317.8 v 2.7 c 0,0.1 0.1,0 0,0 h -2.6 c -0.1,0 0,0.1 0,0 v -5.4 c 0,-0.1 -0.1,0 0,0 h 2.6 c 0.1,0 0,-0.1 0,0 z"
       stroke="rgb(0,0,255)"
       stroke-width="0.20"
       id="path144"
       style="stroke:#ff0000;stroke-width:0.352778;stroke-miterlimit:4;stroke-dasharray:none" />
    <path
       d="m 131.4,306.6 v 2.7 c 0,0.1 0.1,0 0,0 h -2.6 c -0.1,0 0,0.1 0,0 v -5.4 c 0,-0.1 -0.1,0 0,0 h 2.6 c 0.1,0 0,-0.1 0,0 z"
       stroke="rgb(0,0,255)"
       stroke-width="0.20"
       id="path146"
       style="stroke:#ff0000;stroke-width:0.352778;stroke-miterlimit:4;stroke-dasharray:none" />
    <path
       d="m 131.4,295.4 v 2.7 c 0,0.1 0.1,0 0,0 h -2.6 c -0.1,0 0,0.1 0,0 v -5.4 c 0,-0.1 -0.1,0 0,0 h 2.6 c 0.1,0 0,-0.1 0,0 z"
       stroke="rgb(0,0,255)"
       stroke-width="0.20"
       id="path148"
       style="stroke:#ff0000;stroke-width:0.352778;stroke-miterlimit:4;stroke-dasharray:none" />
    <path
       d="m 131.4,284.2 v 2.7 c 0,0.1 0.1,0 0,0 h -2.6 c -0.1,0 0,0.1 0,0 v -5.4 c 0,-0.1 -0.1,0 0,0 h 2.6 c 0.1,0 0,-0.1 0,0 z"
       stroke="rgb(0,0,255)"
       stroke-width="0.20"
       id="path150"
       style="stroke:#ff0000;stroke-width:0.352778;stroke-miterlimit:4;stroke-dasharray:none" />
    <path
       d="m 131.4,273 v 2.7 c 0,0.1 0.1,0 0,0 h -2.6 c -0.1,0 0,0.1 0,0 v -5.4 c 0,-0.1 -0.1,0 0,0 h 2.6 c 0.1,0 0,-0.1 0,0 z"
       stroke="rgb(0,0,255)"
       stroke-width="0.20"
       id="path152"
       style="stroke:#ff0000;stroke-width:0.352778;stroke-miterlimit:4;stroke-dasharray:none" />
    <path
       d="m 131.4,261.8 v 2.7 c 0,0.1 0.1,0 0,0 h -2.6 c -0.1,0 0,0.1 0,0 v -5.4 c 0,-0.1 -0.1,0 0,0 h 2.6 c 0.1,0 0,-0.1 0,0 z"
       stroke="rgb(0,0,255)"
       stroke-width="0.20"
       id="path154"
       style="stroke:#ff0000;stroke-width:0.352778;stroke-miterlimit:4;stroke-dasharray:none" />
    <path
       d="m 131.4,250.6 v 2.7 c 0,0.1 0.1,0 0,0 h -2.6 c -0.1,0 0,0.1 0,0 v -5.4 c 0,-0.1 -0.1,0 0,0 h 2.6 c 0.1,0 0,-0.1 0,0 z"
       stroke="rgb(0,0,255)"
       stroke-width="0.20"
       id="path156"
       style="stroke:#ff0000;stroke-width:0.352778;stroke-miterlimit:4;stroke-dasharray:none" />
    <path
       d="m 131.4,232.8 v 2.7 c 0,0.1 0.1,0 0,0 h -2.6 c -0.1,0 0,0.1 0,0 v -5.4 c 0,-0.1 -0.1,0 0,0 h 2.6 c 0.1,0 0,-0.1 0,0 z"
       stroke="rgb(0,0,255)"
       stroke-width="0.20"
       id="path158"
       style="stroke:#ff0000;stroke-width:0.352778;stroke-miterlimit:4;stroke-dasharray:none" />
    <path
       d="m 131.4,221.6 v 2.7 c 0,0.1 0.1,0 0,0 h -2.6 c -0.1,0 0,0.1 0,0 v -5.4 c 0,-0.1 -0.1,0 0,0 h 2.6 c 0.1,0 0,-0.1 0,0 z"
       stroke="rgb(0,0,255)"
       stroke-width="0.20"
       id="path160"
       style="stroke:#ff0000;stroke-width:0.352778;stroke-miterlimit:4;stroke-dasharray:none" />
    <path
       d="m 131.4,210.4 v 2.7 c 0,0.1 0.1,0 0,0 h -2.6 c -0.1,0 0,0.1 0,0 v -5.4 c 0,-0.1 -0.1,0 0,0 h 2.6 c 0.1,0 0,-0.1 0,0 z"
       stroke="rgb(0,0,255)"
       stroke-width="0.20"
       id="path162"
       style="stroke:#ff0000;stroke-width:0.352778;stroke-miterlimit:4;stroke-dasharray:none" />
    <path
       d="m 131.4,199.2 v 2.7 c 0,0.1 0.1,0 0,0 h -2.6 c -0.1,0 0,0.1 0,0 v -5.4 c 0,-0.1 -0.1,0 0,0 h 2.6 c 0.1,0 0,-0.1 0,0 z"
       stroke="rgb(0,0,255)"
       stroke-width="0.20"
       id="path164"
       style="stroke:#ff0000;stroke-width:0.352778;stroke-miterlimit:4;stroke-dasharray:none" />
    <path
       d="m 131.4,188 v 2.7 c 0,0.1 0.1,0 0,0 h -2.6 c -0.1,0 0,0.1 0,0 v -5.4 c 0,-0.1 -0.1,0 0,0 h 2.6 c 0.1,0 0,-0.1 0,0 z"
       stroke="rgb(0,0,255)"
       stroke-width="0.20"
       id="path166"
       style="stroke:#ff0000;stroke-width:0.352778;stroke-miterlimit:4;stroke-dasharray:none" />
    <path
       d="m 131.4,176.8 v 2.7 c 0,0.1 0.1,0 0,0 h -2.6 c -0.1,0 0,0.1 0,0 v -5.4 c 0,-0.1 -0.1,0 0,0 h 2.6 c 0.1,0 0,-0.1 0,0 z"
       stroke="rgb(0,0,255)"
       stroke-width="0.20"
       id="path168"
       style="stroke:#ff0000;stroke-width:0.352778;stroke-miterlimit:4;stroke-dasharray:none" />
    <path
       d="m 131.4,165.6 v 2.7 c 0,0.1 0.1,0 0,0 h -2.6 c -0.1,0 0,0.1 0,0 v -5.4 c 0,-0.1 -0.1,0 0,0 h 2.6 c 0.1,0 0,-0.1 0,0 z"
       stroke="rgb(0,0,255)"
       stroke-width="0.20"
       id="path170"
       style="stroke:#ff0000;stroke-width:0.352778;stroke-miterlimit:4;stroke-dasharray:none" />
    <path
       d="m 131.4,154.4 v 2.7 c 0,0.1 0.1,0 0,0 h -2.6 c -0.1,0 0,0.1 0,0 v -5.4 c 0,-0.1 -0.1,0 0,0 h 2.6 c 0.1,0 0,-0.1 0,0 z"
       stroke="rgb(0,0,255)"
       stroke-width="0.20"
       id="path172"
       style="stroke:#ff0000;stroke-width:0.352778;stroke-miterlimit:4;stroke-dasharray:none" />
    <path
       d="m 131.4,143.2 v 2.7 c 0,0.1 0.1,0 0,0 h -2.6 c -0.1,0 0,0.1 0,0 v -5.4 c 0,-0.1 -0.1,0 0,0 h 2.6 c 0.1,0 0,-0.1 0,0 z"
       stroke="rgb(0,0,255)"
       stroke-width="0.20"
       id="path174"
       style="stroke:#ff0000;stroke-width:0.352778;stroke-miterlimit:4;stroke-dasharray:none" />
    <path
       d="m 131.4,132 v 2.7 c 0,0.1 0.1,0 0,0 h -2.6 c -0.1,0 0,0.1 0,0 v -5.4 c 0,-0.1 -0.1,0 0,0 h 2.6 c 0.1,0 0,-0.1 0,0 z"
       stroke="rgb(0,0,255)"
       stroke-width="0.20"
       id="path176"
       style="stroke:#ff0000;stroke-width:0.352778;stroke-miterlimit:4;stroke-dasharray:none" />
    <text
       alignment-baseline="hanging"
       font-size="4px"
       style="font-style:normal;font-weight:normal;font-family:sans-serif;fill:#ff0000;stroke:#ff0000;stroke-width:0.352778;stroke-miterlimit:4;stroke-dasharray:none"
       text-anchor="middle"
       transform="translate(130.1,239.8)"
       id="text178" />
    <path
       d="m 12.9,359 h 2.3 c 0.1,0 0,-0.1 0,0 v 2.7 c 0,0.055 0.045,0.1 0.1,0.1 h 5.6 c 0.055,0 0.1,-0.045 0.1,-0.1 V 359 c 0,-0.1 -0.1,0 0,0 h 5.4 c 0.1,0 0,-0.1 0,0 v 2.7 c 0,0.055 0.045,0.1 0.1,0.1 h 5.6 c 0.055,0 0.1,-0.045 0.1,-0.1 V 359 c 0,-0.1 -0.1,0 0,0 h 5.4 c 0.1,0 0,-0.1 0,0 v 2.7 c 0,0.055 0.045,0.1 0.1,0.1 h 5.6 c 0.055,0 0.1,-0.045 0.1,-0.1 V 359 c 0,-0.1 -0.1,0 0,0 h 5.4 c 0.1,0 0,-0.1 0,0 v 2.7 c 0,0.055 0.045,0.1 0.1,0.1 h 5.6 c 0.055,0 0.1,-0.045 0.1,-0.1 V 359 c 0,-0.1 -0.1,0 0,0 H 60 c 0.1,0 0,-0.1 0,0 v 2.7 c 0,0.055 0.045,0.1 0.1,0.1 h 5.6 c 0.055,0 0.1,-0.045 0.1,-0.1 V 359 c 0,-0.1 -0.1,0 0,0 h 5.4 c 0.1,0 0,-0.1 0,0 v 2.7 c 0,0.055 0.045,0.1 0.1,0.1 h 5.6 c 0.055,0 0.1,-0.045 0.1,-0.1 V 359 c 0,-0.1 -0.1,0 0,0 h 5.4 c 0.1,0 0,-0.1 0,0 v 2.7 c 0,0.055 0.045,0.1 0.1,0.1 h 5.6 c 0.055,0 0.1,-0.045 0.1,-0.1 V 359 c 0,-0.1 -0.1,0 0,0 h 5.4 c 0.1,0 0,-0.1 0,0 v 2.7 c 0,0.055 0.045,0.1 0.1,0.1 h 5.6 c 0.055,0 0.1,-0.045 0.1,-0.1 V 359 c 0,-0.1 -0.1,0 0,0 h 5.4 c 0.1,0 0,-0.1 0,0 v 2.7 c 0,0.055 0.045,0.1 0.1,0.1 h 5.6 c 0.055,0 0.1,-0.045 0.1,-0.1 V 359 c 0,-0.1 -0.1,0 0,0 h 5.4 c 0.1,0 0,-0.1 0,0 v 2.7 c 0,0.055 0.045,0.1 0.1,0.1 h 5.6 c 0.055,0 0.1,-0.045 0.1,-0.1 V 359 c 0,-0.1 -0.1,0 0,0 h 5.4 c 0.1,0 0,-0.1 0,0 v 2.7 c 0,0.055 0.045,0.1 0.1,0.1 h 5.6 c 0.055,0 0.1,-0.045 0.1,-0.1 V 359 c 0,-0.1 -0.1,0 0,0 h 5.4 c 0.1,0 0,-0.1 0,0 v 2.7 c 0,0.055 0.045,0.1 0.1,0.1 h 5.6 c 0.055,0 0.1,-0.045 0.1,-0.1 V 359 c 0,-0.1 -0.1,0 0,0 h 5.4 c 0.1,0 0,-0.1 0,0 v 2.7 c 0,0.055 0.045,0.1 0.1,0.1 h 5.6 c 0.055,0 0.1,-0.045 0.1,-0.1 V 359 c 0,-0.1 -0.1,0 0,0 h 5.4 c 0.1,0 0,-0.1 0,0 v 2.7 c 0,0.055 0.045,0.1 0.1,0.1 h 5.6 c 0.055,0 0.1,-0.045 0.1,-0.1 V 359 c 0,-0.1 -0.1,0 0,0 h 5.4 c 0.1,0 0,-0.1 0,0 v 2.7 c 0,0.055 0.045,0.1 0.1,0.1 h 5.6 c 0.055,0 0.1,-0.045 0.1,-0.1 V 359 c 0,-0.1 -0.1,0 0,0 h 5.4 c 0.1,0 0,-0.1 0,0 v 2.7 c 0,0.055 0.045,0.1 0.1,0.1 h 5.6 c 0.055,0 0.1,-0.045 0.1,-0.1 V 359 c 0,-0.1 -0.1,0 0,0 h 5.4 c 0.1,0 0,-0.1 0,0 v 2.7 c 0,0.055 0.045,0.1 0.1,0.1 h 5.6 c 0.055,0 0.1,-0.045 0.1,-0.1 V 359 c 0,-0.1 -0.1,0 0,0 h 5.4 c 0.1,0 0,-0.1 0,0 v 2.7 c 0,0.055 0.045,0.1 0.1,0.1 h 5.6 c 0.055,0 0.1,-0.045 0.1,-0.1 V 359 c 0,-0.1 -0.1,0 0,0 h 5.4 c 0.1,0 0,-0.1 0,0 v 2.7 c 0,0.055 0.045,0.1 0.1,0.1 h 5.6 c 0.055,0 0.1,-0.045 0.1,-0.1 V 359 c 0,-0.1 -0.1,0 0,0 h 5.4 c 0.1,0 0,-0.1 0,0 v 2.7 c 0,0.055 0.045,0.1 0.1,0.1 h 5.6 c 0.055,0 0.1,-0.045 0.1,-0.1 V 359 c 0,-0.1 -0.1,0 0,0 h 5.4 c 0.1,0 0,-0.1 0,0 v 2.7 c 0,0.055 0.045,0.1 0.1,0.1 h 5.6 c 0.055,0 0.1,-0.045 0.1,-0.1 V 359 c 0,-0.1 -0.1,0 0,0 h 2.3 c 0.055,0 0.1,-0.045 0.1,-0.1 v -2.3 c 0,-0.1 -0.1,0 0,0 h 2.7 c 0.055,0 0.1,-0.045 0.1,-0.1 v -5.6 c 0,-0.055 -0.045,-0.1 -0.1,-0.1 h -2.7 c -0.1,0 0,0.1 0,0 v -5.4 c 0,-0.1 -0.1,0 0,0 h 2.7 c 0.055,0 0.1,-0.045 0.1,-0.1 v -5.6 c 0,-0.055 -0.045,-0.1 -0.1,-0.1 h -2.7 c -0.1,0 0,0.1 0,0 v -5.4 c 0,-0.1 -0.1,0 0,0 h 2.7 c 0.055,0 0.1,-0.045 0.1,-0.1 v -5.6 c 0,-0.055 -0.045,-0.1 -0.1,-0.1 h -2.7 c -0.1,0 0,0.1 0,0 V 323 c 0,-0.1 -0.1,0 0,0 h 2.7 c 0.055,0 0.1,-0.045 0.1,-0.1 v -5.6 c 0,-0.055 -0.045,-0.1 -0.1,-0.1 h -2.7 c -0.1,0 0,0.1 0,0 v -5.4 c 0,-0.1 -0.1,0 0,0 h 2.7 c 0.055,0 0.1,-0.045 0.1,-0.1 v -5.6 c 0,-0.055 -0.045,-0.1 -0.1,-0.1 h -2.7 c -0.1,0 0,0.1 0,0 v -5.4 c 0,-0.1 -0.1,0 0,0 h 2.7 c 0.055,0 0.1,-0.045 0.1,-0.1 v -5.6 c 0,-0.055 -0.045,-0.1 -0.1,-0.1 h -2.7 c -0.1,0 0,0.1 0,0 v -5.4 c 0,-0.1 -0.1,0 0,0 h 2.7 c 0.055,0 0.1,-0.045 0.1,-0.1 v -5.6 c 0,-0.055 -0.045,-0.1 -0.1,-0.1 h -2.7 c -0.1,0 0,0.1 0,0 v -5.4 c 0,-0.1 -0.1,0 0,0 h 2.7 c 0.055,0 0.1,-0.045 0.1,-0.1 v -5.6 c 0,-0.055 -0.045,-0.1 -0.1,-0.1 h -2.7 c -0.1,0 0,0.1 0,0 V 267 c 0,-0.1 -0.1,0 0,0 h 2.7 c 0.055,0 0.1,-0.045 0.1,-0.1 v -5.6 c 0,-0.055 -0.045,-0.1 -0.1,-0.1 h -2.7 c -0.1,0 0,0.1 0,0 v -5.4 c 0,-0.1 -0.1,0 0,0 h 2.7 c 0.055,0 0.1,-0.045 0.1,-0.1 v -5.6 c 0,-0.055 -0.045,-0.1 -0.1,-0.1 h -2.7 c -0.1,0 0,0.1 0,0 v -5.4 c 0,-0.1 -0.1,0 0,0 h 2.7 c 0.055,0 0.1,-0.045 0.1,-0.1 v -5.6 c 0,-0.055 -0.045,-0.1 -0.1,-0.1 h -2.7 c -0.1,0 0,0.1 0,0 v -5.4 c 0,-0.1 -0.1,0 0,0 h 2.7 c 0.055,0 0.1,-0.045 0.1,-0.1 v -5.6 c 0,-0.055 -0.045,-0.1 -0.1,-0.1 h -2.7 c -0.1,0 0,0.1 0,0 v -5.4 c 0,-0.1 -0.1,0 0,0 h 2.7 c 0.055,0 0.1,-0.045 0.1,-0.1 v -5.6 c 0,-0.055 -0.045,-0.1 -0.1,-0.1 h -2.7 c -0.1,0 0,0.1 0,0 V 211 c 0,-0.1 -0.1,0 0,0 h 2.7 c 0.055,0 0.1,-0.045 0.1,-0.1 v -5.6 c 0,-0.055 -0.045,-0.1 -0.1,-0.1 h -2.7 c -0.1,0 0,0.1 0,0 v -5.4 c 0,-0.1 -0.1,0 0,0 h 2.7 c 0.055,0 0.1,-0.045 0.1,-0.1 v -5.6 c 0,-0.055 -0.045,-0.1 -0.1,-0.1 h -2.7 c -0.1,0 0,0.1 0,0 v -5.4 c 0,-0.1 -0.1,0 0,0 h 2.7 c 0.055,0 0.1,-0.045 0.1,-0.1 v -5.6 c 0,-0.055 -0.045,-0.1 -0.1,-0.1 h -2.7 c -0.1,0 0,0.1 0,0 v -5.4 c 0,-0.1 -0.1,0 0,0 h 2.7 c 0.055,0 0.1,-0.045 0.1,-0.1 v -5.6 c 0,-0.055 -0.045,-0.1 -0.1,-0.1 h -2.7 c -0.1,0 0,0.1 0,0 v -5.4 c 0,-0.1 -0.1,0 0,0 h 2.7 c 0.055,0 0.1,-0.045 0.1,-0.1 v -5.6 c 0,-0.055 -0.045,-0.1 -0.1,-0.1 h -2.7 c -0.1,0 0,0.1 0,0 V 155 c 0,-0.1 -0.1,0 0,0 h 2.7 c 0.055,0 0.1,-0.045 0.1,-0.1 v -5.6 c 0,-0.055 -0.045,-0.1 -0.1,-0.1 h -2.7 c -0.1,0 0,0.1 0,0 v -5.4 c 0,-0.1 -0.1,0 0,0 h 2.7 c 0.055,0 0.1,-0.045 0.1,-0.1 v -5.6 c 0,-0.055 -0.045,-0.1 -0.1,-0.1 h -2.7 c -0.1,0 0,0.1 0,0 v -5.4 c 0,-0.1 -0.1,0 0,0 h 2.7 c 0.055,0 0.1,-0.045 0.1,-0.1 v -5.6 c 0,-0.055 -0.045,-0.1 -0.1,-0.1 h -2.7 c -0.1,0 0,0.1 0,0 v -2.3 c 0,-0.055 -0.045,-0.1 -0.1,-0.1 H 245 c -0.1,0 0,0.1 0,0 v -2.7 c 0,-0.055 -0.045,-0.1 -0.1,-0.1 h -5.6 c -0.055,0 -0.1,0.045 -0.1,0.1 v 2.7 c 0,0.1 0.1,0 0,0 h -5.4 c -0.1,0 0,0.1 0,0 v -2.7 c 0,-0.055 -0.045,-0.1 -0.1,-0.1 h -5.6 c -0.055,0 -0.1,0.045 -0.1,0.1 v 2.7 c 0,0.1 0.1,0 0,0 h -5.4 c -0.1,0 0,0.1 0,0 v -2.7 c 0,-0.055 -0.045,-0.1 -0.1,-0.1 h -5.6 c -0.055,0 -0.1,0.045 -0.1,0.1 v 2.7 c 0,0.1 0.1,0 0,0 h -5.4 c -0.1,0 0,0.1 0,0 v -2.7 c 0,-0.055 -0.045,-0.1 -0.1,-0.1 h -5.6 c -0.055,0 -0.1,0.045 -0.1,0.1 v 2.7 c 0,0.1 0.1,0 0,0 h -5.4 c -0.1,0 0,0.1 0,0 v -2.7 c 0,-0.055 -0.045,-0.1 -0.1,-0.1 h -5.6 c -0.055,0 -0.1,0.045 -0.1,0.1 v 2.7 c 0,0.1 0.1,0 0,0 H 189 c -0.1,0 0,0.1 0,0 v -2.7 c 0,-0.055 -0.045,-0.1 -0.1,-0.1 h -5.6 c -0.055,0 -0.1,0.045 -0.1,0.1 v 2.7 c 0,0.1 0.1,0 0,0 h -5.4 c -0.1,0 0,0.1 0,0 v -2.7 c 0,-0.055 -0.045,-0.1 -0.1,-0.1 h -5.6 c -0.055,0 -0.1,0.045 -0.1,0.1 v 2.7 c 0,0.1 0.1,0 0,0 h -5.4 c -0.1,0 0,0.1 0,0 v -2.7 c 0,-0.055 -0.045,-0.1 -0.1,-0.1 h -5.6 c -0.055,0 -0.1,0.045 -0.1,0.1 v 2.7 c 0,0.1 0.1,0 0,0 h -5.4 c -0.1,0 0,0.1 0,0 v -2.7 c 0,-0.055 -0.045,-0.1 -0.1,-0.1 h -5.6 c -0.055,0 -0.1,0.045 -0.1,0.1 v 2.7 c 0,0.1 0.1,0 0,0 h -5.4 c -0.1,0 0,0.1 0,0 v -2.7 c 0,-0.055 -0.045,-0.1 -0.1,-0.1 h -5.6 c -0.055,0 -0.1,0.045 -0.1,0.1 v 2.7 c 0,0.1 0.1,0 0,0 H 133 c -0.1,0 0,0.1 0,0 v -2.7 c 0,-0.055 -0.045,-0.1 -0.1,-0.1 h -5.6 c -0.055,0 -0.1,0.045 -0.1,0.1 v 2.7 c 0,0.1 0.1,0 0,0 h -5.4 c -0.1,0 0,0.1 0,0 v -2.7 c 0,-0.055 -0.045,-0.1 -0.1,-0.1 h -5.6 c -0.055,0 -0.1,0.045 -0.1,0.1 v 2.7 c 0,0.1 0.1,0 0,0 h -5.4 c -0.1,0 0,0.1 0,0 v -2.7 c 0,-0.055 -0.045,-0.1 -0.1,-0.1 h -5.6 c -0.055,0 -0.1,0.045 -0.1,0.1 v 2.7 c 0,0.1 0.1,0 0,0 h -5.4 c -0.1,0 0,0.1 0,0 v -2.7 c 0,-0.055 -0.045,-0.1 -0.1,-0.1 h -5.6 c -0.055,0 -0.1,0.045 -0.1,0.1 v 2.7 c 0,0.1 0.1,0 0,0 h -5.4 c -0.1,0 0,0.1 0,0 v -2.7 c 0,-0.055 -0.045,-0.1 -0.1,-0.1 h -5.6 c -0.055,0 -0.1,0.045 -0.1,0.1 v 2.7 c 0,0.1 0.1,0 0,0 H 77 c -0.1,0 0,0.1 0,0 v -2.7 c 0,-0.055 -0.045,-0.1 -0.1,-0.1 h -5.6 c -0.055,0 -0.1,0.045 -0.1,0.1 v 2.7 c 0,0.1 0.1,0 0,0 h -5.4 c -0.1,0 0,0.1 0,0 v -2.7 c 0,-0.055 -0.045,-0.1 -0.1,-0.1 h -5.6 c -0.055,0 -0.1,0.045 -0.1,0.1 v 2.7 c 0,0.1 0.1,0 0,0 h -5.4 c -0.1,0 0,0.1 0,0 v -2.7 c 0,-0.055 -0.045,-0.1 -0.1,-0.1 h -5.6 c -0.055,0 -0.1,0.045 -0.1,0.1 v 2.7 c 0,0.1 0.1,0 0,0 h -5.4 c -0.1,0 0,0.1 0,0 v -2.7 c 0,-0.055 -0.045,-0.1 -0.1,-0.1 h -5.6 c -0.055,0 -0.1,0.045 -0.1,0.1 v 2.7 c 0,0.1 0.1,0 0,0 h -5.4 c -0.1,0 0,0.1 0,0 v -2.7 c 0,-0.055 -0.045,-0.1 -0.1,-0.1 h -5.6 c -0.055,0 -0.1,0.045 -0.1,0.1 v 2.7 c 0,0.1 0.1,0 0,0 H 21 c -0.1,0 0,0.1 0,0 v -2.7 c 0,-0.055 -0.045,-0.1 -0.1,-0.1 h -5.6 c -0.055,0 -0.1,0.045 -0.1,0.1 v 2.7 c 0,0.1 0.1,0 0,0 h -2.3 c -0.055,0 -0.1,0.045 -0.1,0.1 v 2.3 c 0,0.1 0.1,0 0,0 h -2.7 c -0.055,0 -0.1,0.045 -0.1,0.1 v 5.6 c 0,0.055 0.045,0.1 0.1,0.1 h 2.7 c 0.1,0 0,-0.1 0,0 v 5.4 c 0,0.1 0.1,0 0,0 h -2.7 c -0.055,0 -0.1,0.045 -0.1,0.1 v 5.6 c 0,0.055 0.045,0.1 0.1,0.1 h 2.7 c 0.1,0 0,-0.1 0,0 v 5.4 c 0,0.1 0.1,0 0,0 h -2.7 c -0.055,0 -0.1,0.045 -0.1,0.1 v 5.6 c 0,0.055 0.045,0.1 0.1,0.1 h 2.7 c 0.1,0 0,-0.1 0,0 v 5.4 c 0,0.1 0.1,0 0,0 h -2.7 c -0.055,0 -0.1,0.045 -0.1,0.1 v 5.6 c 0,0.055 0.045,0.1 0.1,0.1 h 2.7 c 0.1,0 0,-0.1 0,0 v 5.4 c 0,0.1 0.1,0 0,0 h -2.7 c -0.055,0 -0.1,0.045 -0.1,0.1 v 5.6 c 0,0.055 0.045,0.1 0.1,0.1 h 2.7 c 0.1,0 0,-0.1 0,0 v 5.4 c 0,0.1 0.1,0 0,0 h -2.7 c -0.055,0 -0.1,0.045 -0.1,0.1 v 5.6 c 0,0.055 0.045,0.1 0.1,0.1 h 2.7 c 0.1,0 0,-0.1 0,0 v 5.4 c 0,0.1 0.1,0 0,0 h -2.7 c -0.055,0 -0.1,0.045 -0.1,0.1 v 5.6 c 0,0.055 0.045,0.1 0.1,0.1 h 2.7 c 0.1,0 0,-0.1 0,0 v 5.4 c 0,0.1 0.1,0 0,0 h -2.7 c -0.055,0 -0.1,0.045 -0.1,0.1 v 5.6 c 0,0.055 0.045,0.1 0.1,0.1 h 2.7 c 0.1,0 0,-0.1 0,0 v 5.4 c 0,0.1 0.1,0 0,0 h -2.7 c -0.055,0 -0.1,0.045 -0.1,0.1 v 5.6 c 0,0.055 0.045,0.1 0.1,0.1 h 2.7 c 0.1,0 0,-0.1 0,0 v 5.4 c 0,0.1 0.1,0 0,0 h -2.7 c -0.055,0 -0.1,0.045 -0.1,0.1 v 5.6 c 0,0.055 0.045,0.1 0.1,0.1 h 2.7 c 0.1,0 0,-0.1 0,0 v 5.4 c 0,0.1 0.1,0 0,0 h -2.7 c -0.055,0 -0.1,0.045 -0.1,0.1 v 5.6 c 0,0.055 0.045,0.1 0.1,0.1 h 2.7 c 0.1,0 0,-0.1 0,0 v 5.4 c 0,0.1 0.1,0 0,0 h -2.7 c -0.055,0 -0.1,0.045 -0.1,0.1 v 5.6 c 0,0.055 0.045,0.1 0.1,0.1 h 2.7 c 0.1,0 0,-0.1 0,0 v 5.4 c 0,0.1 0.1,0 0,0 h -2.7 c -0.055,0 -0.1,0.045 -0.1,0.1 v 5.6 c 0,0.055 0.045,0.1 0.1,0.1 h 2.7 c 0.1,0 0,-0.1 0,0 v 5.4 c 0,0.1 0.1,0 0,0 h -2.7 c -0.055,0 -0.1,0.045 -0.1,0.1 v 5.6 c 0,0.055 0.045,0.1 0.1,0.1 h 2.7 c 0.1,0 0,-0.1 0,0 v 5.4 c 0,0.1 0.1,0 0,0 h -2.7 c -0.055,0 -0.1,0.045 -0.1,0.1 v 5.6 c 0,0.055 0.045,0.1 0.1,0.1 h 2.7 c 0.1,0 0,-0.1 0,0 v 5.4 c 0,0.1 0.1,0 0,0 h -2.7 c -0.055,0 -0.1,0.045 -0.1,0.1 v 5.6 c 0,0.055 0.045,0.1 0.1,0.1 h 2.7 c 0.1,0 0,-0.1 0,0 v 5.4 c 0,0.1 0.1,0 0,0 h -2.7 c -0.055,0 -0.1,0.045 -0.1,0.1 v 5.6 c 0,0.055 0.045,0.1 0.1,0.1 h 2.7 c 0.1,0 0,-0.1 0,0 v 5.4 c 0,0.1 0.1,0 0,0 h -2.7 c -0.055,0 -0.1,0.045 -0.1,0.1 v 5.6 c 0,0.055 0.045,0.1 0.1,0.1 h 2.7 c 0.1,0 0,-0.1 0,0 v 5.4 c 0,0.1 0.1,0 0,0 h -2.7 c -0.055,0 -0.1,0.045 -0.1,0.1 v 5.6 c 0,0.055 0.045,0.1 0.1,0.1 h 2.7 c 0.1,0 0,-0.1 0,0 v 5.4 c 0,0.1 0.1,0 0,0 h -2.7 c -0.055,0 -0.1,0.045 -0.1,0.1 v 5.6 c 0,0.055 0.045,0.1 0.1,0.1 h 2.7 c 0.1,0 0,-0.1 0,0 v 5.4 c 0,0.1 0.1,0 0,0 h -2.7 c -0.055,0 -0.1,0.045 -0.1,0.1 v 5.6 c 0,0.055 0.045,0.1 0.1,0.1 h 2.7 c 0.1,0 0,-0.1 0,0 v 2.3 c 0,0.055 0.045,0.1 0.1,0.1"
       stroke="rgb(0,0,0)"
       stroke-width="0.20"
       id="path180"
       style="stroke:#ff0000;stroke-width:0.352778;stroke-miterlimit:4;stroke-dasharray:none" />
    <path
       d="m 239.8,240.4 h 2.7 c 0.1,0 0,-0.1 0,0 v 2.6 c 0,0.1 0.1,0 0,0 h -5.4 c -0.1,0 0,0.1 0,0 v -2.6 c 0,-0.1 -0.1,0 0,0 z"
       stroke="rgb(0,0,255)"
       stroke-width="0.20"
       id="path182"
       style="stroke:#ff0000;stroke-width:0.352778;stroke-miterlimit:4;stroke-dasharray:none" />
    <path
       d="m 228.6,240.4 h 2.7 c 0.1,0 0,-0.1 0,0 v 2.6 c 0,0.1 0.1,0 0,0 h -5.4 c -0.1,0 0,0.1 0,0 v -2.6 c 0,-0.1 -0.1,0 0,0 z"
       stroke="rgb(0,0,255)"
       stroke-width="0.20"
       id="path184"
       style="stroke:#ff0000;stroke-width:0.352778;stroke-miterlimit:4;stroke-dasharray:none" />
    <path
       d="m 217.4,240.4 h 2.7 c 0.1,0 0,-0.1 0,0 v 2.6 c 0,0.1 0.1,0 0,0 h -5.4 c -0.1,0 0,0.1 0,0 v -2.6 c 0,-0.1 -0.1,0 0,0 z"
       stroke="rgb(0,0,255)"
       stroke-width="0.20"
       id="path186"
       style="stroke:#ff0000;stroke-width:0.352778;stroke-miterlimit:4;stroke-dasharray:none" />
    <path
       d="m 206.2,240.4 h 2.7 c 0.1,0 0,-0.1 0,0 v 2.6 c 0,0.1 0.1,0 0,0 h -5.4 c -0.1,0 0,0.1 0,0 v -2.6 c 0,-0.1 -0.1,0 0,0 z"
       stroke="rgb(0,0,255)"
       stroke-width="0.20"
       id="path188"
       style="stroke:#ff0000;stroke-width:0.352778;stroke-miterlimit:4;stroke-dasharray:none" />
    <path
       d="m 195,240.4 h 2.7 c 0.1,0 0,-0.1 0,0 v 2.6 c 0,0.1 0.1,0 0,0 h -5.4 c -0.1,0 0,0.1 0,0 v -2.6 c 0,-0.1 -0.1,0 0,0 z"
       stroke="rgb(0,0,255)"
       stroke-width="0.20"
       id="path190"
       style="stroke:#ff0000;stroke-width:0.352778;stroke-miterlimit:4;stroke-dasharray:none" />
    <path
       d="m 183.8,240.4 h 2.7 c 0.1,0 0,-0.1 0,0 v 2.6 c 0,0.1 0.1,0 0,0 h -5.4 c -0.1,0 0,0.1 0,0 v -2.6 c 0,-0.1 -0.1,0 0,0 z"
       stroke="rgb(0,0,255)"
       stroke-width="0.20"
       id="path192"
       style="stroke:#ff0000;stroke-width:0.352778;stroke-miterlimit:4;stroke-dasharray:none" />
    <path
       d="m 172.6,240.4 h 2.7 c 0.1,0 0,-0.1 0,0 v 2.6 c 0,0.1 0.1,0 0,0 h -5.4 c -0.1,0 0,0.1 0,0 v -2.6 c 0,-0.1 -0.1,0 0,0 z"
       stroke="rgb(0,0,255)"
       stroke-width="0.20"
       id="path194"
       style="stroke:#ff0000;stroke-width:0.352778;stroke-miterlimit:4;stroke-dasharray:none" />
    <path
       d="m 161.4,240.4 h 2.7 c 0.1,0 0,-0.1 0,0 v 2.6 c 0,0.1 0.1,0 0,0 h -5.4 c -0.1,0 0,0.1 0,0 v -2.6 c 0,-0.1 -0.1,0 0,0 z"
       stroke="rgb(0,0,255)"
       stroke-width="0.20"
       id="path196"
       style="stroke:#ff0000;stroke-width:0.352778;stroke-miterlimit:4;stroke-dasharray:none" />
    <path
       d="m 150.2,240.4 h 2.7 c 0.1,0 0,-0.1 0,0 v 2.6 c 0,0.1 0.1,0 0,0 h -5.4 c -0.1,0 0,0.1 0,0 v -2.6 c 0,-0.1 -0.1,0 0,0 z"
       stroke="rgb(0,0,255)"
       stroke-width="0.20"
       id="path198"
       style="stroke:#ff0000;stroke-width:0.352778;stroke-miterlimit:4;stroke-dasharray:none" />
    <path
       d="m 139,240.4 h 2.7 c 0.1,0 0,-0.1 0,0 v 2.6 c 0,0.1 0.1,0 0,0 h -5.4 c -0.1,0 0,0.1 0,0 v -2.6 c 0,-0.1 -0.1,0 0,0 z"
       stroke="rgb(0,0,255)"
       stroke-width="0.20"
       id="path200"
       style="stroke:#ff0000;stroke-width:0.352778;stroke-miterlimit:4;stroke-dasharray:none" />
    <path
       d="m 121.2,240.4 h 2.7 c 0.1,0 0,-0.1 0,0 v 2.6 c 0,0.1 0.1,0 0,0 h -5.4 c -0.1,0 0,0.1 0,0 v -2.6 c 0,-0.1 -0.1,0 0,0 z"
       stroke="rgb(0,0,255)"
       stroke-width="0.20"
       id="path202"
       style="stroke:#ff0000;stroke-width:0.352778;stroke-miterlimit:4;stroke-dasharray:none" />
    <path
       d="m 110,240.4 h 2.7 c 0.1,0 0,-0.1 0,0 v 2.6 c 0,0.1 0.1,0 0,0 h -5.4 c -0.1,0 0,0.1 0,0 v -2.6 c 0,-0.1 -0.1,0 0,0 z"
       stroke="rgb(0,0,255)"
       stroke-width="0.20"
       id="path204"
       style="stroke:#ff0000;stroke-width:0.352778;stroke-miterlimit:4;stroke-dasharray:none" />
    <path
       d="m 98.8,240.4 h 2.7 c 0.1,0 0,-0.1 0,0 v 2.6 c 0,0.1 0.1,0 0,0 h -5.4 c -0.1,0 0,0.1 0,0 v -2.6 c 0,-0.1 -0.1,0 0,0 z"
       stroke="rgb(0,0,255)"
       stroke-width="0.20"
       id="path206"
       style="stroke:#ff0000;stroke-width:0.352778;stroke-miterlimit:4;stroke-dasharray:none" />
    <path
       d="m 87.6,240.4 h 2.7 c 0.1,0 0,-0.1 0,0 v 2.6 c 0,0.1 0.1,0 0,0 h -5.4 c -0.1,0 0,0.1 0,0 v -2.6 c 0,-0.1 -0.1,0 0,0 z"
       stroke="rgb(0,0,255)"
       stroke-width="0.20"
       id="path208"
       style="stroke:#ff0000;stroke-width:0.352778;stroke-miterlimit:4;stroke-dasharray:none" />
    <path
       d="m 76.4,240.4 h 2.7 c 0.1,0 0,-0.1 0,0 v 2.6 c 0,0.1 0.1,0 0,0 h -5.4 c -0.1,0 0,0.1 0,0 v -2.6 c 0,-0.1 -0.1,0 0,0 z"
       stroke="rgb(0,0,255)"
       stroke-width="0.20"
       id="path210"
       style="stroke:#ff0000;stroke-width:0.352778;stroke-miterlimit:4;stroke-dasharray:none" />
    <path
       d="m 65.2,240.4 h 2.7 c 0.1,0 0,-0.1 0,0 v 2.6 c 0,0.1 0.1,0 0,0 h -5.4 c -0.1,0 0,0.1 0,0 v -2.6 c 0,-0.1 -0.1,0 0,0 z"
       stroke="rgb(0,0,255)"
       stroke-width="0.20"
       id="path212"
       style="stroke:#ff0000;stroke-width:0.352778;stroke-miterlimit:4;stroke-dasharray:none" />
    <path
       d="m 54,240.4 h 2.7 c 0.1,0 0,-0.1 0,0 v 2.6 c 0,0.1 0.1,0 0,0 h -5.4 c -0.1,0 0,0.1 0,0 v -2.6 c 0,-0.1 -0.1,0 0,0 z"
       stroke="rgb(0,0,255)"
       stroke-width="0.20"
       id="path214"
       style="stroke:#ff0000;stroke-width:0.352778;stroke-miterlimit:4;stroke-dasharray:none" />
    <path
       d="m 42.8,240.4 h 2.7 c 0.1,0 0,-0.1 0,0 v 2.6 c 0,0.1 0.1,0 0,0 h -5.4 c -0.1,0 0,0.1 0,0 v -2.6 c 0,-0.1 -0.1,0 0,0 z"
       stroke="rgb(0,0,255)"
       stroke-width="0.20"
       id="path216"
       style="stroke:#ff0000;stroke-width:0.352778;stroke-miterlimit:4;stroke-dasharray:none" />
    <path
       d="m 31.6,240.4 h 2.7 c 0.1,0 0,-0.1 0,0 v 2.6 c 0,0.1 0.1,0 0,0 h -5.4 c -0.1,0 0,0.1 0,0 v -2.6 c 0,-0.1 -0.1,0 0,0 z"
       stroke="rgb(0,0,255)"
       stroke-width="0.20"
       id="path218"
       style="stroke:#ff0000;stroke-width:0.352778;stroke-miterlimit:4;stroke-dasharray:none" />
    <path
       d="m 20.4,240.4 h 2.7 c 0.1,0 0,-0.1 0,0 v 2.6 c 0,0.1 0.1,0 0,0 h -5.4 c -0.1,0 0,0.1 0,0 v -2.6 c 0,-0.1 -0.1,0 0,0 z"
       stroke="rgb(0,0,255)"
       stroke-width="0.20"
       id="path220"
       style="stroke:#ff0000;stroke-width:0.352778;stroke-miterlimit:4;stroke-dasharray:none" />
  </g>
</svg>
