<?xml version="1.0" encoding="UTF-8" standalone="no"?>
<svg
   height="339.35278mm"
   viewBox="0 0 482.38292 339.3528"
   width="482.3829mm"
   version="1.1"
   id="svg363"
   sodipodi:docname="Large box for large round push button with Light - part2.svg"
   inkscape:version="1.1 (c68e22c387, 2021-05-23)"
   xmlns:inkscape="http://www.inkscape.org/namespaces/inkscape"
   xmlns:sodipodi="http://sodipodi.sourceforge.net/DTD/sodipodi-0.dtd"
   xmlns="http://www.w3.org/2000/svg"
   xmlns:svg="http://www.w3.org/2000/svg"
   xmlns:rdf="http://www.w3.org/1999/02/22-rdf-syntax-ns#"
   xmlns:cc="http://creativecommons.org/ns#"
   xmlns:dc="http://purl.org/dc/elements/1.1/">
  <defs
     id="defs367" />
  <sodipodi:namedview
     id="namedview365"
     pagecolor="#ffffff"
     bordercolor="#666666"
     borderopacity="1.0"
     inkscape:pageshadow="2"
     inkscape:pageopacity="0.0"
     inkscape:pagecheckerboard="0"
     inkscape:document-units="mm"
     showgrid="false"
     fit-margin-top="0"
     fit-margin-left="0"
     fit-margin-right="0"
     fit-margin-bottom="0"
     inkscape:zoom="0.20683796"
     inkscape:cx="679.2757"
     inkscape:cy="-65.268484"
     inkscape:window-width="1551"
     inkscape:window-height="836"
     inkscape:window-x="0"
     inkscape:window-y="27"
     inkscape:window-maximized="1"
     inkscape:current-layer="svg363"
     showguides="true"
     inkscape:guide-bbox="true" />
  <!--
TypeTray - Type tray - allows only continuous walls

Created with Boxes.py (https://festi.info/boxes.py)
Creation date: 2021-09-21 10:44:13
Command line (remove spaces between dashes): boxes TypeTray - -FingerJoint_angle=90.0 - -FingerJoint_style=rectangular - -FingerJoint_surroundingspaces=0.5 - -FingerJoint_edge_width=1.0 - -FingerJoint_finger=2.0 - -FingerJoint_play=0.0 - -FingerJoint_space=2.0 - -FingerJoint_width=1.0 - -Stackable_angle=60 - -Stackable_height=2.0 - -Stackable_holedistance=1.0 - -Stackable_width=4.0 - -Hinge_grip_percentage=0 - -Hinge_outset=0 - -Hinge_pinwidth=0.5 - -Hinge_style=outset - -Hinge_axle=2 - -Hinge_grip_length=0 - -Hinge_hingestrength=1 - -CabinetHinge_bore=3.2 - -CabinetHinge_eyes_per_hinge=5 - -CabinetHinge_hinges=2 - -CabinetHinge_style=inside - -CabinetHinge_eye=1.5 - -CabinetHinge_play=0.05 - -CabinetHinge_spacing=2.0 - -Lid_angle=90.0 - -Lid_hole_width=0 - -Lid_second_pin=0 - -Lid_second_pin=1 - -Lid_spring=both - -Lid_style=rectangular - -Lid_surroundingspaces=2.0 - -Lid_edge_width=1.0 - -Lid_finger=3.0 - -Lid_play=0.05 - -Lid_space=2.0 - -Lid_width=1.0 - -Click_angle=5.0 - -Click_bottom_radius=0.1 - -Click_depth=3.0 - -RoundedTriangleEdge_height=150.0 - -RoundedTriangleEdge_r_hole=2.0 - -RoundedTriangleEdge_radius=30.0 - -RoundedTriangleEdge_outset=1 '- -sx=120*2' '- -sy=120*2' - -h=110.0 - -hi=0.0 - -outside=0 - -outside=1 - -bottom_edge=h - -top_edge=e - -gripheight=30 - -gripwidth=70 - -thickness=2.8 - -format=svg - -tabs=0.0 - -debug=0 - -labels=0 - -labels=1 - -reference=0 - -burn=0.1
Url: http://www.festi.info/TypeTray?FingerJoint_angle=90.0&FingerJoint_style=rectangular&FingerJoint_surroundingspaces=0.5&FingerJoint_edge_width=1.0&FingerJoint_finger=2.0&FingerJoint_play=0.0&FingerJoint_space=2.0&FingerJoint_width=1.0&Stackable_angle=60&Stackable_height=2.0&Stackable_holedistance=1.0&Stackable_width=4.0&Hinge_grip_percentage=0&Hinge_outset=0&Hinge_pinwidth=0.5&Hinge_style=outset&Hinge_axle=2&Hinge_grip_length=0&Hinge_hingestrength=1&CabinetHinge_bore=3.2&CabinetHinge_eyes_per_hinge=5&CabinetHinge_hinges=2&CabinetHinge_style=inside&CabinetHinge_eye=1.5&CabinetHinge_play=0.05&CabinetHinge_spacing=2.0&Lid_angle=90.0&Lid_hole_width=0&Lid_second_pin=0&Lid_second_pin=1&Lid_spring=both&Lid_style=rectangular&Lid_surroundingspaces=2.0&Lid_edge_width=1.0&Lid_finger=3.0&Lid_play=0.05&Lid_space=2.0&Lid_width=1.0&Click_angle=5.0&Click_bottom_radius=0.1&Click_depth=3.0&RoundedTriangleEdge_height=150.0&RoundedTriangleEdge_r_hole=2.0&RoundedTriangleEdge_radius=30.0&RoundedTriangleEdge_outset=1&sx=120*2&sy=120*2&h=110.0&hi=0.0&outside=0&outside=1&bottom_edge=h&top_edge=e&gripheight=30&gripwidth=70&thickness=2.8&format=svg&tabs=0.0&debug=0&labels=0&labels=1&reference=0&burn=0.1&render=1
SettingsUrl: http://www.festi.info/TypeTray?FingerJoint_angle=90.0&FingerJoint_style=rectangular&FingerJoint_surroundingspaces=0.5&FingerJoint_edge_width=1.0&FingerJoint_finger=2.0&FingerJoint_play=0.0&FingerJoint_space=2.0&FingerJoint_width=1.0&Stackable_angle=60&Stackable_height=2.0&Stackable_holedistance=1.0&Stackable_width=4.0&Hinge_grip_percentage=0&Hinge_outset=0&Hinge_pinwidth=0.5&Hinge_style=outset&Hinge_axle=2&Hinge_grip_length=0&Hinge_hingestrength=1&CabinetHinge_bore=3.2&CabinetHinge_eyes_per_hinge=5&CabinetHinge_hinges=2&CabinetHinge_style=inside&CabinetHinge_eye=1.5&CabinetHinge_play=0.05&CabinetHinge_spacing=2.0&Lid_angle=90.0&Lid_hole_width=0&Lid_second_pin=0&Lid_second_pin=1&Lid_spring=both&Lid_style=rectangular&Lid_surroundingspaces=2.0&Lid_edge_width=1.0&Lid_finger=3.0&Lid_play=0.05&Lid_space=2.0&Lid_width=1.0&Click_angle=5.0&Click_bottom_radius=0.1&Click_depth=3.0&RoundedTriangleEdge_height=150.0&RoundedTriangleEdge_r_hole=2.0&RoundedTriangleEdge_radius=30.0&RoundedTriangleEdge_outset=1&sx=120*2&sy=120*2&h=110.0&hi=0.0&outside=0&outside=1&bottom_edge=h&top_edge=e&gripheight=30&gripwidth=70&thickness=2.8&format=svg&tabs=0.0&debug=0&labels=0&labels=1&reference=0&burn=0.1
-->
  <title
     id="title2">TypeTray</title>
  <metadata
     id="metadata4">
    <rdf:RDF>
      <cc:Work>
        <dc:title>Tray - TypeTray</dc:title>
        <dc:date>2021-09-21 10:44:13</dc:date>
        <dc:source>http://www.festi.info/TypeTray?FingerJoint_angle=90.0&amp;FingerJoint_style=rectangular&amp;FingerJoint_surroundingspaces=0.5&amp;FingerJoint_edge_width=1.0&amp;FingerJoint_finger=2.0&amp;FingerJoint_play=0.0&amp;FingerJoint_space=2.0&amp;FingerJoint_width=1.0&amp;Stackable_angle=60&amp;Stackable_height=2.0&amp;Stackable_holedistance=1.0&amp;Stackable_width=4.0&amp;Hinge_grip_percentage=0&amp;Hinge_outset=0&amp;Hinge_pinwidth=0.5&amp;Hinge_style=outset&amp;Hinge_axle=2&amp;Hinge_grip_length=0&amp;Hinge_hingestrength=1&amp;CabinetHinge_bore=3.2&amp;CabinetHinge_eyes_per_hinge=5&amp;CabinetHinge_hinges=2&amp;CabinetHinge_style=inside&amp;CabinetHinge_eye=1.5&amp;CabinetHinge_play=0.05&amp;CabinetHinge_spacing=2.0&amp;Lid_angle=90.0&amp;Lid_hole_width=0&amp;Lid_second_pin=0&amp;Lid_second_pin=1&amp;Lid_spring=both&amp;Lid_style=rectangular&amp;Lid_surroundingspaces=2.0&amp;Lid_edge_width=1.0&amp;Lid_finger=3.0&amp;Lid_play=0.05&amp;Lid_space=2.0&amp;Lid_width=1.0&amp;Click_angle=5.0&amp;Click_bottom_radius=0.1&amp;Click_depth=3.0&amp;RoundedTriangleEdge_height=150.0&amp;RoundedTriangleEdge_r_hole=2.0&amp;RoundedTriangleEdge_radius=30.0&amp;RoundedTriangleEdge_outset=1&amp;sx=120*2&amp;sy=120*2&amp;h=110.0&amp;hi=0.0&amp;outside=0&amp;outside=1&amp;bottom_edge=h&amp;top_edge=e&amp;gripheight=30&amp;gripwidth=70&amp;thickness=2.8&amp;format=svg&amp;tabs=0.0&amp;debug=0&amp;labels=0&amp;labels=1&amp;reference=0&amp;burn=0.1&amp;render=1</dc:source>
        <dc:description>Type tray - allows only continuous walls

Created with Boxes.py (https://festi.info/boxes.py)
Command line: boxes TypeTray --FingerJoint_angle=90.0 --FingerJoint_style=rectangular --FingerJoint_surroundingspaces=0.5 --FingerJoint_edge_width=1.0 --FingerJoint_finger=2.0 --FingerJoint_play=0.0 --FingerJoint_space=2.0 --FingerJoint_width=1.0 --Stackable_angle=60 --Stackable_height=2.0 --Stackable_holedistance=1.0 --Stackable_width=4.0 --Hinge_grip_percentage=0 --Hinge_outset=0 --Hinge_pinwidth=0.5 --Hinge_style=outset --Hinge_axle=2 --Hinge_grip_length=0 --Hinge_hingestrength=1 --CabinetHinge_bore=3.2 --CabinetHinge_eyes_per_hinge=5 --CabinetHinge_hinges=2 --CabinetHinge_style=inside --CabinetHinge_eye=1.5 --CabinetHinge_play=0.05 --CabinetHinge_spacing=2.0 --Lid_angle=90.0 --Lid_hole_width=0 --Lid_second_pin=0 --Lid_second_pin=1 --Lid_spring=both --Lid_style=rectangular --Lid_surroundingspaces=2.0 --Lid_edge_width=1.0 --Lid_finger=3.0 --Lid_play=0.05 --Lid_space=2.0 --Lid_width=1.0 --Click_angle=5.0 --Click_bottom_radius=0.1 --Click_depth=3.0 --RoundedTriangleEdge_height=150.0 --RoundedTriangleEdge_r_hole=2.0 --RoundedTriangleEdge_radius=30.0 --RoundedTriangleEdge_outset=1 '--sx=120*2' '--sy=120*2' --h=110.0 --hi=0.0 --outside=0 --outside=1 --bottom_edge=h --top_edge=e --gripheight=30 --gripwidth=70 --thickness=2.8 --format=svg --tabs=0.0 --debug=0 --labels=0 --labels=1 --reference=0 --burn=0.1
Url: http://www.festi.info/TypeTray?FingerJoint_angle=90.0&amp;FingerJoint_style=rectangular&amp;FingerJoint_surroundingspaces=0.5&amp;FingerJoint_edge_width=1.0&amp;FingerJoint_finger=2.0&amp;FingerJoint_play=0.0&amp;FingerJoint_space=2.0&amp;FingerJoint_width=1.0&amp;Stackable_angle=60&amp;Stackable_height=2.0&amp;Stackable_holedistance=1.0&amp;Stackable_width=4.0&amp;Hinge_grip_percentage=0&amp;Hinge_outset=0&amp;Hinge_pinwidth=0.5&amp;Hinge_style=outset&amp;Hinge_axle=2&amp;Hinge_grip_length=0&amp;Hinge_hingestrength=1&amp;CabinetHinge_bore=3.2&amp;CabinetHinge_eyes_per_hinge=5&amp;CabinetHinge_hinges=2&amp;CabinetHinge_style=inside&amp;CabinetHinge_eye=1.5&amp;CabinetHinge_play=0.05&amp;CabinetHinge_spacing=2.0&amp;Lid_angle=90.0&amp;Lid_hole_width=0&amp;Lid_second_pin=0&amp;Lid_second_pin=1&amp;Lid_spring=both&amp;Lid_style=rectangular&amp;Lid_surroundingspaces=2.0&amp;Lid_edge_width=1.0&amp;Lid_finger=3.0&amp;Lid_play=0.05&amp;Lid_space=2.0&amp;Lid_width=1.0&amp;Click_angle=5.0&amp;Click_bottom_radius=0.1&amp;Click_depth=3.0&amp;RoundedTriangleEdge_height=150.0&amp;RoundedTriangleEdge_r_hole=2.0&amp;RoundedTriangleEdge_radius=30.0&amp;RoundedTriangleEdge_outset=1&amp;sx=120*2&amp;sy=120*2&amp;h=110.0&amp;hi=0.0&amp;outside=0&amp;outside=1&amp;bottom_edge=h&amp;top_edge=e&amp;gripheight=30&amp;gripwidth=70&amp;thickness=2.8&amp;format=svg&amp;tabs=0.0&amp;debug=0&amp;labels=0&amp;labels=1&amp;reference=0&amp;burn=0.1&amp;render=1
SettingsUrl: http://www.festi.info/TypeTray?FingerJoint_angle=90.0&amp;FingerJoint_style=rectangular&amp;FingerJoint_surroundingspaces=0.5&amp;FingerJoint_edge_width=1.0&amp;FingerJoint_finger=2.0&amp;FingerJoint_play=0.0&amp;FingerJoint_space=2.0&amp;FingerJoint_width=1.0&amp;Stackable_angle=60&amp;Stackable_height=2.0&amp;Stackable_holedistance=1.0&amp;Stackable_width=4.0&amp;Hinge_grip_percentage=0&amp;Hinge_outset=0&amp;Hinge_pinwidth=0.5&amp;Hinge_style=outset&amp;Hinge_axle=2&amp;Hinge_grip_length=0&amp;Hinge_hingestrength=1&amp;CabinetHinge_bore=3.2&amp;CabinetHinge_eyes_per_hinge=5&amp;CabinetHinge_hinges=2&amp;CabinetHinge_style=inside&amp;CabinetHinge_eye=1.5&amp;CabinetHinge_play=0.05&amp;CabinetHinge_spacing=2.0&amp;Lid_angle=90.0&amp;Lid_hole_width=0&amp;Lid_second_pin=0&amp;Lid_second_pin=1&amp;Lid_spring=both&amp;Lid_style=rectangular&amp;Lid_surroundingspaces=2.0&amp;Lid_edge_width=1.0&amp;Lid_finger=3.0&amp;Lid_play=0.05&amp;Lid_space=2.0&amp;Lid_width=1.0&amp;Click_angle=5.0&amp;Click_bottom_radius=0.1&amp;Click_depth=3.0&amp;RoundedTriangleEdge_height=150.0&amp;RoundedTriangleEdge_r_hole=2.0&amp;RoundedTriangleEdge_radius=30.0&amp;RoundedTriangleEdge_outset=1&amp;sx=120*2&amp;sy=120*2&amp;h=110.0&amp;hi=0.0&amp;outside=0&amp;outside=1&amp;bottom_edge=h&amp;top_edge=e&amp;gripheight=30&amp;gripwidth=70&amp;thickness=2.8&amp;format=svg&amp;tabs=0.0&amp;debug=0&amp;labels=0&amp;labels=1&amp;reference=0&amp;burn=0.1
</dc:description>
      </cc:Work>
    </rdf:RDF>
  </metadata>
  <path
     d="m 2.8202524,324.67639 v 2.7 c 0,0.1 0.1,0 0,0 H 0.22025237 c -0.1,0 0,0.1 0,0 v -5.4 c 0,-0.1 -0.1,0 0,0 H 2.8202524 c 0.1,0 0,-0.1 0,0 z"
     stroke="rgb(0,0,255)"
     stroke-width="0.2"
     id="path6"
     style="fill:none;stroke:#ff0000;stroke-width:0.352778;stroke-linecap:round;stroke-linejoin:round;stroke-miterlimit:4;stroke-dasharray:none" />
  <path
     d="m 2.8202524,313.47639 v 2.7 c 0,0.1 0.1,0 0,0 H 0.22025237 c -0.1,0 0,0.1 0,0 v -5.4 c 0,-0.1 -0.1,0 0,0 H 2.8202524 c 0.1,0 0,-0.1 0,0 z"
     stroke="rgb(0,0,255)"
     stroke-width="0.2"
     id="path8"
     style="fill:none;stroke:#ff0000;stroke-width:0.352778;stroke-linecap:round;stroke-linejoin:round;stroke-miterlimit:4;stroke-dasharray:none" />
  <path
     d="m 2.8202524,302.27639 v 2.7 c 0,0.1 0.1,0 0,0 H 0.22025237 c -0.1,0 0,0.1 0,0 v -5.4 c 0,-0.1 -0.1,0 0,0 H 2.8202524 c 0.1,0 0,-0.1 0,0 z"
     stroke="rgb(0,0,255)"
     stroke-width="0.2"
     id="path10"
     style="fill:none;stroke:#ff0000;stroke-width:0.352778;stroke-linecap:round;stroke-linejoin:round;stroke-miterlimit:4;stroke-dasharray:none" />
  <path
     d="m 2.8202524,291.07639 v 2.7 c 0,0.1 0.1,0 0,0 H 0.22025237 c -0.1,0 0,0.1 0,0 v -5.4 c 0,-0.1 -0.1,0 0,0 H 2.8202524 c 0.1,0 0,-0.1 0,0 z"
     stroke="rgb(0,0,255)"
     stroke-width="0.2"
     id="path12"
     style="fill:none;stroke:#ff0000;stroke-width:0.352778;stroke-linecap:round;stroke-linejoin:round;stroke-miterlimit:4;stroke-dasharray:none" />
  <path
     d="m 2.8202524,279.87639 v 2.7 c 0,0.1 0.1,0 0,0 H 0.22025237 c -0.1,0 0,0.1 0,0 v -5.4 c 0,-0.1 -0.1,0 0,0 H 2.8202524 c 0.1,0 0,-0.1 0,0 z"
     stroke="rgb(0,0,255)"
     stroke-width="0.2"
     id="path14"
     style="fill:none;stroke:#ff0000;stroke-width:0.352778;stroke-linecap:round;stroke-linejoin:round;stroke-miterlimit:4;stroke-dasharray:none" />
  <path
     d="m 2.8202524,268.67639 v 2.7 c 0,0.1 0.1,0 0,0 H 0.22025237 c -0.1,0 0,0.1 0,0 v -5.4 c 0,-0.1 -0.1,0 0,0 H 2.8202524 c 0.1,0 0,-0.1 0,0 z"
     stroke="rgb(0,0,255)"
     stroke-width="0.2"
     id="path16"
     style="fill:none;stroke:#ff0000;stroke-width:0.352778;stroke-linecap:round;stroke-linejoin:round;stroke-miterlimit:4;stroke-dasharray:none" />
  <path
     d="m 2.8202524,257.47639 v 2.7 c 0,0.1 0.1,0 0,0 H 0.22025237 c -0.1,0 0,0.1 0,0 v -5.4 c 0,-0.1 -0.1,0 0,0 H 2.8202524 c 0.1,0 0,-0.1 0,0 z"
     stroke="rgb(0,0,255)"
     stroke-width="0.2"
     id="path18"
     style="fill:none;stroke:#ff0000;stroke-width:0.352778;stroke-linecap:round;stroke-linejoin:round;stroke-miterlimit:4;stroke-dasharray:none" />
  <path
     d="m 2.8202524,246.27639 v 2.7 c 0,0.1 0.1,0 0,0 H 0.22025237 c -0.1,0 0,0.1 0,0 v -5.4 c 0,-0.1 -0.1,0 0,0 H 2.8202524 c 0.1,0 0,-0.1 0,0 z"
     stroke="rgb(0,0,255)"
     stroke-width="0.2"
     id="path20"
     style="fill:none;stroke:#ff0000;stroke-width:0.352778;stroke-linecap:round;stroke-linejoin:round;stroke-miterlimit:4;stroke-dasharray:none" />
  <path
     d="m 2.8202524,235.07639 v 2.7 c 0,0.1 0.1,0 0,0 H 0.22025237 c -0.1,0 0,0.1 0,0 v -5.4 c 0,-0.1 -0.1,0 0,0 H 2.8202524 c 0.1,0 0,-0.1 0,0 z"
     stroke="rgb(0,0,255)"
     stroke-width="0.2"
     id="path22"
     style="fill:none;stroke:#ff0000;stroke-width:0.352778;stroke-linecap:round;stroke-linejoin:round;stroke-miterlimit:4;stroke-dasharray:none" />
  <path
     d="M 2.9202524,336.17639 H 0.22025237 c -0.1,0 0,0.1 0,0 v -2.6 c 0,-0.1 -0.1,0 0,0 H 5.6202525 c 0.1,0 0,-0.1 0,0 v 2.6 c 0,0.1 0.1,0 0,0 z"
     stroke="rgb(0,0,255)"
     stroke-width="0.2"
     id="path24"
     style="fill:none;stroke:#ff0000;stroke-width:0.352778;stroke-linecap:round;stroke-linejoin:round;stroke-miterlimit:4;stroke-dasharray:none" />
  <path
     d="M 2.9202524,336.17639 H 0.22025237 c -0.1,0 0,0.1 0,0 v -2.6 c 0,-0.1 -0.1,0 0,0 H 5.6202524 c 0.1,0 0,-0.1 0,0 v 2.6 c 0,0.1 0.1,0 0,0 z"
     stroke="rgb(0,0,255)"
     stroke-width="0.2"
     id="path26"
     style="fill:none;stroke:#ff0000;stroke-width:0.352778;stroke-linecap:round;stroke-linejoin:round;stroke-miterlimit:4;stroke-dasharray:none" />
  <path
     d="M 2.9202524,336.17639 H 0.22025237 c -0.1,0 0,0.1 0,0 v -2.6 c 0,-0.1 -0.1,0 0,0 H 5.6202524 c 0.1,0 0,-0.1 0,0 v 2.6 c 0,0.1 0.1,0 0,0 z"
     stroke="rgb(0,0,255)"
     stroke-width="0.2"
     id="path28"
     style="fill:none;stroke:#ff0000;stroke-width:0.352778;stroke-linecap:round;stroke-linejoin:round;stroke-miterlimit:4;stroke-dasharray:none" />
  <path
     d="M 2.9202524,336.17639 H 0.22025237 c -0.1,0 0,0.1 0,0 v -2.6 c 0,-0.1 -0.1,0 0,0 H 5.6202524 c 0.1,0 0,-0.1 0,0 v 2.6 c 0,0.1 0.1,0 0,0 z"
     stroke="rgb(0,0,255)"
     stroke-width="0.2"
     id="path30"
     style="fill:none;stroke:#ff0000;stroke-width:0.352778;stroke-linecap:round;stroke-linejoin:round;stroke-miterlimit:4;stroke-dasharray:none" />
  <path
     d="M 2.9202524,336.17639 H 0.22025237 c -0.1,0 0,0.1 0,0 v -2.6 c 0,-0.1 -0.1,0 0,0 H 5.6202524 c 0.1,0 0,-0.1 0,0 v 2.6 c 0,0.1 0.1,0 0,0 z"
     stroke="rgb(0,0,255)"
     stroke-width="0.2"
     id="path32"
     style="fill:none;stroke:#ff0000;stroke-width:0.352778;stroke-linecap:round;stroke-linejoin:round;stroke-miterlimit:4;stroke-dasharray:none" />
  <path
     d="M 2.9202524,336.17639 H 0.22025237 c -0.1,0 0,0.1 0,0 v -2.6 c 0,-0.1 -0.1,0 0,0 H 5.6202524 c 0.1,0 0,-0.1 0,0 v 2.6 c 0,0.1 0.1,0 0,0 z"
     stroke="rgb(0,0,255)"
     stroke-width="0.2"
     id="path34"
     style="fill:none;stroke:#ff0000;stroke-width:0.352778;stroke-linecap:round;stroke-linejoin:round;stroke-miterlimit:4;stroke-dasharray:none" />
  <path
     d="M 2.9202524,336.17639 H 0.22025237 c -0.1,0 0,0.1 0,0 v -2.6 c 0,-0.1 -0.1,0 0,0 H 5.6202524 c 0.1,0 0,-0.1 0,0 v 2.6 c 0,0.1 0.1,0 0,0 z"
     stroke="rgb(0,0,255)"
     stroke-width="0.2"
     id="path36"
     style="fill:none;stroke:#ff0000;stroke-width:0.352778;stroke-linecap:round;stroke-linejoin:round;stroke-miterlimit:4;stroke-dasharray:none" />
  <path
     d="M 2.9202524,336.17639 H 0.22025237 c -0.1,0 0,0.1 0,0 v -2.6 c 0,-0.1 -0.1,0 0,0 H 5.6202524 c 0.1,0 0,-0.1 0,0 v 2.6 c 0,0.1 0.1,0 0,0 z"
     stroke="rgb(0,0,255)"
     stroke-width="0.2"
     id="path38"
     style="fill:none;stroke:#ff0000;stroke-width:0.352778;stroke-linecap:round;stroke-linejoin:round;stroke-miterlimit:4;stroke-dasharray:none" />
  <path
     d="M 2.9202524,336.17639 H 0.22025237 c -0.1,0 0,0.1 0,0 v -2.6 c 0,-0.1 -0.1,0 0,0 H 5.6202474 c 0.1,0 0,-0.1 0,0 v 2.6 c 0,0.1 0.1,0 0,0 z"
     stroke="rgb(0,0,255)"
     stroke-width="0.2"
     id="path40"
     style="fill:none;stroke:#ff0000;stroke-width:0.352778;stroke-linecap:round;stroke-linejoin:round;stroke-miterlimit:4;stroke-dasharray:none" />
  <path
     d="M 2.9202524,336.17639 H 0.22025237 c -0.1,0 0,0.1 0,0 v -2.6 c 0,-0.1 -0.1,0 0,0 H 5.6202524 c 0.1,0 0,-0.1 0,0 v 2.6 c 0,0.1 0.1,0 0,0 z"
     stroke="rgb(0,0,255)"
     stroke-width="0.2"
     id="path42"
     style="fill:none;stroke:#ff0000;stroke-width:0.352778;stroke-linecap:round;stroke-linejoin:round;stroke-miterlimit:4;stroke-dasharray:none" />
  <path
     d="M 2.9202524,336.17639 H 0.22025237 c -0.1,0 0,0.1 0,0 v -2.6 c 0,-0.1 -0.1,0 0,0 H 5.6202524 c 0.1,0 0,-0.1 0,0 v 2.6 c 0,0.1 0.1,0 0,0 z"
     stroke="rgb(0,0,255)"
     stroke-width="0.2"
     id="path44"
     style="fill:none;stroke:#ff0000;stroke-width:0.352778;stroke-linecap:round;stroke-linejoin:round;stroke-miterlimit:4;stroke-dasharray:none" />
  <path
     d="M 2.9202524,336.17639 H 0.22025237 c -0.1,0 0,0.1 0,0 v -2.6 c 0,-0.1 -0.1,0 0,0 H 5.6202524 c 0.1,0 0,-0.1 0,0 v 2.6 c 0,0.1 0.1,0 0,0 z"
     stroke="rgb(0,0,255)"
     stroke-width="0.2"
     id="path46"
     style="fill:none;stroke:#ff0000;stroke-width:0.352778;stroke-linecap:round;stroke-linejoin:round;stroke-miterlimit:4;stroke-dasharray:none" />
  <path
     d="M 2.9202524,336.17639 H 0.22025237 c -0.1,0 0,0.1 0,0 v -2.6 c 0,-0.1 -0.1,0 0,0 H 5.6202524 c 0.1,0 0,-0.1 0,0 v 2.6 c 0,0.1 0.1,0 0,0 z"
     stroke="rgb(0,0,255)"
     stroke-width="0.2"
     id="path48"
     style="fill:none;stroke:#ff0000;stroke-width:0.352778;stroke-linecap:round;stroke-linejoin:round;stroke-miterlimit:4;stroke-dasharray:none" />
  <path
     d="M 2.9202524,336.17639 H 0.22025237 c -0.1,0 0,0.1 0,0 v -2.6 c 0,-0.1 -0.1,0 0,0 H 5.6202524 c 0.1,0 0,-0.1 0,0 v 2.6 c 0,0.1 0.1,0 0,0 z"
     stroke="rgb(0,0,255)"
     stroke-width="0.2"
     id="path50"
     style="fill:none;stroke:#ff0000;stroke-width:0.352778;stroke-linecap:round;stroke-linejoin:round;stroke-miterlimit:4;stroke-dasharray:none" />
  <path
     d="M 2.9202524,336.17639 H 0.22025237 c -0.1,0 0,0.1 0,0 v -2.6 c 0,-0.1 -0.1,0 0,0 H 5.6202524 c 0.1,0 0,-0.1 0,0 v 2.6 c 0,0.1 0.1,0 0,0 z"
     stroke="rgb(0,0,255)"
     stroke-width="0.2"
     id="path52"
     style="fill:none;stroke:#ff0000;stroke-width:0.352778;stroke-linecap:round;stroke-linejoin:round;stroke-miterlimit:4;stroke-dasharray:none" />
  <path
     d="M 2.9202524,336.17639 H 0.22025237 c -0.1,0 0,0.1 0,0 v -2.6 c 0,-0.1 -0.1,0 0,0 H 5.6202524 c 0.1,0 0,-0.1 0,0 v 2.6 c 0,0.1 0.1,0 0,0 z"
     stroke="rgb(0,0,255)"
     stroke-width="0.2"
     id="path54"
     style="fill:none;stroke:#ff0000;stroke-width:0.352778;stroke-linecap:round;stroke-linejoin:round;stroke-miterlimit:4;stroke-dasharray:none" />
  <path
     d="M 2.9202524,336.17639 H 0.22025237 c -0.1,0 0,0.1 0,0 v -2.6 c 0,-0.1 -0.1,0 0,0 H 5.6202524 c 0.1,0 0,-0.1 0,0 v 2.6 c 0,0.1 0.1,0 0,0 z"
     stroke="rgb(0,0,255)"
     stroke-width="0.2"
     id="path56"
     style="fill:none;stroke:#ff0000;stroke-width:0.352778;stroke-linecap:round;stroke-linejoin:round;stroke-miterlimit:4;stroke-dasharray:none" />
  <path
     d="M 2.9202524,336.17639 H 0.22025237 c -0.1,0 0,0.1 0,0 v -2.6 c 0,-0.1 -0.1,0 0,0 H 5.6202524 c 0.1,0 0,-0.1 0,0 v 2.6 c 0,0.1 0.1,0 0,0 z"
     stroke="rgb(0,0,255)"
     stroke-width="0.2"
     id="path58"
     style="fill:none;stroke:#ff0000;stroke-width:0.352778;stroke-linecap:round;stroke-linejoin:round;stroke-miterlimit:4;stroke-dasharray:none" />
  <path
     d="M 2.9202524,336.17639 H 0.22025237 c -0.1,0 0,0.1 0,0 v -2.6 c 0,-0.1 -0.1,0 0,0 H 5.6202524 c 0.1,0 0,-0.1 0,0 v 2.6 c 0,0.1 0.1,0 0,0 z"
     stroke="rgb(0,0,255)"
     stroke-width="0.2"
     id="path60"
     style="fill:none;stroke:#ff0000;stroke-width:0.352778;stroke-linecap:round;stroke-linejoin:round;stroke-miterlimit:4;stroke-dasharray:none" />
  <path
     d="M 2.9202524,336.17639 H 0.22025237 c -0.1,0 0,0.1 0,0 v -2.6 c 0,-0.1 -0.1,0 0,0 H 5.6202524 c 0.1,0 0,-0.1 0,0 v 2.6 c 0,0.1 0.1,0 0,0 z"
     stroke="rgb(0,0,255)"
     stroke-width="0.2"
     id="path62"
     style="fill:none;stroke:#ff0000;stroke-width:0.352778;stroke-linecap:round;stroke-linejoin:round;stroke-miterlimit:4;stroke-dasharray:none" />
  <path
     d="M 2.9202524,336.17639 H 0.22025237 c -0.1,0 0,0.1 0,0 v -2.6 c 0,-0.1 -0.1,0 0,0 H 5.6202524 c 0.1,0 0,-0.1 0,0 v 2.6 c 0,0.1 0.1,0 0,0 z"
     stroke="rgb(0,0,255)"
     stroke-width="0.2"
     id="path64"
     style="fill:none;stroke:#ff0000;stroke-width:0.352778;stroke-linecap:round;stroke-linejoin:round;stroke-miterlimit:4;stroke-dasharray:none" />
  <text
     alignment-baseline="hanging"
     font-size="4px"
     style="font-style:normal;font-weight:normal;font-family:sans-serif;fill:#ff0000;stroke:#ff0000;stroke-width:0.352778;stroke-linecap:round;stroke-linejoin:round;stroke-miterlimit:4;stroke-dasharray:none"
     text-anchor="middle"
     id="text66"
     x="120.98582"
     y="280.77637" />
  <path
     d="m 3.076389,339.17639 h 234.399991 2.8 c 0.055,0 0.1,-0.045 0.1,-0.1 v -3.2 c 0,-0.055 -0.045,-0.1 -0.1,-0.1 h -2.7 c -0.1,0 0,0.1 0,0 v -5.4 c 0,-0.1 -0.1,0 0,0 h 2.7 c 0.055,0 0.1,-0.045 0.1,-0.1 v -5.6 c 0,-0.055 -0.045,-0.1 -0.1,-0.1 h -2.7 c -0.1,0 0,0.1 0,0 v -5.4 c 0,-0.1 -0.1,0 0,0 h 2.7 c 0.055,0 0.1,-0.045 0.1,-0.1 v -5.6 c 0,-0.055 -0.045,-0.1 -0.1,-0.1 h -2.7 c -0.1,0 0,0.1 0,0 v -5.4 c 0,-0.1 -0.1,0 0,0 h 2.7 c 0.055,0 0.1,-0.045 0.1,-0.1 v -5.6 c 0,-0.055 -0.045,-0.1 -0.1,-0.1 h -2.7 c -0.1,0 0,0.1 0,0 v -5.4 c 0,-0.1 -0.1,0 0,0 h 2.7 c 0.055,0 0.1,-0.045 0.1,-0.1 v -5.6 c 0,-0.055 -0.045,-0.1 -0.1,-0.1 h -2.7 c -0.1,0 0,0.1 0,0 v -5.4 c 0,-0.1 -0.1,0 0,0 h 2.7 c 0.055,0 0.1,-0.045 0.1,-0.1 v -5.6 c 0,-0.055 -0.045,-0.1 -0.1,-0.1 h -2.7 c -0.1,0 0,0.1 0,0 v -5.4 c 0,-0.1 -0.1,0 0,0 h 2.7 c 0.055,0 0.1,-0.045 0.1,-0.1 v -5.6 c 0,-0.055 -0.045,-0.1 -0.1,-0.1 h -2.7 c -0.1,0 0,0.1 0,0 v -5.4 c 0,-0.1 -0.1,0 0,0 h 2.7 c 0.055,0 0.1,-0.045 0.1,-0.1 v -5.6 c 0,-0.055 -0.045,-0.1 -0.1,-0.1 h -2.7 c -0.1,0 0,0.1 0,0 v -5.4 c 0,-0.1 -0.1,0 0,0 h 2.7 c 0.055,0 0.1,-0.045 0.1,-0.1 v -5.6 c 0,-0.055 -0.045,-0.1 -0.1,-0.1 h -2.7 c -0.1,0 0,0.1 0,0 v -5.4 c 0,-0.1 -0.1,0 0,0 h 2.7 c 0.055,0 0.1,-0.045 0.1,-0.1 v -5.6 c 0,-0.055 -0.045,-0.1 -0.1,-0.1 h -2.7 c -0.1,0 0,0.1 0,0 v -5.4 c 0,-0.1 -0.1,0 0,0 h 2.7 c 0.055,0 0.1,-0.045 0.1,-0.1 v -3.2 c 0,-0.055 -0.045,-0.1 -0.1,-0.1 h -2.8 -234.399991 -2.8 c -0.055,0 -0.1,0.045 -0.1,0.1 v 3.2 c 0,0.055 0.045,0.1 0.1,0.1 h 2.7 c 0.1,0 0,-0.1 0,0 v 5.4 c 0,0.1 0.1,0 0,0 h -2.7 c -0.055,0 -0.1,0.045 -0.1,0.1 v 5.6 c 0,0.055 0.045,0.1 0.1,0.1 h 2.7 c 0.1,0 0,-0.1 0,0 v 5.4 c 0,0.1 0.1,0 0,0 h -2.7 c -0.055,0 -0.1,0.045 -0.1,0.1 v 5.6 c 0,0.055 0.045,0.1 0.1,0.1 h 2.7 c 0.1,0 0,-0.1 0,0 v 5.4 c 0,0.1 0.1,0 0,0 h -2.7 c -0.055,0 -0.1,0.045 -0.1,0.1 v 5.6 c 0,0.055 0.045,0.1 0.1,0.1 h 2.7 c 0.1,0 0,-0.1 0,0 v 5.4 c 0,0.1 0.1,0 0,0 h -2.7 c -0.055,0 -0.1,0.045 -0.1,0.1 v 5.6 c 0,0.055 0.045,0.1 0.1,0.1 h 2.7 c 0.1,0 0,-0.1 0,0 v 5.4 c 0,0.1 0.1,0 0,0 h -2.7 c -0.055,0 -0.1,0.045 -0.1,0.1 v 5.6 c 0,0.055 0.045,0.1 0.1,0.1 h 2.7 c 0.1,0 0,-0.1 0,0 v 5.4 c 0,0.1 0.1,0 0,0 h -2.7 c -0.055,0 -0.1,0.045 -0.1,0.1 v 5.6 c 0,0.055 0.045,0.1 0.1,0.1 h 2.7 c 0.1,0 0,-0.1 0,0 v 5.4 c 0,0.1 0.1,0 0,0 h -2.7 c -0.055,0 -0.1,0.045 -0.1,0.1 v 5.6 c 0,0.055 0.045,0.1 0.1,0.1 h 2.7 c 0.1,0 0,-0.1 0,0 v 5.4 c 0,0.1 0.1,0 0,0 h -2.7 c -0.055,0 -0.1,0.045 -0.1,0.1 v 5.6 c 0,0.055 0.045,0.1 0.1,0.1 h 2.7 c 0.1,0 0,-0.1 0,0 v 5.4 c 0,0.1 0.1,0 0,0 h -2.7 c -0.055,0 -0.1,0.045 -0.1,0.1 v 5.6 c 0,0.055 0.045,0.1 0.1,0.1 h 2.7 c 0.1,0 0,-0.1 0,0 v 5.4 c 0,0.1 0.1,0 0,0 h -2.7 c -0.055,0 -0.1,0.045 -0.1,0.1 v 3.2 c 0,0.055 0.045,0.1 0.1,0.1 h 2.8"
     stroke="rgb(0,0,0)"
     stroke-width="0.2"
     id="path68"
     style="fill:none;stroke:#ff0000;stroke-width:0.352778;stroke-linecap:round;stroke-linejoin:round;stroke-miterlimit:4;stroke-dasharray:none" />
  <g
     id="p-1"
     style="fill:none;stroke:#ff0000;stroke-width:0.352778;stroke-linecap:round;stroke-linejoin:round;stroke-miterlimit:4;stroke-dasharray:none"
     transform="translate(-9.823611,-251.42361)">
    <path
       d="m 128.8,461.7 v 2.7 c 0,0.1 -0.1,0 0,0 h 2.6 c 0.1,0 0,0.1 0,0 V 459 c 0,-0.1 0.1,0 0,0 h -2.6 c -0.1,0 0,-0.1 0,0 z"
       stroke="rgb(0,0,255)"
       stroke-width="0.20"
       id="path73"
       style="stroke:#ff0000;stroke-width:0.352778;stroke-miterlimit:4;stroke-dasharray:none" />
    <path
       d="m 128.8,450.5 v 2.7 c 0,0.1 -0.1,0 0,0 h 2.6 c 0.1,0 0,0.1 0,0 v -5.4 c 0,-0.1 0.1,0 0,0 h -2.6 c -0.1,0 0,-0.1 0,0 z"
       stroke="rgb(0,0,255)"
       stroke-width="0.20"
       id="path75"
       style="stroke:#ff0000;stroke-width:0.352778;stroke-miterlimit:4;stroke-dasharray:none" />
    <path
       d="m 128.8,439.3 v 2.7 c 0,0.1 -0.1,0 0,0 h 2.6 c 0.1,0 0,0.1 0,0 v -5.4 c 0,-0.1 0.1,0 0,0 h -2.6 c -0.1,0 0,-0.1 0,0 z"
       stroke="rgb(0,0,255)"
       stroke-width="0.20"
       id="path77"
       style="stroke:#ff0000;stroke-width:0.352778;stroke-miterlimit:4;stroke-dasharray:none" />
    <path
       d="m 128.8,428.1 v 2.7 c 0,0.1 -0.1,0 0,0 h 2.6 c 0.1,0 0,0.1 0,0 v -5.4 c 0,-0.1 0.1,0 0,0 h -2.6 c -0.1,0 0,-0.1 0,0 z"
       stroke="rgb(0,0,255)"
       stroke-width="0.20"
       id="path79"
       style="stroke:#ff0000;stroke-width:0.352778;stroke-miterlimit:4;stroke-dasharray:none" />
    <path
       d="m 128.8,416.9 v 2.7 c 0,0.1 -0.1,0 0,0 h 2.6 c 0.1,0 0,0.1 0,0 v -5.4 c 0,-0.1 0.1,0 0,0 h -2.6 c -0.1,0 0,-0.1 0,0 z"
       stroke="rgb(0,0,255)"
       stroke-width="0.20"
       id="path81"
       style="stroke:#ff0000;stroke-width:0.352778;stroke-miterlimit:4;stroke-dasharray:none" />
    <path
       d="m 128.8,405.7 v 2.7 c 0,0.1 -0.1,0 0,0 h 2.6 c 0.1,0 0,0.1 0,0 V 403 c 0,-0.1 0.1,0 0,0 h -2.6 c -0.1,0 0,-0.1 0,0 z"
       stroke="rgb(0,0,255)"
       stroke-width="0.20"
       id="path83"
       style="stroke:#ff0000;stroke-width:0.352778;stroke-miterlimit:4;stroke-dasharray:none" />
    <path
       d="m 128.8,394.5 v 2.7 c 0,0.1 -0.1,0 0,0 h 2.6 c 0.1,0 0,0.1 0,0 v -5.4 c 0,-0.1 0.1,0 0,0 h -2.6 c -0.1,0 0,-0.1 0,0 z"
       stroke="rgb(0,0,255)"
       stroke-width="0.20"
       id="path85"
       style="stroke:#ff0000;stroke-width:0.352778;stroke-miterlimit:4;stroke-dasharray:none" />
    <path
       d="m 128.8,383.3 v 2.7 c 0,0.1 -0.1,0 0,0 h 2.6 c 0.1,0 0,0.1 0,0 v -5.4 c 0,-0.1 0.1,0 0,0 h -2.6 c -0.1,0 0,-0.1 0,0 z"
       stroke="rgb(0,0,255)"
       stroke-width="0.20"
       id="path87"
       style="stroke:#ff0000;stroke-width:0.352778;stroke-miterlimit:4;stroke-dasharray:none" />
    <path
       d="m 128.8,372.1 v 2.7 c 0,0.1 -0.1,0 0,0 h 2.6 c 0.1,0 0,0.1 0,0 v -5.4 c 0,-0.1 0.1,0 0,0 h -2.6 c -0.1,0 0,-0.1 0,0 z"
       stroke="rgb(0,0,255)"
       stroke-width="0.20"
       id="path89"
       style="stroke:#ff0000;stroke-width:0.352778;stroke-miterlimit:4;stroke-dasharray:none" />
    <path
       d="m 18.1,473.2 h -2.7 c -0.1,0 0,0.1 0,0 v -2.6 c 0,-0.1 -0.1,0 0,0 h 5.4 c 0.1,0 0,-0.1 0,0 v 2.6 c 0,0.1 0.1,0 0,0 z"
       stroke="rgb(0,0,255)"
       stroke-width="0.20"
       id="path91"
       style="stroke:#ff0000;stroke-width:0.352778;stroke-miterlimit:4;stroke-dasharray:none" />
    <path
       d="m 29.3,473.2 h -2.7 c -0.1,0 0,0.1 0,0 v -2.6 c 0,-0.1 -0.1,0 0,0 H 32 c 0.1,0 0,-0.1 0,0 v 2.6 c 0,0.1 0.1,0 0,0 z"
       stroke="rgb(0,0,255)"
       stroke-width="0.20"
       id="path93"
       style="stroke:#ff0000;stroke-width:0.352778;stroke-miterlimit:4;stroke-dasharray:none" />
    <path
       d="m 40.5,473.2 h -2.7 c -0.1,0 0,0.1 0,0 v -2.6 c 0,-0.1 -0.1,0 0,0 h 5.4 c 0.1,0 0,-0.1 0,0 v 2.6 c 0,0.1 0.1,0 0,0 z"
       stroke="rgb(0,0,255)"
       stroke-width="0.20"
       id="path95"
       style="stroke:#ff0000;stroke-width:0.352778;stroke-miterlimit:4;stroke-dasharray:none" />
    <path
       d="M 51.7,473.2 H 49 c -0.1,0 0,0.1 0,0 v -2.6 c 0,-0.1 -0.1,0 0,0 h 5.4 c 0.1,0 0,-0.1 0,0 v 2.6 c 0,0.1 0.1,0 0,0 z"
       stroke="rgb(0,0,255)"
       stroke-width="0.20"
       id="path97"
       style="stroke:#ff0000;stroke-width:0.352778;stroke-miterlimit:4;stroke-dasharray:none" />
    <path
       d="m 62.9,473.2 h -2.7 c -0.1,0 0,0.1 0,0 v -2.6 c 0,-0.1 -0.1,0 0,0 h 5.4 c 0.1,0 0,-0.1 0,0 v 2.6 c 0,0.1 0.1,0 0,0 z"
       stroke="rgb(0,0,255)"
       stroke-width="0.20"
       id="path99"
       style="stroke:#ff0000;stroke-width:0.352778;stroke-miterlimit:4;stroke-dasharray:none" />
    <path
       d="m 74.1,473.2 h -2.7 c -0.1,0 0,0.1 0,0 v -2.6 c 0,-0.1 -0.1,0 0,0 h 5.4 c 0.1,0 0,-0.1 0,0 v 2.6 c 0,0.1 0.1,0 0,0 z"
       stroke="rgb(0,0,255)"
       stroke-width="0.20"
       id="path101"
       style="stroke:#ff0000;stroke-width:0.352778;stroke-miterlimit:4;stroke-dasharray:none" />
    <path
       d="m 85.3,473.2 h -2.7 c -0.1,0 0,0.1 0,0 v -2.6 c 0,-0.1 -0.1,0 0,0 H 88 c 0.1,0 0,-0.1 0,0 v 2.6 c 0,0.1 0.1,0 0,0 z"
       stroke="rgb(0,0,255)"
       stroke-width="0.20"
       id="path103"
       style="stroke:#ff0000;stroke-width:0.352778;stroke-miterlimit:4;stroke-dasharray:none" />
    <path
       d="m 96.5,473.2 h -2.7 c -0.1,0 0,0.1 0,0 v -2.6 c 0,-0.1 -0.1,0 0,0 h 5.4 c 0.1,0 0,-0.1 0,0 v 2.6 c 0,0.1 0.1,0 0,0 z"
       stroke="rgb(0,0,255)"
       stroke-width="0.20"
       id="path105"
       style="stroke:#ff0000;stroke-width:0.352778;stroke-miterlimit:4;stroke-dasharray:none" />
    <path
       d="M 107.7,473.2 H 105 c -0.1,0 0,0.1 0,0 v -2.6 c 0,-0.1 -0.1,0 0,0 h 5.4 c 0.1,0 0,-0.1 0,0 v 2.6 c 0,0.1 0.1,0 0,0 z"
       stroke="rgb(0,0,255)"
       stroke-width="0.20"
       id="path107"
       style="stroke:#ff0000;stroke-width:0.352778;stroke-miterlimit:4;stroke-dasharray:none" />
    <path
       d="m 118.9,473.2 h -2.7 c -0.1,0 0,0.1 0,0 v -2.6 c 0,-0.1 -0.1,0 0,0 h 5.4 c 0.1,0 0,-0.1 0,0 v 2.6 c 0,0.1 0.1,0 0,0 z"
       stroke="rgb(0,0,255)"
       stroke-width="0.20"
       id="path109"
       style="stroke:#ff0000;stroke-width:0.352778;stroke-miterlimit:4;stroke-dasharray:none" />
    <path
       d="m 130.1,473.2 h -2.7 c -0.1,0 0,0.1 0,0 v -2.6 c 0,-0.1 -0.1,0 0,0 h 5.4 c 0.1,0 0,-0.1 0,0 v 2.6 c 0,0.1 0.1,0 0,0 z"
       stroke="rgb(0,0,255)"
       stroke-width="0.20"
       id="path111"
       style="stroke:#ff0000;stroke-width:0.352778;stroke-miterlimit:4;stroke-dasharray:none" />
    <path
       d="m 141.3,473.2 h -2.7 c -0.1,0 0,0.1 0,0 v -2.6 c 0,-0.1 -0.1,0 0,0 h 5.4 c 0.1,0 0,-0.1 0,0 v 2.6 c 0,0.1 0.1,0 0,0 z"
       stroke="rgb(0,0,255)"
       stroke-width="0.20"
       id="path113"
       style="stroke:#ff0000;stroke-width:0.352778;stroke-miterlimit:4;stroke-dasharray:none" />
    <path
       d="m 152.5,473.2 h -2.7 c -0.1,0 0,0.1 0,0 v -2.6 c 0,-0.1 -0.1,0 0,0 h 5.4 c 0.1,0 0,-0.1 0,0 v 2.6 c 0,0.1 0.1,0 0,0 z"
       stroke="rgb(0,0,255)"
       stroke-width="0.20"
       id="path115"
       style="stroke:#ff0000;stroke-width:0.352778;stroke-miterlimit:4;stroke-dasharray:none" />
    <path
       d="M 163.7,473.2 H 161 c -0.1,0 0,0.1 0,0 v -2.6 c 0,-0.1 -0.1,0 0,0 h 5.4 c 0.1,0 0,-0.1 0,0 v 2.6 c 0,0.1 0.1,0 0,0 z"
       stroke="rgb(0,0,255)"
       stroke-width="0.20"
       id="path117"
       style="stroke:#ff0000;stroke-width:0.352778;stroke-miterlimit:4;stroke-dasharray:none" />
    <path
       d="m 174.9,473.2 h -2.7 c -0.1,0 0,0.1 0,0 v -2.6 c 0,-0.1 -0.1,0 0,0 h 5.4 c 0.1,0 0,-0.1 0,0 v 2.6 c 0,0.1 0.1,0 0,0 z"
       stroke="rgb(0,0,255)"
       stroke-width="0.20"
       id="path119"
       style="stroke:#ff0000;stroke-width:0.352778;stroke-miterlimit:4;stroke-dasharray:none" />
    <path
       d="m 186.1,473.2 h -2.7 c -0.1,0 0,0.1 0,0 v -2.6 c 0,-0.1 -0.1,0 0,0 h 5.4 c 0.1,0 0,-0.1 0,0 v 2.6 c 0,0.1 0.1,0 0,0 z"
       stroke="rgb(0,0,255)"
       stroke-width="0.20"
       id="path121"
       style="stroke:#ff0000;stroke-width:0.352778;stroke-miterlimit:4;stroke-dasharray:none" />
    <path
       d="m 197.3,473.2 h -2.7 c -0.1,0 0,0.1 0,0 v -2.6 c 0,-0.1 -0.1,0 0,0 h 5.4 c 0.1,0 0,-0.1 0,0 v 2.6 c 0,0.1 0.1,0 0,0 z"
       stroke="rgb(0,0,255)"
       stroke-width="0.20"
       id="path123"
       style="stroke:#ff0000;stroke-width:0.352778;stroke-miterlimit:4;stroke-dasharray:none" />
    <path
       d="m 208.5,473.2 h -2.7 c -0.1,0 0,0.1 0,0 v -2.6 c 0,-0.1 -0.1,0 0,0 h 5.4 c 0.1,0 0,-0.1 0,0 v 2.6 c 0,0.1 0.1,0 0,0 z"
       stroke="rgb(0,0,255)"
       stroke-width="0.20"
       id="path125"
       style="stroke:#ff0000;stroke-width:0.352778;stroke-miterlimit:4;stroke-dasharray:none" />
    <path
       d="M 219.7,473.2 H 217 c -0.1,0 0,0.1 0,0 v -2.6 c 0,-0.1 -0.1,0 0,0 h 5.4 c 0.1,0 0,-0.1 0,0 v 2.6 c 0,0.1 0.1,0 0,0 z"
       stroke="rgb(0,0,255)"
       stroke-width="0.20"
       id="path127"
       style="stroke:#ff0000;stroke-width:0.352778;stroke-miterlimit:4;stroke-dasharray:none" />
    <path
       d="m 230.9,473.2 h -2.7 c -0.1,0 0,0.1 0,0 v -2.6 c 0,-0.1 -0.1,0 0,0 h 5.4 c 0.1,0 0,-0.1 0,0 v 2.6 c 0,0.1 0.1,0 0,0 z"
       stroke="rgb(0,0,255)"
       stroke-width="0.20"
       id="path129"
       style="stroke:#ff0000;stroke-width:0.352778;stroke-miterlimit:4;stroke-dasharray:none" />
    <path
       d="m 242.1,473.2 h -2.7 c -0.1,0 0,0.1 0,0 v -2.6 c 0,-0.1 -0.1,0 0,0 h 5.4 c 0.1,0 0,-0.1 0,0 v 2.6 c 0,0.1 0.1,0 0,0 z"
       stroke="rgb(0,0,255)"
       stroke-width="0.20"
       id="path131"
       style="stroke:#ff0000;stroke-width:0.352778;stroke-miterlimit:4;stroke-dasharray:none" />
    <text
       alignment-baseline="hanging"
       font-size="4px"
       style="font-style:normal;font-weight:normal;font-family:sans-serif;fill:#ff0000;stroke:#ff0000;stroke-width:0.352778;stroke-miterlimit:4;stroke-dasharray:none"
       text-anchor="middle"
       transform="translate(130.1,417.8)"
       id="text133" />
    <path
       d="m 12.9,476.2 h 234.4 2.8 c 0.055,0 0.1,-0.045 0.1,-0.1 v -3.2 c 0,-0.055 -0.045,-0.1 -0.1,-0.1 h -2.7 c -0.1,0 0,0.1 0,0 v -5.4 c 0,-0.1 -0.1,0 0,0 h 2.7 c 0.055,0 0.1,-0.045 0.1,-0.1 v -5.6 c 0,-0.055 -0.045,-0.1 -0.1,-0.1 h -2.7 c -0.1,0 0,0.1 0,0 v -5.4 c 0,-0.1 -0.1,0 0,0 h 2.7 c 0.055,0 0.1,-0.045 0.1,-0.1 v -5.6 c 0,-0.055 -0.045,-0.1 -0.1,-0.1 h -2.7 c -0.1,0 0,0.1 0,0 V 445 c 0,-0.1 -0.1,0 0,0 h 2.7 c 0.055,0 0.1,-0.045 0.1,-0.1 v -5.6 c 0,-0.055 -0.045,-0.1 -0.1,-0.1 h -2.7 c -0.1,0 0,0.1 0,0 v -5.4 c 0,-0.1 -0.1,0 0,0 h 2.7 c 0.055,0 0.1,-0.045 0.1,-0.1 v -5.6 c 0,-0.055 -0.045,-0.1 -0.1,-0.1 h -2.7 c -0.1,0 0,0.1 0,0 v -5.4 c 0,-0.1 -0.1,0 0,0 h 2.7 c 0.055,0 0.1,-0.045 0.1,-0.1 v -5.6 c 0,-0.055 -0.045,-0.1 -0.1,-0.1 h -2.7 c -0.1,0 0,0.1 0,0 v -5.4 c 0,-0.1 -0.1,0 0,0 h 2.7 c 0.055,0 0.1,-0.045 0.1,-0.1 v -5.6 c 0,-0.055 -0.045,-0.1 -0.1,-0.1 h -2.7 c -0.1,0 0,0.1 0,0 v -5.4 c 0,-0.1 -0.1,0 0,0 h 2.7 c 0.055,0 0.1,-0.045 0.1,-0.1 v -5.6 c 0,-0.055 -0.045,-0.1 -0.1,-0.1 h -2.7 c -0.1,0 0,0.1 0,0 V 389 c 0,-0.1 -0.1,0 0,0 h 2.7 c 0.055,0 0.1,-0.045 0.1,-0.1 v -5.6 c 0,-0.055 -0.045,-0.1 -0.1,-0.1 h -2.7 c -0.1,0 0,0.1 0,0 v -5.4 c 0,-0.1 -0.1,0 0,0 h 2.7 c 0.055,0 0.1,-0.045 0.1,-0.1 v -5.6 c 0,-0.055 -0.045,-0.1 -0.1,-0.1 h -2.7 c -0.1,0 0,0.1 0,0 v -5.4 c 0,-0.1 -0.1,0 0,0 h 2.7 c 0.055,0 0.1,-0.045 0.1,-0.1 v -3.2 c 0,-0.055 -0.045,-0.1 -0.1,-0.1 H 247.3 12.9 10.1 c -0.055,0 -0.1,0.045 -0.1,0.1 v 3.2 c 0,0.055 0.045,0.1 0.1,0.1 h 2.7 c 0.1,0 0,-0.1 0,0 v 5.4 c 0,0.1 0.1,0 0,0 h -2.7 c -0.055,0 -0.1,0.045 -0.1,0.1 v 5.6 c 0,0.055 0.045,0.1 0.1,0.1 h 2.7 c 0.1,0 0,-0.1 0,0 v 5.4 c 0,0.1 0.1,0 0,0 h -2.7 c -0.055,0 -0.1,0.045 -0.1,0.1 v 5.6 c 0,0.055 0.045,0.1 0.1,0.1 h 2.7 c 0.1,0 0,-0.1 0,0 v 5.4 c 0,0.1 0.1,0 0,0 h -2.7 c -0.055,0 -0.1,0.045 -0.1,0.1 v 5.6 c 0,0.055 0.045,0.1 0.1,0.1 h 2.7 c 0.1,0 0,-0.1 0,0 v 5.4 c 0,0.1 0.1,0 0,0 h -2.7 c -0.055,0 -0.1,0.045 -0.1,0.1 v 5.6 c 0,0.055 0.045,0.1 0.1,0.1 h 2.7 c 0.1,0 0,-0.1 0,0 v 5.4 c 0,0.1 0.1,0 0,0 h -2.7 c -0.055,0 -0.1,0.045 -0.1,0.1 v 5.6 c 0,0.055 0.045,0.1 0.1,0.1 h 2.7 c 0.1,0 0,-0.1 0,0 v 5.4 c 0,0.1 0.1,0 0,0 h -2.7 c -0.055,0 -0.1,0.045 -0.1,0.1 v 5.6 c 0,0.055 0.045,0.1 0.1,0.1 h 2.7 c 0.1,0 0,-0.1 0,0 v 5.4 c 0,0.1 0.1,0 0,0 h -2.7 c -0.055,0 -0.1,0.045 -0.1,0.1 v 5.6 c 0,0.055 0.045,0.1 0.1,0.1 h 2.7 c 0.1,0 0,-0.1 0,0 v 5.4 c 0,0.1 0.1,0 0,0 h -2.7 c -0.055,0 -0.1,0.045 -0.1,0.1 v 5.6 c 0,0.055 0.045,0.1 0.1,0.1 h 2.7 c 0.1,0 0,-0.1 0,0 v 5.4 c 0,0.1 0.1,0 0,0 h -2.7 c -0.055,0 -0.1,0.045 -0.1,0.1 v 5.6 c 0,0.055 0.045,0.1 0.1,0.1 h 2.7 c 0.1,0 0,-0.1 0,0 v 5.4 c 0,0.1 0.1,0 0,0 h -2.7 c -0.055,0 -0.1,0.045 -0.1,0.1 v 3.2 c 0,0.055 0.045,0.1 0.1,0.1 h 2.8"
       stroke="rgb(0,0,0)"
       stroke-width="0.20"
       id="path135"
       style="stroke:#ff0000;stroke-width:0.352778;stroke-miterlimit:4;stroke-dasharray:none" />
  </g>
  <g
     id="p-3"
     style="fill:none;stroke:#ff0000;stroke-width:0.352778;stroke-linecap:round;stroke-linejoin:round;stroke-miterlimit:4;stroke-dasharray:none"
     transform="translate(-9.823611,-9.6600476)">
    <text
       alignment-baseline="hanging"
       font-size="4px"
       style="font-style:normal;font-weight:normal;font-family:sans-serif;fill:#ff0000;stroke:#ff0000;stroke-width:0.352778;stroke-miterlimit:4;stroke-dasharray:none"
       text-anchor="middle"
       transform="translate(130.1,63.2)"
       id="text223" />
    <path
       d="m 12.9,117.4 h 4.6 c 0.1,0 0,-0.1 0,0 v 2.7 c 0,0.055 0.045,0.1 0.1,0.1 h 5.6 c 0.055,0 0.1,-0.045 0.1,-0.1 v -2.7 c 0,-0.1 -0.1,0 0,0 h 5.4 c 0.1,0 0,-0.1 0,0 v 2.7 c 0,0.055 0.045,0.1 0.1,0.1 h 5.6 c 0.055,0 0.1,-0.045 0.1,-0.1 v -2.7 c 0,-0.1 -0.1,0 0,0 h 5.4 c 0.1,0 0,-0.1 0,0 v 2.7 c 0,0.055 0.045,0.1 0.1,0.1 h 5.6 c 0.055,0 0.1,-0.045 0.1,-0.1 v -2.7 c 0,-0.1 -0.1,0 0,0 h 5.4 c 0.1,0 0,-0.1 0,0 v 2.7 c 0,0.055 0.045,0.1 0.1,0.1 h 5.6 c 0.055,0 0.1,-0.045 0.1,-0.1 v -2.7 c 0,-0.1 -0.1,0 0,0 h 5.4 c 0.1,0 0,-0.1 0,0 v 2.7 c 0,0.055 0.045,0.1 0.1,0.1 H 68 c 0.055,0 0.1,-0.045 0.1,-0.1 v -2.7 c 0,-0.1 -0.1,0 0,0 h 5.4 c 0.1,0 0,-0.1 0,0 v 2.7 c 0,0.055 0.045,0.1 0.1,0.1 h 5.6 c 0.055,0 0.1,-0.045 0.1,-0.1 v -2.7 c 0,-0.1 -0.1,0 0,0 h 5.4 c 0.1,0 0,-0.1 0,0 v 2.7 c 0,0.055 0.045,0.1 0.1,0.1 h 5.6 c 0.055,0 0.1,-0.045 0.1,-0.1 v -2.7 c 0,-0.1 -0.1,0 0,0 h 5.4 c 0.1,0 0,-0.1 0,0 v 2.7 c 0,0.055 0.045,0.1 0.1,0.1 h 5.6 c 0.055,0 0.1,-0.045 0.1,-0.1 v -2.7 c 0,-0.1 -0.1,0 0,0 h 5.4 c 0.1,0 0,-0.1 0,0 v 2.7 c 0,0.055 0.045,0.1 0.1,0.1 h 5.6 c 0.055,0 0.1,-0.045 0.1,-0.1 v -2.7 c 0,-0.1 -0.1,0 0,0 h 5.4 c 0.1,0 0,-0.1 0,0 v 2.7 c 0,0.055 0.045,0.1 0.1,0.1 h 5.6 c 0.055,0 0.1,-0.045 0.1,-0.1 v -2.7 c 0,-0.1 -0.1,0 0,0 h 4.6 1.4 1.4 4.6 c 0.1,0 0,-0.1 0,0 v 2.7 c 0,0.055 0.045,0.1 0.1,0.1 h 5.6 c 0.055,0 0.1,-0.045 0.1,-0.1 v -2.7 c 0,-0.1 -0.1,0 0,0 h 5.4 c 0.1,0 0,-0.1 0,0 v 2.7 c 0,0.055 0.045,0.1 0.1,0.1 h 5.6 c 0.055,0 0.1,-0.045 0.1,-0.1 v -2.7 c 0,-0.1 -0.1,0 0,0 h 5.4 c 0.1,0 0,-0.1 0,0 v 2.7 c 0,0.055 0.045,0.1 0.1,0.1 h 5.6 c 0.055,0 0.1,-0.045 0.1,-0.1 v -2.7 c 0,-0.1 -0.1,0 0,0 h 5.4 c 0.1,0 0,-0.1 0,0 v 2.7 c 0,0.055 0.045,0.1 0.1,0.1 h 5.6 c 0.055,0 0.1,-0.045 0.1,-0.1 v -2.7 c 0,-0.1 -0.1,0 0,0 h 5.4 c 0.1,0 0,-0.1 0,0 v 2.7 c 0,0.055 0.045,0.1 0.1,0.1 h 5.6 c 0.055,0 0.1,-0.045 0.1,-0.1 v -2.7 c 0,-0.1 -0.1,0 0,0 h 5.4 c 0.1,0 0,-0.1 0,0 v 2.7 c 0,0.055 0.045,0.1 0.1,0.1 h 5.6 c 0.055,0 0.1,-0.045 0.1,-0.1 v -2.7 c 0,-0.1 -0.1,0 0,0 h 5.4 c 0.1,0 0,-0.1 0,0 v 2.7 c 0,0.055 0.045,0.1 0.1,0.1 h 5.6 c 0.055,0 0.1,-0.045 0.1,-0.1 v -2.7 c 0,-0.1 -0.1,0 0,0 h 5.4 c 0.1,0 0,-0.1 0,0 v 2.7 c 0,0.055 0.045,0.1 0.1,0.1 h 5.6 c 0.055,0 0.1,-0.045 0.1,-0.1 v -2.7 c 0,-0.1 -0.1,0 0,0 h 5.4 c 0.1,0 0,-0.1 0,0 v 2.7 c 0,0.055 0.045,0.1 0.1,0.1 h 5.6 c 0.055,0 0.1,-0.045 0.1,-0.1 v -2.7 c 0,-0.1 -0.1,0 0,0 h 5.4 c 0.1,0 0,-0.1 0,0 v 2.7 c 0,0.055 0.045,0.1 0.1,0.1 h 5.6 c 0.055,0 0.1,-0.045 0.1,-0.1 v -2.7 c 0,-0.1 -0.1,0 0,0 h 4.6 c 0.055,0 0.1,-0.045 0.1,-0.1 v -5.9 c 0,-0.1 -0.1,0 0,0 h 2.7 c 0.055,0 0.1,-0.045 0.1,-0.1 v -5.6 c 0,-0.055 -0.045,-0.1 -0.1,-0.1 h -2.7 c -0.1,0 0,0.1 0,0 v -5.4 c 0,-0.1 -0.1,0 0,0 h 2.7 c 0.055,0 0.1,-0.045 0.1,-0.1 v -5.6 c 0,-0.055 -0.045,-0.1 -0.1,-0.1 h -2.7 c -0.1,0 0,0.1 0,0 V 89 c 0,-0.1 -0.1,0 0,0 h 2.7 c 0.055,0 0.1,-0.045 0.1,-0.1 v -5.6 c 0,-0.055 -0.045,-0.1 -0.1,-0.1 h -2.7 c -0.1,0 0,0.1 0,0 v -5.4 c 0,-0.1 -0.1,0 0,0 h 2.7 c 0.055,0 0.1,-0.045 0.1,-0.1 v -5.6 c 0,-0.055 -0.045,-0.1 -0.1,-0.1 h -2.7 c -0.1,0 0,0.1 0,0 v -5.4 c 0,-0.1 -0.1,0 0,0 h 2.7 c 0.055,0 0.1,-0.045 0.1,-0.1 v -5.6 c 0,-0.055 -0.045,-0.1 -0.1,-0.1 h -2.7 c -0.1,0 0,0.1 0,0 v -5.4 c 0,-0.1 -0.1,0 0,0 h 2.7 c 0.055,0 0.1,-0.045 0.1,-0.1 v -5.6 c 0,-0.055 -0.045,-0.1 -0.1,-0.1 h -2.7 c -0.1,0 0,0.1 0,0 v -5.4 c 0,-0.1 -0.1,0 0,0 h 2.7 c 0.055,0 0.1,-0.045 0.1,-0.1 v -5.6 c 0,-0.055 -0.045,-0.1 -0.1,-0.1 h -2.7 c -0.1,0 0,0.1 0,0 V 33 c 0,-0.1 -0.1,0 0,0 h 2.7 c 0.055,0 0.1,-0.045 0.1,-0.1 v -5.6 c 0,-0.055 -0.045,-0.1 -0.1,-0.1 h -2.7 c -0.1,0 0,0.1 0,0 v -5.4 c 0,-0.1 -0.1,0 0,0 h 2.7 c 0.055,0 0.1,-0.045 0.1,-0.1 v -5.6 c 0,-0.055 -0.045,-0.1 -0.1,-0.1 h -2.7 c -0.1,0 0,0.1 0,0 v -5.9 c 0,-0.055 -0.045,-0.1 -0.1,-0.1 H 131.5 c -0.055,0 -0.1,0.045 -0.1,0.1 v 53.5 c 0,0.1 0.1,0 0,0 h -2.6 c -0.1,0 0,0.1 0,0 V 10.1 c 0,-0.055 -0.045,-0.1 -0.1,-0.1 H 12.9 c -0.055,0 -0.1,0.045 -0.1,0.1 V 16 c 0,0.1 0.1,0 0,0 H 10.1 C 10.045,16 10,16.045 10,16.1 v 5.6 c 0,0.055 0.045,0.1 0.1,0.1 h 2.7 c 0.1,0 0,-0.1 0,0 v 5.4 c 0,0.1 0.1,0 0,0 h -2.7 c -0.055,0 -0.1,0.045 -0.1,0.1 v 5.6 c 0,0.055 0.045,0.1 0.1,0.1 h 2.7 c 0.1,0 0,-0.1 0,0 v 5.4 c 0,0.1 0.1,0 0,0 h -2.7 c -0.055,0 -0.1,0.045 -0.1,0.1 v 5.6 c 0,0.055 0.045,0.1 0.1,0.1 h 2.7 c 0.1,0 0,-0.1 0,0 v 5.4 c 0,0.1 0.1,0 0,0 h -2.7 c -0.055,0 -0.1,0.045 -0.1,0.1 v 5.6 c 0,0.055 0.045,0.1 0.1,0.1 h 2.7 c 0.1,0 0,-0.1 0,0 v 5.4 c 0,0.1 0.1,0 0,0 h -2.7 c -0.055,0 -0.1,0.045 -0.1,0.1 v 5.6 c 0,0.055 0.045,0.1 0.1,0.1 h 2.7 c 0.1,0 0,-0.1 0,0 V 72 c 0,0.1 0.1,0 0,0 H 10.1 C 10.045,72 10,72.045 10,72.1 v 5.6 c 0,0.055 0.045,0.1 0.1,0.1 h 2.7 c 0.1,0 0,-0.1 0,0 v 5.4 c 0,0.1 0.1,0 0,0 h -2.7 c -0.055,0 -0.1,0.045 -0.1,0.1 v 5.6 c 0,0.055 0.045,0.1 0.1,0.1 h 2.7 c 0.1,0 0,-0.1 0,0 v 5.4 c 0,0.1 0.1,0 0,0 h -2.7 c -0.055,0 -0.1,0.045 -0.1,0.1 v 5.6 c 0,0.055 0.045,0.1 0.1,0.1 h 2.7 c 0.1,0 0,-0.1 0,0 v 5.4 c 0,0.1 0.1,0 0,0 h -2.7 c -0.055,0 -0.1,0.045 -0.1,0.1 v 5.6 c 0,0.055 0.045,0.1 0.1,0.1 h 2.7 c 0.1,0 0,-0.1 0,0 v 5.9 c 0,0.055 0.045,0.1 0.1,0.1"
       stroke="rgb(0,0,0)"
       stroke-width="0.2"
       id="path225"
       style="stroke:#ff0000;stroke-width:0.352778;stroke-miterlimit:4;stroke-dasharray:none" />
  </g>
  <g
     id="p-4"
     style="fill:none;stroke:#ff0000;stroke-width:0.352778;stroke-linecap:round;stroke-linejoin:round;stroke-miterlimit:4;stroke-dasharray:none"
     transform="translate(-9.5934929,-251.42361)">
    <path
       d="m 373,576.1 v 2.7 c 0,0.1 0.1,0 0,0 h -2.6 c -0.1,0 0,0.1 0,0 v -5.4 c 0,-0.1 -0.1,0 0,0 h 2.6 c 0.1,0 0,-0.1 0,0 z"
       stroke="rgb(0,0,255)"
       stroke-width="0.2"
       id="path228"
       style="stroke:#ff0000;stroke-width:0.352778;stroke-miterlimit:4;stroke-dasharray:none" />
    <path
       d="m 373,564.9 v 2.7 c 0,0.1 0.1,0 0,0 h -2.6 c -0.1,0 0,0.1 0,0 v -5.4 c 0,-0.1 -0.1,0 0,0 h 2.6 c 0.1,0 0,-0.1 0,0 z"
       stroke="rgb(0,0,255)"
       stroke-width="0.2"
       id="path230"
       style="stroke:#ff0000;stroke-width:0.352778;stroke-miterlimit:4;stroke-dasharray:none" />
    <path
       d="m 373,553.7 v 2.7 c 0,0.1 0.1,0 0,0 h -2.6 c -0.1,0 0,0.1 0,0 V 551 c 0,-0.1 -0.1,0 0,0 h 2.6 c 0.1,0 0,-0.1 0,0 z"
       stroke="rgb(0,0,255)"
       stroke-width="0.2"
       id="path232"
       style="stroke:#ff0000;stroke-width:0.352778;stroke-miterlimit:4;stroke-dasharray:none" />
    <path
       d="m 373,542.5 v 2.7 c 0,0.1 0.1,0 0,0 h -2.6 c -0.1,0 0,0.1 0,0 v -5.4 c 0,-0.1 -0.1,0 0,0 h 2.6 c 0.1,0 0,-0.1 0,0 z"
       stroke="rgb(0,0,255)"
       stroke-width="0.2"
       id="path234"
       style="stroke:#ff0000;stroke-width:0.352778;stroke-miterlimit:4;stroke-dasharray:none" />
    <path
       d="m 373,531.3 v 2.7 c 0,0.1 0.1,0 0,0 h -2.6 c -0.1,0 0,0.1 0,0 v -5.4 c 0,-0.1 -0.1,0 0,0 h 2.6 c 0.1,0 0,-0.1 0,0 z"
       stroke="rgb(0,0,255)"
       stroke-width="0.2"
       id="path236"
       style="stroke:#ff0000;stroke-width:0.352778;stroke-miterlimit:4;stroke-dasharray:none" />
    <path
       d="m 373,520.1 v 2.7 c 0,0.1 0.1,0 0,0 h -2.6 c -0.1,0 0,0.1 0,0 v -5.4 c 0,-0.1 -0.1,0 0,0 h 2.6 c 0.1,0 0,-0.1 0,0 z"
       stroke="rgb(0,0,255)"
       stroke-width="0.2"
       id="path238"
       style="stroke:#ff0000;stroke-width:0.352778;stroke-miterlimit:4;stroke-dasharray:none" />
    <path
       d="m 373,508.9 v 2.7 c 0,0.1 0.1,0 0,0 h -2.6 c -0.1,0 0,0.1 0,0 v -5.4 c 0,-0.1 -0.1,0 0,0 h 2.6 c 0.1,0 0,-0.1 0,0 z"
       stroke="rgb(0,0,255)"
       stroke-width="0.2"
       id="path240"
       style="stroke:#ff0000;stroke-width:0.352778;stroke-miterlimit:4;stroke-dasharray:none" />
    <path
       d="m 373,497.7 v 2.7 c 0,0.1 0.1,0 0,0 h -2.6 c -0.1,0 0,0.1 0,0 V 495 c 0,-0.1 -0.1,0 0,0 h 2.6 c 0.1,0 0,-0.1 0,0 z"
       stroke="rgb(0,0,255)"
       stroke-width="0.2"
       id="path242"
       style="stroke:#ff0000;stroke-width:0.352778;stroke-miterlimit:4;stroke-dasharray:none" />
    <path
       d="m 373,486.5 v 2.7 c 0,0.1 0.1,0 0,0 h -2.6 c -0.1,0 0,0.1 0,0 v -5.4 c 0,-0.1 -0.1,0 0,0 h 2.6 c 0.1,0 0,-0.1 0,0 z"
       stroke="rgb(0,0,255)"
       stroke-width="0.2"
       id="path244"
       style="stroke:#ff0000;stroke-width:0.352778;stroke-miterlimit:4;stroke-dasharray:none" />
    <path
       d="M 259.7,587.6 H 257 c -0.1,0 0,0.1 0,0 V 585 c 0,-0.1 -0.1,0 0,0 h 5.4 c 0.1,0 0,-0.1 0,0 v 2.6 c 0,0.1 0.1,0 0,0 z"
       stroke="rgb(0,0,255)"
       stroke-width="0.2"
       id="path246"
       style="stroke:#ff0000;stroke-width:0.352778;stroke-miterlimit:4;stroke-dasharray:none" />
    <path
       d="m 270.9,587.6 h -2.7 c -0.1,0 0,0.1 0,0 V 585 c 0,-0.1 -0.1,0 0,0 h 5.4 c 0.1,0 0,-0.1 0,0 v 2.6 c 0,0.1 0.1,0 0,0 z"
       stroke="rgb(0,0,255)"
       stroke-width="0.2"
       id="path248"
       style="stroke:#ff0000;stroke-width:0.352778;stroke-miterlimit:4;stroke-dasharray:none" />
    <path
       d="m 282.1,587.6 h -2.7 c -0.1,0 0,0.1 0,0 V 585 c 0,-0.1 -0.1,0 0,0 h 5.4 c 0.1,0 0,-0.1 0,0 v 2.6 c 0,0.1 0.1,0 0,0 z"
       stroke="rgb(0,0,255)"
       stroke-width="0.2"
       id="path250"
       style="stroke:#ff0000;stroke-width:0.352778;stroke-miterlimit:4;stroke-dasharray:none" />
    <path
       d="m 293.3,587.6 h -2.7 c -0.1,0 0,0.1 0,0 V 585 c 0,-0.1 -0.1,0 0,0 h 5.4 c 0.1,0 0,-0.1 0,0 v 2.6 c 0,0.1 0.1,0 0,0 z"
       stroke="rgb(0,0,255)"
       stroke-width="0.2"
       id="path252"
       style="stroke:#ff0000;stroke-width:0.352778;stroke-miterlimit:4;stroke-dasharray:none" />
    <path
       d="m 304.5,587.6 h -2.7 c -0.1,0 0,0.1 0,0 V 585 c 0,-0.1 -0.1,0 0,0 h 5.4 c 0.1,0 0,-0.1 0,0 v 2.6 c 0,0.1 0.1,0 0,0 z"
       stroke="rgb(0,0,255)"
       stroke-width="0.2"
       id="path254"
       style="stroke:#ff0000;stroke-width:0.352778;stroke-miterlimit:4;stroke-dasharray:none" />
    <path
       d="M 315.7,587.6 H 313 c -0.1,0 0,0.1 0,0 V 585 c 0,-0.1 -0.1,0 0,0 h 5.4 c 0.1,0 0,-0.1 0,0 v 2.6 c 0,0.1 0.1,0 0,0 z"
       stroke="rgb(0,0,255)"
       stroke-width="0.2"
       id="path256"
       style="stroke:#ff0000;stroke-width:0.352778;stroke-miterlimit:4;stroke-dasharray:none" />
    <path
       d="m 326.9,587.6 h -2.7 c -0.1,0 0,0.1 0,0 V 585 c 0,-0.1 -0.1,0 0,0 h 5.4 c 0.1,0 0,-0.1 0,0 v 2.6 c 0,0.1 0.1,0 0,0 z"
       stroke="rgb(0,0,255)"
       stroke-width="0.2"
       id="path258"
       style="stroke:#ff0000;stroke-width:0.352778;stroke-miterlimit:4;stroke-dasharray:none" />
    <path
       d="m 338.1,587.6 h -2.7 c -0.1,0 0,0.1 0,0 V 585 c 0,-0.1 -0.1,0 0,0 h 5.4 c 0.1,0 0,-0.1 0,0 v 2.6 c 0,0.1 0.1,0 0,0 z"
       stroke="rgb(0,0,255)"
       stroke-width="0.2"
       id="path260"
       style="stroke:#ff0000;stroke-width:0.352778;stroke-miterlimit:4;stroke-dasharray:none" />
    <path
       d="m 349.3,587.6 h -2.7 c -0.1,0 0,0.1 0,0 V 585 c 0,-0.1 -0.1,0 0,0 h 5.4 c 0.1,0 0,-0.1 0,0 v 2.6 c 0,0.1 0.1,0 0,0 z"
       stroke="rgb(0,0,255)"
       stroke-width="0.2"
       id="path262"
       style="stroke:#ff0000;stroke-width:0.352778;stroke-miterlimit:4;stroke-dasharray:none" />
    <path
       d="m 360.5,587.6 h -2.7 c -0.1,0 0,0.1 0,0 V 585 c 0,-0.1 -0.1,0 0,0 h 5.4 c 0.1,0 0,-0.1 0,0 v 2.6 c 0,0.1 0.1,0 0,0 z"
       stroke="rgb(0,0,255)"
       stroke-width="0.2"
       id="path264"
       style="stroke:#ff0000;stroke-width:0.352778;stroke-miterlimit:4;stroke-dasharray:none" />
    <path
       d="M 371.7,587.6 H 369 c -0.1,0 0,0.1 0,0 V 585 c 0,-0.1 -0.1,0 0,0 h 5.4 c 0.1,0 0,-0.1 0,0 v 2.6 c 0,0.1 0.1,0 0,0 z"
       stroke="rgb(0,0,255)"
       stroke-width="0.2"
       id="path266"
       style="stroke:#ff0000;stroke-width:0.352778;stroke-miterlimit:4;stroke-dasharray:none" />
    <path
       d="m 382.9,587.6 h -2.7 c -0.1,0 0,0.1 0,0 V 585 c 0,-0.1 -0.1,0 0,0 h 5.4 c 0.1,0 0,-0.1 0,0 v 2.6 c 0,0.1 0.1,0 0,0 z"
       stroke="rgb(0,0,255)"
       stroke-width="0.2"
       id="path268"
       style="stroke:#ff0000;stroke-width:0.352778;stroke-miterlimit:4;stroke-dasharray:none" />
    <path
       d="m 394.1,587.6 h -2.7 c -0.1,0 0,0.1 0,0 V 585 c 0,-0.1 -0.1,0 0,0 h 5.4 c 0.1,0 0,-0.1 0,0 v 2.6 c 0,0.1 0.1,0 0,0 z"
       stroke="rgb(0,0,255)"
       stroke-width="0.2"
       id="path270"
       style="stroke:#ff0000;stroke-width:0.352778;stroke-miterlimit:4;stroke-dasharray:none" />
    <path
       d="m 405.3,587.6 h -2.7 c -0.1,0 0,0.1 0,0 V 585 c 0,-0.1 -0.1,0 0,0 h 5.4 c 0.1,0 0,-0.1 0,0 v 2.6 c 0,0.1 0.1,0 0,0 z"
       stroke="rgb(0,0,255)"
       stroke-width="0.2"
       id="path272"
       style="stroke:#ff0000;stroke-width:0.352778;stroke-miterlimit:4;stroke-dasharray:none" />
    <path
       d="m 416.5,587.6 h -2.7 c -0.1,0 0,0.1 0,0 V 585 c 0,-0.1 -0.1,0 0,0 h 5.4 c 0.1,0 0,-0.1 0,0 v 2.6 c 0,0.1 0.1,0 0,0 z"
       stroke="rgb(0,0,255)"
       stroke-width="0.2"
       id="path274"
       style="stroke:#ff0000;stroke-width:0.352778;stroke-miterlimit:4;stroke-dasharray:none" />
    <path
       d="M 427.7,587.6 H 425 c -0.1,0 0,0.1 0,0 V 585 c 0,-0.1 -0.1,0 0,0 h 5.4 c 0.1,0 0,-0.1 0,0 v 2.6 c 0,0.1 0.1,0 0,0 z"
       stroke="rgb(0,0,255)"
       stroke-width="0.2"
       id="path276"
       style="stroke:#ff0000;stroke-width:0.352778;stroke-miterlimit:4;stroke-dasharray:none" />
    <path
       d="m 438.9,587.6 h -2.7 c -0.1,0 0,0.1 0,0 V 585 c 0,-0.1 -0.1,0 0,0 h 5.4 c 0.1,0 0,-0.1 0,0 v 2.6 c 0,0.1 0.1,0 0,0 z"
       stroke="rgb(0,0,255)"
       stroke-width="0.2"
       id="path278"
       style="stroke:#ff0000;stroke-width:0.352778;stroke-miterlimit:4;stroke-dasharray:none" />
    <path
       d="m 450.1,587.6 h -2.7 c -0.1,0 0,0.1 0,0 V 585 c 0,-0.1 -0.1,0 0,0 h 5.4 c 0.1,0 0,-0.1 0,0 v 2.6 c 0,0.1 0.1,0 0,0 z"
       stroke="rgb(0,0,255)"
       stroke-width="0.2"
       id="path280"
       style="stroke:#ff0000;stroke-width:0.352778;stroke-miterlimit:4;stroke-dasharray:none" />
    <path
       d="m 461.3,587.6 h -2.7 c -0.1,0 0,0.1 0,0 V 585 c 0,-0.1 -0.1,0 0,0 h 5.4 c 0.1,0 0,-0.1 0,0 v 2.6 c 0,0.1 0.1,0 0,0 z"
       stroke="rgb(0,0,255)"
       stroke-width="0.2"
       id="path282"
       style="stroke:#ff0000;stroke-width:0.352778;stroke-miterlimit:4;stroke-dasharray:none" />
    <path
       d="m 472.5,587.6 h -2.7 c -0.1,0 0,0.1 0,0 V 585 c 0,-0.1 -0.1,0 0,0 h 5.4 c 0.1,0 0,-0.1 0,0 v 2.6 c 0,0.1 0.1,0 0,0 z"
       stroke="rgb(0,0,255)"
       stroke-width="0.2"
       id="path284"
       style="stroke:#ff0000;stroke-width:0.352778;stroke-miterlimit:4;stroke-dasharray:none" />
    <path
       d="M 483.7,587.6 H 481 c -0.1,0 0,0.1 0,0 V 585 c 0,-0.1 -0.1,0 0,0 h 5.4 c 0.1,0 0,-0.1 0,0 v 2.6 c 0,0.1 0.1,0 0,0 z"
       stroke="rgb(0,0,255)"
       stroke-width="0.2"
       id="path286"
       style="stroke:#ff0000;stroke-width:0.352778;stroke-miterlimit:4;stroke-dasharray:none" />
    <text
       alignment-baseline="hanging"
       font-size="4px"
       style="font-style:normal;font-weight:normal;font-family:sans-serif;fill:#ff0000;stroke:#ff0000;stroke-width:0.352778;stroke-miterlimit:4;stroke-dasharray:none"
       text-anchor="middle"
       transform="translate(371.7,532.2)"
       id="text288" />
    <path
       d="m 254.5,590.6 h 234.4 c 0.055,0 0.1,-0.045 0.1,-0.1 v -3.1 c 0,-0.1 -0.1,0 0,0 h 2.7 c 0.055,0 0.1,-0.045 0.1,-0.1 v -5.6 c 0,-0.055 -0.045,-0.1 -0.1,-0.1 H 489 c -0.1,0 0,0.1 0,0 v -5.4 c 0,-0.1 -0.1,0 0,0 h 2.7 c 0.055,0 0.1,-0.045 0.1,-0.1 v -5.6 c 0,-0.055 -0.045,-0.1 -0.1,-0.1 H 489 c -0.1,0 0,0.1 0,0 V 565 c 0,-0.1 -0.1,0 0,0 h 2.7 c 0.055,0 0.1,-0.045 0.1,-0.1 v -5.6 c 0,-0.055 -0.045,-0.1 -0.1,-0.1 H 489 c -0.1,0 0,0.1 0,0 v -5.4 c 0,-0.1 -0.1,0 0,0 h 2.7 c 0.055,0 0.1,-0.045 0.1,-0.1 v -5.6 c 0,-0.055 -0.045,-0.1 -0.1,-0.1 H 489 c -0.1,0 0,0.1 0,0 v -5.4 c 0,-0.1 -0.1,0 0,0 h 2.7 c 0.055,0 0.1,-0.045 0.1,-0.1 v -5.6 c 0,-0.055 -0.045,-0.1 -0.1,-0.1 H 489 c -0.1,0 0,0.1 0,0 v -5.4 c 0,-0.1 -0.1,0 0,0 h 2.7 c 0.055,0 0.1,-0.045 0.1,-0.1 v -5.6 c 0,-0.055 -0.045,-0.1 -0.1,-0.1 H 489 c -0.1,0 0,0.1 0,0 v -5.4 c 0,-0.1 -0.1,0 0,0 h 2.7 c 0.055,0 0.1,-0.045 0.1,-0.1 v -5.6 c 0,-0.055 -0.045,-0.1 -0.1,-0.1 H 489 c -0.1,0 0,0.1 0,0 V 509 c 0,-0.1 -0.1,0 0,0 h 2.7 c 0.055,0 0.1,-0.045 0.1,-0.1 v -5.6 c 0,-0.055 -0.045,-0.1 -0.1,-0.1 H 489 c -0.1,0 0,0.1 0,0 v -5.4 c 0,-0.1 -0.1,0 0,0 h 2.7 c 0.055,0 0.1,-0.045 0.1,-0.1 v -5.6 c 0,-0.055 -0.045,-0.1 -0.1,-0.1 H 489 c -0.1,0 0,0.1 0,0 v -5.4 c 0,-0.1 -0.1,0 0,0 h 2.7 c 0.055,0 0.1,-0.045 0.1,-0.1 v -5.6 c 0,-0.055 -0.045,-0.1 -0.1,-0.1 H 489 c -0.1,0 0,0.1 0,0 v -3.1 c 0,-0.055 -0.045,-0.1 -0.1,-0.1 H 254.5 c -0.055,0 -0.1,0.045 -0.1,0.1 v 3.1 c 0,0.1 0.1,0 0,0 h -2.7 c -0.055,0 -0.1,0.045 -0.1,0.1 v 5.6 c 0,0.055 0.045,0.1 0.1,0.1 h 2.7 c 0.1,0 0,-0.1 0,0 v 5.4 c 0,0.1 0.1,0 0,0 h -2.7 c -0.055,0 -0.1,0.045 -0.1,0.1 v 5.6 c 0,0.055 0.045,0.1 0.1,0.1 h 2.7 c 0.1,0 0,-0.1 0,0 v 5.4 c 0,0.1 0.1,0 0,0 h -2.7 c -0.055,0 -0.1,0.045 -0.1,0.1 v 5.6 c 0,0.055 0.045,0.1 0.1,0.1 h 2.7 c 0.1,0 0,-0.1 0,0 v 5.4 c 0,0.1 0.1,0 0,0 h -2.7 c -0.055,0 -0.1,0.045 -0.1,0.1 v 5.6 c 0,0.055 0.045,0.1 0.1,0.1 h 2.7 c 0.1,0 0,-0.1 0,0 v 5.4 c 0,0.1 0.1,0 0,0 h -2.7 c -0.055,0 -0.1,0.045 -0.1,0.1 v 5.6 c 0,0.055 0.045,0.1 0.1,0.1 h 2.7 c 0.1,0 0,-0.1 0,0 v 5.4 c 0,0.1 0.1,0 0,0 h -2.7 c -0.055,0 -0.1,0.045 -0.1,0.1 v 5.6 c 0,0.055 0.045,0.1 0.1,0.1 h 2.7 c 0.1,0 0,-0.1 0,0 v 5.4 c 0,0.1 0.1,0 0,0 h -2.7 c -0.055,0 -0.1,0.045 -0.1,0.1 v 5.6 c 0,0.055 0.045,0.1 0.1,0.1 h 2.7 c 0.1,0 0,-0.1 0,0 v 5.4 c 0,0.1 0.1,0 0,0 h -2.7 c -0.055,0 -0.1,0.045 -0.1,0.1 v 5.6 c 0,0.055 0.045,0.1 0.1,0.1 h 2.7 c 0.1,0 0,-0.1 0,0 v 5.4 c 0,0.1 0.1,0 0,0 h -2.7 c -0.055,0 -0.1,0.045 -0.1,0.1 v 5.6 c 0,0.055 0.045,0.1 0.1,0.1 h 2.7 c 0.1,0 0,-0.1 0,0 v 5.4 c 0,0.1 0.1,0 0,0 h -2.7 c -0.055,0 -0.1,0.045 -0.1,0.1 v 5.6 c 0,0.055 0.045,0.1 0.1,0.1 h 2.7 c 0.1,0 0,-0.1 0,0 v 3.1 c 0,0.055 0.045,0.1 0.1,0.1"
       stroke="rgb(0,0,0)"
       stroke-width="0.2"
       id="path290"
       style="stroke:#ff0000;stroke-width:0.352778;stroke-miterlimit:4;stroke-dasharray:none" />
  </g>
  <g
     id="p-5"
     style="fill:none;stroke:#ff0000;stroke-width:0.352778;stroke-linecap:round;stroke-linejoin:round;stroke-miterlimit:4;stroke-dasharray:none"
     transform="translate(-9.5934929,-251.42361)">
    <path
       d="m 370.4,461.7 v 2.7 c 0,0.1 -0.1,0 0,0 h 2.6 c 0.1,0 0,0.1 0,0 V 459 c 0,-0.1 0.1,0 0,0 h -2.6 c -0.1,0 0,-0.1 0,0 z"
       stroke="rgb(0,0,255)"
       stroke-width="0.2"
       id="path293"
       style="stroke:#ff0000;stroke-width:0.352778;stroke-miterlimit:4;stroke-dasharray:none" />
    <path
       d="m 370.4,450.5 v 2.7 c 0,0.1 -0.1,0 0,0 h 2.6 c 0.1,0 0,0.1 0,0 v -5.4 c 0,-0.1 0.1,0 0,0 h -2.6 c -0.1,0 0,-0.1 0,0 z"
       stroke="rgb(0,0,255)"
       stroke-width="0.2"
       id="path295"
       style="stroke:#ff0000;stroke-width:0.352778;stroke-miterlimit:4;stroke-dasharray:none" />
    <path
       d="m 370.4,439.3 v 2.7 c 0,0.1 -0.1,0 0,0 h 2.6 c 0.1,0 0,0.1 0,0 v -5.4 c 0,-0.1 0.1,0 0,0 h -2.6 c -0.1,0 0,-0.1 0,0 z"
       stroke="rgb(0,0,255)"
       stroke-width="0.2"
       id="path297"
       style="stroke:#ff0000;stroke-width:0.352778;stroke-miterlimit:4;stroke-dasharray:none" />
    <path
       d="m 370.4,428.1 v 2.7 c 0,0.1 -0.1,0 0,0 h 2.6 c 0.1,0 0,0.1 0,0 v -5.4 c 0,-0.1 0.1,0 0,0 h -2.6 c -0.1,0 0,-0.1 0,0 z"
       stroke="rgb(0,0,255)"
       stroke-width="0.2"
       id="path299"
       style="stroke:#ff0000;stroke-width:0.352778;stroke-miterlimit:4;stroke-dasharray:none" />
    <path
       d="m 370.4,416.9 v 2.7 c 0,0.1 -0.1,0 0,0 h 2.6 c 0.1,0 0,0.1 0,0 v -5.4 c 0,-0.1 0.1,0 0,0 h -2.6 c -0.1,0 0,-0.1 0,0 z"
       stroke="rgb(0,0,255)"
       stroke-width="0.2"
       id="path301"
       style="stroke:#ff0000;stroke-width:0.352778;stroke-miterlimit:4;stroke-dasharray:none" />
    <path
       d="m 370.4,405.7 v 2.7 c 0,0.1 -0.1,0 0,0 h 2.6 c 0.1,0 0,0.1 0,0 V 403 c 0,-0.1 0.1,0 0,0 h -2.6 c -0.1,0 0,-0.1 0,0 z"
       stroke="rgb(0,0,255)"
       stroke-width="0.2"
       id="path303"
       style="stroke:#ff0000;stroke-width:0.352778;stroke-miterlimit:4;stroke-dasharray:none" />
    <path
       d="m 370.4,394.5 v 2.7 c 0,0.1 -0.1,0 0,0 h 2.6 c 0.1,0 0,0.1 0,0 v -5.4 c 0,-0.1 0.1,0 0,0 h -2.6 c -0.1,0 0,-0.1 0,0 z"
       stroke="rgb(0,0,255)"
       stroke-width="0.2"
       id="path305"
       style="stroke:#ff0000;stroke-width:0.352778;stroke-miterlimit:4;stroke-dasharray:none" />
    <path
       d="m 370.4,383.3 v 2.7 c 0,0.1 -0.1,0 0,0 h 2.6 c 0.1,0 0,0.1 0,0 v -5.4 c 0,-0.1 0.1,0 0,0 h -2.6 c -0.1,0 0,-0.1 0,0 z"
       stroke="rgb(0,0,255)"
       stroke-width="0.2"
       id="path307"
       style="stroke:#ff0000;stroke-width:0.352778;stroke-miterlimit:4;stroke-dasharray:none" />
    <path
       d="m 370.4,372.1 v 2.7 c 0,0.1 -0.1,0 0,0 h 2.6 c 0.1,0 0,0.1 0,0 v -5.4 c 0,-0.1 0.1,0 0,0 h -2.6 c -0.1,0 0,-0.1 0,0 z"
       stroke="rgb(0,0,255)"
       stroke-width="0.2"
       id="path309"
       style="stroke:#ff0000;stroke-width:0.352778;stroke-miterlimit:4;stroke-dasharray:none" />
    <path
       d="M 259.7,473.2 H 257 c -0.1,0 0,0.1 0,0 v -2.6 c 0,-0.1 -0.1,0 0,0 h 5.4 c 0.1,0 0,-0.1 0,0 v 2.6 c 0,0.1 0.1,0 0,0 z"
       stroke="rgb(0,0,255)"
       stroke-width="0.2"
       id="path311"
       style="stroke:#ff0000;stroke-width:0.352778;stroke-miterlimit:4;stroke-dasharray:none" />
    <path
       d="m 270.9,473.2 h -2.7 c -0.1,0 0,0.1 0,0 v -2.6 c 0,-0.1 -0.1,0 0,0 h 5.4 c 0.1,0 0,-0.1 0,0 v 2.6 c 0,0.1 0.1,0 0,0 z"
       stroke="rgb(0,0,255)"
       stroke-width="0.2"
       id="path313"
       style="stroke:#ff0000;stroke-width:0.352778;stroke-miterlimit:4;stroke-dasharray:none" />
    <path
       d="m 282.1,473.2 h -2.7 c -0.1,0 0,0.1 0,0 v -2.6 c 0,-0.1 -0.1,0 0,0 h 5.4 c 0.1,0 0,-0.1 0,0 v 2.6 c 0,0.1 0.1,0 0,0 z"
       stroke="rgb(0,0,255)"
       stroke-width="0.2"
       id="path315"
       style="stroke:#ff0000;stroke-width:0.352778;stroke-miterlimit:4;stroke-dasharray:none" />
    <path
       d="m 293.3,473.2 h -2.7 c -0.1,0 0,0.1 0,0 v -2.6 c 0,-0.1 -0.1,0 0,0 h 5.4 c 0.1,0 0,-0.1 0,0 v 2.6 c 0,0.1 0.1,0 0,0 z"
       stroke="rgb(0,0,255)"
       stroke-width="0.2"
       id="path317"
       style="stroke:#ff0000;stroke-width:0.352778;stroke-miterlimit:4;stroke-dasharray:none" />
    <path
       d="m 304.5,473.2 h -2.7 c -0.1,0 0,0.1 0,0 v -2.6 c 0,-0.1 -0.1,0 0,0 h 5.4 c 0.1,0 0,-0.1 0,0 v 2.6 c 0,0.1 0.1,0 0,0 z"
       stroke="rgb(0,0,255)"
       stroke-width="0.2"
       id="path319"
       style="stroke:#ff0000;stroke-width:0.352778;stroke-miterlimit:4;stroke-dasharray:none" />
    <path
       d="M 315.7,473.2 H 313 c -0.1,0 0,0.1 0,0 v -2.6 c 0,-0.1 -0.1,0 0,0 h 5.4 c 0.1,0 0,-0.1 0,0 v 2.6 c 0,0.1 0.1,0 0,0 z"
       stroke="rgb(0,0,255)"
       stroke-width="0.2"
       id="path321"
       style="stroke:#ff0000;stroke-width:0.352778;stroke-miterlimit:4;stroke-dasharray:none" />
    <path
       d="m 326.9,473.2 h -2.7 c -0.1,0 0,0.1 0,0 v -2.6 c 0,-0.1 -0.1,0 0,0 h 5.4 c 0.1,0 0,-0.1 0,0 v 2.6 c 0,0.1 0.1,0 0,0 z"
       stroke="rgb(0,0,255)"
       stroke-width="0.2"
       id="path323"
       style="stroke:#ff0000;stroke-width:0.352778;stroke-miterlimit:4;stroke-dasharray:none" />
    <path
       d="m 338.1,473.2 h -2.7 c -0.1,0 0,0.1 0,0 v -2.6 c 0,-0.1 -0.1,0 0,0 h 5.4 c 0.1,0 0,-0.1 0,0 v 2.6 c 0,0.1 0.1,0 0,0 z"
       stroke="rgb(0,0,255)"
       stroke-width="0.2"
       id="path325"
       style="stroke:#ff0000;stroke-width:0.352778;stroke-miterlimit:4;stroke-dasharray:none" />
    <path
       d="m 349.3,473.2 h -2.7 c -0.1,0 0,0.1 0,0 v -2.6 c 0,-0.1 -0.1,0 0,0 h 5.4 c 0.1,0 0,-0.1 0,0 v 2.6 c 0,0.1 0.1,0 0,0 z"
       stroke="rgb(0,0,255)"
       stroke-width="0.2"
       id="path327"
       style="stroke:#ff0000;stroke-width:0.352778;stroke-miterlimit:4;stroke-dasharray:none" />
    <path
       d="m 360.5,473.2 h -2.7 c -0.1,0 0,0.1 0,0 v -2.6 c 0,-0.1 -0.1,0 0,0 h 5.4 c 0.1,0 0,-0.1 0,0 v 2.6 c 0,0.1 0.1,0 0,0 z"
       stroke="rgb(0,0,255)"
       stroke-width="0.2"
       id="path329"
       style="stroke:#ff0000;stroke-width:0.352778;stroke-miterlimit:4;stroke-dasharray:none" />
    <path
       d="M 371.7,473.2 H 369 c -0.1,0 0,0.1 0,0 v -2.6 c 0,-0.1 -0.1,0 0,0 h 5.4 c 0.1,0 0,-0.1 0,0 v 2.6 c 0,0.1 0.1,0 0,0 z"
       stroke="rgb(0,0,255)"
       stroke-width="0.2"
       id="path331"
       style="stroke:#ff0000;stroke-width:0.352778;stroke-miterlimit:4;stroke-dasharray:none" />
    <path
       d="m 382.9,473.2 h -2.7 c -0.1,0 0,0.1 0,0 v -2.6 c 0,-0.1 -0.1,0 0,0 h 5.4 c 0.1,0 0,-0.1 0,0 v 2.6 c 0,0.1 0.1,0 0,0 z"
       stroke="rgb(0,0,255)"
       stroke-width="0.2"
       id="path333"
       style="stroke:#ff0000;stroke-width:0.352778;stroke-miterlimit:4;stroke-dasharray:none" />
    <path
       d="m 394.1,473.2 h -2.7 c -0.1,0 0,0.1 0,0 v -2.6 c 0,-0.1 -0.1,0 0,0 h 5.4 c 0.1,0 0,-0.1 0,0 v 2.6 c 0,0.1 0.1,0 0,0 z"
       stroke="rgb(0,0,255)"
       stroke-width="0.2"
       id="path335"
       style="stroke:#ff0000;stroke-width:0.352778;stroke-miterlimit:4;stroke-dasharray:none" />
    <path
       d="m 405.3,473.2 h -2.7 c -0.1,0 0,0.1 0,0 v -2.6 c 0,-0.1 -0.1,0 0,0 h 5.4 c 0.1,0 0,-0.1 0,0 v 2.6 c 0,0.1 0.1,0 0,0 z"
       stroke="rgb(0,0,255)"
       stroke-width="0.2"
       id="path337"
       style="stroke:#ff0000;stroke-width:0.352778;stroke-miterlimit:4;stroke-dasharray:none" />
    <path
       d="m 416.5,473.2 h -2.7 c -0.1,0 0,0.1 0,0 v -2.6 c 0,-0.1 -0.1,0 0,0 h 5.4 c 0.1,0 0,-0.1 0,0 v 2.6 c 0,0.1 0.1,0 0,0 z"
       stroke="rgb(0,0,255)"
       stroke-width="0.2"
       id="path339"
       style="stroke:#ff0000;stroke-width:0.352778;stroke-miterlimit:4;stroke-dasharray:none" />
    <path
       d="M 427.7,473.2 H 425 c -0.1,0 0,0.1 0,0 v -2.6 c 0,-0.1 -0.1,0 0,0 h 5.4 c 0.1,0 0,-0.1 0,0 v 2.6 c 0,0.1 0.1,0 0,0 z"
       stroke="rgb(0,0,255)"
       stroke-width="0.2"
       id="path341"
       style="stroke:#ff0000;stroke-width:0.352778;stroke-miterlimit:4;stroke-dasharray:none" />
    <path
       d="m 438.9,473.2 h -2.7 c -0.1,0 0,0.1 0,0 v -2.6 c 0,-0.1 -0.1,0 0,0 h 5.4 c 0.1,0 0,-0.1 0,0 v 2.6 c 0,0.1 0.1,0 0,0 z"
       stroke="rgb(0,0,255)"
       stroke-width="0.2"
       id="path343"
       style="stroke:#ff0000;stroke-width:0.352778;stroke-miterlimit:4;stroke-dasharray:none" />
    <path
       d="m 450.1,473.2 h -2.7 c -0.1,0 0,0.1 0,0 v -2.6 c 0,-0.1 -0.1,0 0,0 h 5.4 c 0.1,0 0,-0.1 0,0 v 2.6 c 0,0.1 0.1,0 0,0 z"
       stroke="rgb(0,0,255)"
       stroke-width="0.2"
       id="path345"
       style="stroke:#ff0000;stroke-width:0.352778;stroke-miterlimit:4;stroke-dasharray:none" />
    <path
       d="m 461.3,473.2 h -2.7 c -0.1,0 0,0.1 0,0 v -2.6 c 0,-0.1 -0.1,0 0,0 h 5.4 c 0.1,0 0,-0.1 0,0 v 2.6 c 0,0.1 0.1,0 0,0 z"
       stroke="rgb(0,0,255)"
       stroke-width="0.2"
       id="path347"
       style="stroke:#ff0000;stroke-width:0.352778;stroke-miterlimit:4;stroke-dasharray:none" />
    <path
       d="m 472.5,473.2 h -2.7 c -0.1,0 0,0.1 0,0 v -2.6 c 0,-0.1 -0.1,0 0,0 h 5.4 c 0.1,0 0,-0.1 0,0 v 2.6 c 0,0.1 0.1,0 0,0 z"
       stroke="rgb(0,0,255)"
       stroke-width="0.2"
       id="path349"
       style="stroke:#ff0000;stroke-width:0.352778;stroke-miterlimit:4;stroke-dasharray:none" />
    <path
       d="M 483.7,473.2 H 481 c -0.1,0 0,0.1 0,0 v -2.6 c 0,-0.1 -0.1,0 0,0 h 5.4 c 0.1,0 0,-0.1 0,0 v 2.6 c 0,0.1 0.1,0 0,0 z"
       stroke="rgb(0,0,255)"
       stroke-width="0.2"
       id="path351"
       style="stroke:#ff0000;stroke-width:0.352778;stroke-miterlimit:4;stroke-dasharray:none" />
    <text
       alignment-baseline="hanging"
       font-size="4px"
       style="font-style:normal;font-weight:normal;font-family:sans-serif;fill:#ff0000;stroke:#ff0000;stroke-width:0.352778;stroke-miterlimit:4;stroke-dasharray:none"
       text-anchor="middle"
       transform="translate(371.7,417.8)"
       id="text353" />
    <path
       d="m 254.5,476.2 h 234.4 c 0.055,0 0.1,-0.045 0.1,-0.1 V 473 c 0,-0.1 -0.1,0 0,0 h 2.7 c 0.055,0 0.1,-0.045 0.1,-0.1 v -5.6 c 0,-0.055 -0.045,-0.1 -0.1,-0.1 H 489 c -0.1,0 0,0.1 0,0 v -5.4 c 0,-0.1 -0.1,0 0,0 h 2.7 c 0.055,0 0.1,-0.045 0.1,-0.1 v -5.6 c 0,-0.055 -0.045,-0.1 -0.1,-0.1 H 489 c -0.1,0 0,0.1 0,0 v -5.4 c 0,-0.1 -0.1,0 0,0 h 2.7 c 0.055,0 0.1,-0.045 0.1,-0.1 v -5.6 c 0,-0.055 -0.045,-0.1 -0.1,-0.1 H 489 c -0.1,0 0,0.1 0,0 v -5.4 c 0,-0.1 -0.1,0 0,0 h 2.7 c 0.055,0 0.1,-0.045 0.1,-0.1 v -5.6 c 0,-0.055 -0.045,-0.1 -0.1,-0.1 H 489 c -0.1,0 0,0.1 0,0 v -5.4 c 0,-0.1 -0.1,0 0,0 h 2.7 c 0.055,0 0.1,-0.045 0.1,-0.1 v -5.6 c 0,-0.055 -0.045,-0.1 -0.1,-0.1 H 489 c -0.1,0 0,0.1 0,0 V 417 c 0,-0.1 -0.1,0 0,0 h 2.7 c 0.055,0 0.1,-0.045 0.1,-0.1 v -5.6 c 0,-0.055 -0.045,-0.1 -0.1,-0.1 H 489 c -0.1,0 0,0.1 0,0 v -5.4 c 0,-0.1 -0.1,0 0,0 h 2.7 c 0.055,0 0.1,-0.045 0.1,-0.1 v -5.6 c 0,-0.055 -0.045,-0.1 -0.1,-0.1 H 489 c -0.1,0 0,0.1 0,0 v -5.4 c 0,-0.1 -0.1,0 0,0 h 2.7 c 0.055,0 0.1,-0.045 0.1,-0.1 v -5.6 c 0,-0.055 -0.045,-0.1 -0.1,-0.1 H 489 c -0.1,0 0,0.1 0,0 v -5.4 c 0,-0.1 -0.1,0 0,0 h 2.7 c 0.055,0 0.1,-0.045 0.1,-0.1 v -5.6 c 0,-0.055 -0.045,-0.1 -0.1,-0.1 H 489 c -0.1,0 0,0.1 0,0 v -5.4 c 0,-0.1 -0.1,0 0,0 h 2.7 c 0.055,0 0.1,-0.045 0.1,-0.1 v -5.6 c 0,-0.055 -0.045,-0.1 -0.1,-0.1 H 489 c -0.1,0 0,0.1 0,0 v -3.1 c 0,-0.055 -0.045,-0.1 -0.1,-0.1 H 254.5 c -0.055,0 -0.1,0.045 -0.1,0.1 v 3.1 c 0,0.1 0.1,0 0,0 h -2.7 c -0.055,0 -0.1,0.045 -0.1,0.1 v 5.6 c 0,0.055 0.045,0.1 0.1,0.1 h 2.7 c 0.1,0 0,-0.1 0,0 v 5.4 c 0,0.1 0.1,0 0,0 h -2.7 c -0.055,0 -0.1,0.045 -0.1,0.1 v 5.6 c 0,0.055 0.045,0.1 0.1,0.1 h 2.7 c 0.1,0 0,-0.1 0,0 v 5.4 c 0,0.1 0.1,0 0,0 h -2.7 c -0.055,0 -0.1,0.045 -0.1,0.1 v 5.6 c 0,0.055 0.045,0.1 0.1,0.1 h 2.7 c 0.1,0 0,-0.1 0,0 v 5.4 c 0,0.1 0.1,0 0,0 h -2.7 c -0.055,0 -0.1,0.045 -0.1,0.1 v 5.6 c 0,0.055 0.045,0.1 0.1,0.1 h 2.7 c 0.1,0 0,-0.1 0,0 v 5.4 c 0,0.1 0.1,0 0,0 h -2.7 c -0.055,0 -0.1,0.045 -0.1,0.1 v 5.6 c 0,0.055 0.045,0.1 0.1,0.1 h 2.7 c 0.1,0 0,-0.1 0,0 v 5.4 c 0,0.1 0.1,0 0,0 h -2.7 c -0.055,0 -0.1,0.045 -0.1,0.1 v 5.6 c 0,0.055 0.045,0.1 0.1,0.1 h 2.7 c 0.1,0 0,-0.1 0,0 v 5.4 c 0,0.1 0.1,0 0,0 h -2.7 c -0.055,0 -0.1,0.045 -0.1,0.1 v 5.6 c 0,0.055 0.045,0.1 0.1,0.1 h 2.7 c 0.1,0 0,-0.1 0,0 v 5.4 c 0,0.1 0.1,0 0,0 h -2.7 c -0.055,0 -0.1,0.045 -0.1,0.1 v 5.6 c 0,0.055 0.045,0.1 0.1,0.1 h 2.7 c 0.1,0 0,-0.1 0,0 v 5.4 c 0,0.1 0.1,0 0,0 h -2.7 c -0.055,0 -0.1,0.045 -0.1,0.1 v 5.6 c 0,0.055 0.045,0.1 0.1,0.1 h 2.7 c 0.1,0 0,-0.1 0,0 v 5.4 c 0,0.1 0.1,0 0,0 h -2.7 c -0.055,0 -0.1,0.045 -0.1,0.1 v 5.6 c 0,0.055 0.045,0.1 0.1,0.1 h 2.7 c 0.1,0 0,-0.1 0,0 v 3.1 c 0,0.055 0.045,0.1 0.1,0.1"
       stroke="rgb(0,0,0)"
       stroke-width="0.2"
       id="path355"
       style="stroke:#ff0000;stroke-width:0.352778;stroke-miterlimit:4;stroke-dasharray:none" />
  </g>
  <g
     id="p-6"
     style="fill:none;stroke:#ff0000;stroke-width:0.352778;stroke-linecap:round;stroke-linejoin:round;stroke-miterlimit:4;stroke-dasharray:none"
     transform="translate(-9.5934929,-251.42361)">
    <text
       alignment-baseline="hanging"
       font-size="4px"
       style="font-style:normal;font-weight:normal;font-family:sans-serif;fill:#ff0000;stroke:#ff0000;stroke-width:0.352778;stroke-miterlimit:4;stroke-dasharray:none"
       text-anchor="middle"
       transform="translate(371.7,304.8)"
       id="text358" />
    <path
       d="m 254.5,359 h 4.6 c 0.1,0 0,-0.1 0,0 v 2.7 c 0,0.055 0.045,0.1 0.1,0.1 h 5.6 c 0.055,0 0.1,-0.045 0.1,-0.1 V 359 c 0,-0.1 -0.1,0 0,0 h 5.4 c 0.1,0 0,-0.1 0,0 v 2.7 c 0,0.055 0.045,0.1 0.1,0.1 h 5.6 c 0.055,0 0.1,-0.045 0.1,-0.1 V 359 c 0,-0.1 -0.1,0 0,0 h 5.4 c 0.1,0 0,-0.1 0,0 v 2.7 c 0,0.055 0.045,0.1 0.1,0.1 h 5.6 c 0.055,0 0.1,-0.045 0.1,-0.1 V 359 c 0,-0.1 -0.1,0 0,0 h 5.4 c 0.1,0 0,-0.1 0,0 v 2.7 c 0,0.055 0.045,0.1 0.1,0.1 h 5.6 c 0.055,0 0.1,-0.045 0.1,-0.1 V 359 c 0,-0.1 -0.1,0 0,0 h 5.4 c 0.1,0 0,-0.1 0,0 v 2.7 c 0,0.055 0.045,0.1 0.1,0.1 h 5.6 c 0.055,0 0.1,-0.045 0.1,-0.1 V 359 c 0,-0.1 -0.1,0 0,0 h 5.4 c 0.1,0 0,-0.1 0,0 v 2.7 c 0,0.055 0.045,0.1 0.1,0.1 h 5.6 c 0.055,0 0.1,-0.045 0.1,-0.1 V 359 c 0,-0.1 -0.1,0 0,0 h 5.4 c 0.1,0 0,-0.1 0,0 v 2.7 c 0,0.055 0.045,0.1 0.1,0.1 h 5.6 c 0.055,0 0.1,-0.045 0.1,-0.1 V 359 c 0,-0.1 -0.1,0 0,0 h 5.4 c 0.1,0 0,-0.1 0,0 v 2.7 c 0,0.055 0.045,0.1 0.1,0.1 h 5.6 c 0.055,0 0.1,-0.045 0.1,-0.1 V 359 c 0,-0.1 -0.1,0 0,0 h 5.4 c 0.1,0 0,-0.1 0,0 v 2.7 c 0,0.055 0.045,0.1 0.1,0.1 h 5.6 c 0.055,0 0.1,-0.045 0.1,-0.1 V 359 c 0,-0.1 -0.1,0 0,0 h 5.4 c 0.1,0 0,-0.1 0,0 v 2.7 c 0,0.055 0.045,0.1 0.1,0.1 h 5.6 c 0.055,0 0.1,-0.045 0.1,-0.1 V 359 c 0,-0.1 -0.1,0 0,0 h 4.6 c 0.055,0 0.1,-0.045 0.1,-0.1 v -53.5 c 0,-0.1 -0.1,0 0,0 h 2.6 c 0.1,0 0,-0.1 0,0 v 53.5 c 0,0.055 0.045,0.1 0.1,0.1 h 4.6 c 0.1,0 0,-0.1 0,0 v 2.7 c 0,0.055 0.045,0.1 0.1,0.1 h 5.6 c 0.055,0 0.1,-0.045 0.1,-0.1 V 359 c 0,-0.1 -0.1,0 0,0 h 5.4 c 0.1,0 0,-0.1 0,0 v 2.7 c 0,0.055 0.045,0.1 0.1,0.1 h 5.6 c 0.055,0 0.1,-0.045 0.1,-0.1 V 359 c 0,-0.1 -0.1,0 0,0 h 5.4 c 0.1,0 0,-0.1 0,0 v 2.7 c 0,0.055 0.045,0.1 0.1,0.1 h 5.6 c 0.055,0 0.1,-0.045 0.1,-0.1 V 359 c 0,-0.1 -0.1,0 0,0 h 5.4 c 0.1,0 0,-0.1 0,0 v 2.7 c 0,0.055 0.045,0.1 0.1,0.1 h 5.6 c 0.055,0 0.1,-0.045 0.1,-0.1 V 359 c 0,-0.1 -0.1,0 0,0 h 5.4 c 0.1,0 0,-0.1 0,0 v 2.7 c 0,0.055 0.045,0.1 0.1,0.1 h 5.6 c 0.055,0 0.1,-0.045 0.1,-0.1 V 359 c 0,-0.1 -0.1,0 0,0 h 5.4 c 0.1,0 0,-0.1 0,0 v 2.7 c 0,0.055 0.045,0.1 0.1,0.1 h 5.6 c 0.055,0 0.1,-0.045 0.1,-0.1 V 359 c 0,-0.1 -0.1,0 0,0 h 5.4 c 0.1,0 0,-0.1 0,0 v 2.7 c 0,0.055 0.045,0.1 0.1,0.1 h 5.6 c 0.055,0 0.1,-0.045 0.1,-0.1 V 359 c 0,-0.1 -0.1,0 0,0 h 5.4 c 0.1,0 0,-0.1 0,0 v 2.7 c 0,0.055 0.045,0.1 0.1,0.1 h 5.6 c 0.055,0 0.1,-0.045 0.1,-0.1 V 359 c 0,-0.1 -0.1,0 0,0 h 5.4 c 0.1,0 0,-0.1 0,0 v 2.7 c 0,0.055 0.045,0.1 0.1,0.1 h 5.6 c 0.055,0 0.1,-0.045 0.1,-0.1 V 359 c 0,-0.1 -0.1,0 0,0 h 5.4 c 0.1,0 0,-0.1 0,0 v 2.7 c 0,0.055 0.045,0.1 0.1,0.1 h 5.6 c 0.055,0 0.1,-0.045 0.1,-0.1 V 359 c 0,-0.1 -0.1,0 0,0 h 4.6 c 0.055,0 0.1,-0.045 0.1,-0.1 V 353 c 0,-0.1 -0.1,0 0,0 h 2.7 c 0.055,0 0.1,-0.045 0.1,-0.1 v -5.6 c 0,-0.055 -0.045,-0.1 -0.1,-0.1 H 489 c -0.1,0 0,0.1 0,0 v -5.4 c 0,-0.1 -0.1,0 0,0 h 2.7 c 0.055,0 0.1,-0.045 0.1,-0.1 v -5.6 c 0,-0.055 -0.045,-0.1 -0.1,-0.1 H 489 c -0.1,0 0,0.1 0,0 v -5.4 c 0,-0.1 -0.1,0 0,0 h 2.7 c 0.055,0 0.1,-0.045 0.1,-0.1 v -5.6 c 0,-0.055 -0.045,-0.1 -0.1,-0.1 H 489 c -0.1,0 0,0.1 0,0 v -5.4 c 0,-0.1 -0.1,0 0,0 h 2.7 c 0.055,0 0.1,-0.045 0.1,-0.1 v -5.6 c 0,-0.055 -0.045,-0.1 -0.1,-0.1 H 489 c -0.1,0 0,0.1 0,0 v -5.4 c 0,-0.1 -0.1,0 0,0 h 2.7 c 0.055,0 0.1,-0.045 0.1,-0.1 v -5.6 c 0,-0.055 -0.045,-0.1 -0.1,-0.1 H 489 c -0.1,0 0,0.1 0,0 V 297 c 0,-0.1 -0.1,0 0,0 h 2.7 c 0.055,0 0.1,-0.045 0.1,-0.1 v -5.6 c 0,-0.055 -0.045,-0.1 -0.1,-0.1 H 489 c -0.1,0 0,0.1 0,0 v -5.4 c 0,-0.1 -0.1,0 0,0 h 2.7 c 0.055,0 0.1,-0.045 0.1,-0.1 v -5.6 c 0,-0.055 -0.045,-0.1 -0.1,-0.1 H 489 c -0.1,0 0,0.1 0,0 v -5.4 c 0,-0.1 -0.1,0 0,0 h 2.7 c 0.055,0 0.1,-0.045 0.1,-0.1 v -5.6 c 0,-0.055 -0.045,-0.1 -0.1,-0.1 H 489 c -0.1,0 0,0.1 0,0 v -5.4 c 0,-0.1 -0.1,0 0,0 h 2.7 c 0.055,0 0.1,-0.045 0.1,-0.1 v -5.6 c 0,-0.055 -0.045,-0.1 -0.1,-0.1 H 489 c -0.1,0 0,0.1 0,0 v -5.9 c 0,-0.055 -0.045,-0.1 -0.1,-0.1 H 254.5 c -0.055,0 -0.1,0.045 -0.1,0.1 v 5.9 c 0,0.1 0.1,0 0,0 h -2.7 c -0.055,0 -0.1,0.045 -0.1,0.1 v 5.6 c 0,0.055 0.045,0.1 0.1,0.1 h 2.7 c 0.1,0 0,-0.1 0,0 v 5.4 c 0,0.1 0.1,0 0,0 h -2.7 c -0.055,0 -0.1,0.045 -0.1,0.1 v 5.6 c 0,0.055 0.045,0.1 0.1,0.1 h 2.7 c 0.1,0 0,-0.1 0,0 v 5.4 c 0,0.1 0.1,0 0,0 h -2.7 c -0.055,0 -0.1,0.045 -0.1,0.1 v 5.6 c 0,0.055 0.045,0.1 0.1,0.1 h 2.7 c 0.1,0 0,-0.1 0,0 v 5.4 c 0,0.1 0.1,0 0,0 h -2.7 c -0.055,0 -0.1,0.045 -0.1,0.1 v 5.6 c 0,0.055 0.045,0.1 0.1,0.1 h 2.7 c 0.1,0 0,-0.1 0,0 v 5.4 c 0,0.1 0.1,0 0,0 h -2.7 c -0.055,0 -0.1,0.045 -0.1,0.1 v 5.6 c 0,0.055 0.045,0.1 0.1,0.1 h 2.7 c 0.1,0 0,-0.1 0,0 v 5.4 c 0,0.1 0.1,0 0,0 h -2.7 c -0.055,0 -0.1,0.045 -0.1,0.1 v 5.6 c 0,0.055 0.045,0.1 0.1,0.1 h 2.7 c 0.1,0 0,-0.1 0,0 v 5.4 c 0,0.1 0.1,0 0,0 h -2.7 c -0.055,0 -0.1,0.045 -0.1,0.1 v 5.6 c 0,0.055 0.045,0.1 0.1,0.1 h 2.7 c 0.1,0 0,-0.1 0,0 v 5.4 c 0,0.1 0.1,0 0,0 h -2.7 c -0.055,0 -0.1,0.045 -0.1,0.1 v 5.6 c 0,0.055 0.045,0.1 0.1,0.1 h 2.7 c 0.1,0 0,-0.1 0,0 v 5.4 c 0,0.1 0.1,0 0,0 h -2.7 c -0.055,0 -0.1,0.045 -0.1,0.1 v 5.6 c 0,0.055 0.045,0.1 0.1,0.1 h 2.7 c 0.1,0 0,-0.1 0,0 v 5.9 c 0,0.055 0.045,0.1 0.1,0.1"
       stroke="rgb(0,0,0)"
       stroke-width="0.2"
       id="path360"
       style="stroke:#ff0000;stroke-width:0.352778;stroke-miterlimit:4;stroke-dasharray:none" />
  </g>
</svg>
