<?xml version="1.0" encoding="UTF-8" standalone="no"?>
<svg
   height="304.371mm"
   viewBox="0 0 253.2 304.37099"
   width="253.2mm"
   version="1.1"
   id="svg63"
   sodipodi:docname="ElectronicsBox-SingleBox-v2.svg"
   inkscape:version="1.1 (c68e22c387, 2021-05-23)"
   xmlns:inkscape="http://www.inkscape.org/namespaces/inkscape"
   xmlns:sodipodi="http://sodipodi.sourceforge.net/DTD/sodipodi-0.dtd"
   xmlns="http://www.w3.org/2000/svg"
   xmlns:svg="http://www.w3.org/2000/svg"
   xmlns:rdf="http://www.w3.org/1999/02/22-rdf-syntax-ns#"
   xmlns:cc="http://creativecommons.org/ns#"
   xmlns:dc="http://purl.org/dc/elements/1.1/">
  <defs
     id="defs67" />
  <sodipodi:namedview
     id="namedview65"
     pagecolor="#ffffff"
     bordercolor="#666666"
     borderopacity="1.0"
     inkscape:pageshadow="2"
     inkscape:pageopacity="0.0"
     inkscape:pagecheckerboard="0"
     inkscape:document-units="mm"
     showgrid="false"
     showguides="true"
     inkscape:guide-bbox="true"
     fit-margin-top="0"
     fit-margin-left="0"
     fit-margin-right="0"
     fit-margin-bottom="0"
     inkscape:zoom="0.5385755"
     inkscape:cx="621.08284"
     inkscape:cy="964.58157"
     inkscape:window-width="1551"
     inkscape:window-height="836"
     inkscape:window-x="0"
     inkscape:window-y="27"
     inkscape:window-maximized="1"
     inkscape:current-layer="svg63">
    <sodipodi:guide
       position="4.2722385,90.097891"
       orientation="0,-1"
       id="guide415" />
    <sodipodi:guide
       position="5.5864425,10.099548"
       orientation="0,-1"
       id="guide753" />
  </sodipodi:namedview>
  <!--
ElectronicsBox - Closed box with screw on top and mounting holes

Created with Boxes.py (https://festi.info/boxes.py)
Creation date: 2021-09-28 09:06:53
Command line (remove spaces between dashes): boxes ElectronicsBox - -FingerJoint_angle=90.0 - -FingerJoint_style=rectangular - -FingerJoint_surroundingspaces=2.0 - -FingerJoint_edge_width=1.0 - -FingerJoint_finger=2.0 - -FingerJoint_play=0.0 - -FingerJoint_space=2.0 - -FingerJoint_width=1.0 - -x=120 - -y=120 - -h=70 - -outside=0 - -triangle=20 - -d1=0 - -d2=0 - -d3=0 - -outsidemounts=0 - -holedist=0 - -thickness=2.8 - -format=svg - -tabs=0.0 - -debug=0 - -labels=0 - -labels=1 - -reference=0 - -burn=0.1
Url: http://www.festi.info/ElectronicsBox?FingerJoint_angle=90.0&FingerJoint_style=rectangular&FingerJoint_surroundingspaces=2.0&FingerJoint_edge_width=1.0&FingerJoint_finger=2.0&FingerJoint_play=0.0&FingerJoint_space=2.0&FingerJoint_width=1.0&x=120&y=120&h=70&outside=0&triangle=20&d1=0&d2=0&d3=0&outsidemounts=0&holedist=0&thickness=2.8&format=svg&tabs=0.0&debug=0&labels=0&labels=1&reference=0&burn=0.1&render=1
SettingsUrl: http://www.festi.info/ElectronicsBox?FingerJoint_angle=90.0&FingerJoint_style=rectangular&FingerJoint_surroundingspaces=2.0&FingerJoint_edge_width=1.0&FingerJoint_finger=2.0&FingerJoint_play=0.0&FingerJoint_space=2.0&FingerJoint_width=1.0&x=120&y=120&h=70&outside=0&triangle=20&d1=0&d2=0&d3=0&outsidemounts=0&holedist=0&thickness=2.8&format=svg&tabs=0.0&debug=0&labels=0&labels=1&reference=0&burn=0.1
-->
  <title
     id="title2">ElectronicsBox</title>
  <metadata
     id="metadata4">
    <rdf:RDF>
      <cc:Work>
        <dc:title>Box - ElectronicsBox</dc:title>
        <dc:date>2021-09-28 09:06:53</dc:date>
        <dc:source>http://www.festi.info/ElectronicsBox?FingerJoint_angle=90.0&amp;FingerJoint_style=rectangular&amp;FingerJoint_surroundingspaces=2.0&amp;FingerJoint_edge_width=1.0&amp;FingerJoint_finger=2.0&amp;FingerJoint_play=0.0&amp;FingerJoint_space=2.0&amp;FingerJoint_width=1.0&amp;x=120&amp;y=120&amp;h=70&amp;outside=0&amp;triangle=20&amp;d1=0&amp;d2=0&amp;d3=0&amp;outsidemounts=0&amp;holedist=0&amp;thickness=2.8&amp;format=svg&amp;tabs=0.0&amp;debug=0&amp;labels=0&amp;labels=1&amp;reference=0&amp;burn=0.1&amp;render=1</dc:source>
        <dc:description>Closed box with screw on top and mounting holes

Created with Boxes.py (https://festi.info/boxes.py)
Command line: boxes ElectronicsBox --FingerJoint_angle=90.0 --FingerJoint_style=rectangular --FingerJoint_surroundingspaces=2.0 --FingerJoint_edge_width=1.0 --FingerJoint_finger=2.0 --FingerJoint_play=0.0 --FingerJoint_space=2.0 --FingerJoint_width=1.0 --x=120 --y=120 --h=70 --outside=0 --triangle=20 --d1=0 --d2=0 --d3=0 --outsidemounts=0 --holedist=0 --thickness=2.8 --format=svg --tabs=0.0 --debug=0 --labels=0 --labels=1 --reference=0 --burn=0.1
Url: http://www.festi.info/ElectronicsBox?FingerJoint_angle=90.0&amp;FingerJoint_style=rectangular&amp;FingerJoint_surroundingspaces=2.0&amp;FingerJoint_edge_width=1.0&amp;FingerJoint_finger=2.0&amp;FingerJoint_play=0.0&amp;FingerJoint_space=2.0&amp;FingerJoint_width=1.0&amp;x=120&amp;y=120&amp;h=70&amp;outside=0&amp;triangle=20&amp;d1=0&amp;d2=0&amp;d3=0&amp;outsidemounts=0&amp;holedist=0&amp;thickness=2.8&amp;format=svg&amp;tabs=0.0&amp;debug=0&amp;labels=0&amp;labels=1&amp;reference=0&amp;burn=0.1&amp;render=1
SettingsUrl: http://www.festi.info/ElectronicsBox?FingerJoint_angle=90.0&amp;FingerJoint_style=rectangular&amp;FingerJoint_surroundingspaces=2.0&amp;FingerJoint_edge_width=1.0&amp;FingerJoint_finger=2.0&amp;FingerJoint_play=0.0&amp;FingerJoint_space=2.0&amp;FingerJoint_width=1.0&amp;x=120&amp;y=120&amp;h=70&amp;outside=0&amp;triangle=20&amp;d1=0&amp;d2=0&amp;d3=0&amp;outsidemounts=0&amp;holedist=0&amp;thickness=2.8&amp;format=svg&amp;tabs=0.0&amp;debug=0&amp;labels=0&amp;labels=1&amp;reference=0&amp;burn=0.1
</dc:description>
      </cc:Work>
    </rdf:RDF>
  </metadata>
  <path
     d="m 3,144.27102 h 6.8 c 0.055,0 0.1,-0.045 0.1,-0.1 v -2.7 c 0,-0.1 -0.1,0 0,0 h 5.4 c 0.1,0 0,-0.1 0,0 v 2.7 c 0,0.055 0.045,0.1 0.1,0.1 H 21 c 0.055,0 0.1,-0.045 0.1,-0.1 v -2.7 c 0,-0.1 -0.1,0 0,0 h 5.4 c 0.1,0 0,-0.1 0,0 v 2.7 c 0,0.055 0.045,0.1 0.1,0.1 h 5.6 c 0.055,0 0.1,-0.045 0.1,-0.1 v -2.7 c 0,-0.1 -0.1,0 0,0 h 5.4 c 0.1,0 0,-0.1 0,0 v 2.7 c 0,0.055 0.045,0.1 0.1,0.1 h 5.6 c 0.055,0 0.1,-0.045 0.1,-0.1 v -2.7 c 0,-0.1 -0.1,0 0,0 h 5.4 c 0.1,0 0,-0.1 0,0 v 2.7 c 0,0.055 0.045,0.1 0.1,0.1 h 5.6 c 0.055,0 0.1,-0.045 0.1,-0.1 v -2.7 c 0,-0.1 -0.1,0 0,0 h 5.4 c 0.1,0 0,-0.1 0,0 v 2.7 c 0,0.055 0.045,0.1 0.1,0.1 h 5.6 c 0.055,0 0.1,-0.045 0.1,-0.1 v -2.7 c 0,-0.1 -0.1,0 0,0 h 5.4 c 0.1,0 0,-0.1 0,0 v 2.7 c 0,0.055 0.045,0.1 0.1,0.1 H 77 c 0.055,0 0.1,-0.045 0.1,-0.1 v -2.7 c 0,-0.1 -0.1,0 0,0 h 5.4 c 0.1,0 0,-0.1 0,0 v 2.7 c 0,0.055 0.045,0.1 0.1,0.1 h 5.6 c 0.055,0 0.1,-0.045 0.1,-0.1 v -2.7 c 0,-0.1 -0.1,0 0,0 h 5.4 c 0.1,0 0,-0.1 0,0 v 2.7 c 0,0.055 0.045,0.1 0.1,0.1 h 5.6 c 0.055,0 0.1,-0.045 0.1,-0.1 v -2.7 c 0,-0.1 -0.1,0 0,0 h 5.4 c 0.1,0 0,-0.1 0,0 v 2.7 c 0,0.055 0.045,0.1 0.1,0.1 h 5.6 c 0.055,0 0.1,-0.045 0.1,-0.1 v -2.7 c 0,-0.1 -0.1,0 0,0 h 5.4 c 0.1,0 0,-0.1 0,0 v 2.7 c 0,0.055 0.045,0.1 0.1,0.1 h 6.8 2.8 c 0.055,0 0.1,-0.045 0.1,-0.1 v -2.8 -6.8 c 0,-0.055 -0.045,-0.1 -0.1,-0.1 h -2.7 c -0.1,0 0,0.1 0,0 v -5.4 c 0,-0.1 -0.1,0 0,0 h 2.7 c 0.055,0 0.1,-0.045 0.1,-0.1 v -5.6 c 0,-0.055 -0.045,-0.1 -0.1,-0.1 h -2.7 c -0.1,0 0,0.1 0,0 v -5.4 c 0,-0.1 -0.1,0 0,0 h 2.7 c 0.055,0 0.1,-0.045 0.1,-0.1 v -5.6 c 0,-0.055 -0.045,-0.1 -0.1,-0.1 h -2.7 c -0.1,0 0,0.1 0,0 v -5.4 c 0,-0.1 -0.1,0 0,0 h 2.7 c 0.055,0 0.1,-0.045 0.1,-0.1 v -5.6 c 0,-0.055 -0.045,-0.1 -0.1,-0.1 h -2.7 c -0.1,0 0,0.1 0,0 v -5.400003 c 0,-0.1 -0.1,0 0,0 h 2.7 c 0.055,0 0.1,-0.045 0.1,-0.1 v -5.6 c 0,-0.055 -0.045,-0.1 -0.1,-0.1 h -2.7 c -0.1,0 0,0.1 0,0 v -5.4 c 0,-0.1 -0.1,0 0,0 h 2.7 c 0.055,0 0.1,-0.045 0.1,-0.1 v -5.6 c 0,-0.055 -0.045,-0.1 -0.1,-0.1 h -2.7 c -0.1,0 0,0.1 0,0 v -5.4 c 0,-0.1 -0.1,0 0,0 h 2.7 c 0.055,0 0.1,-0.045 0.1,-0.1 v -5.6 c 0,-0.055 -0.045,-0.1 -0.1,-0.1 h -2.7 c -0.1,0 0,0.1 0,0 v -5.4 c 0,-0.1 -0.1,0 0,0 h 2.7 c 0.055,0 0.1,-0.045 0.1,-0.1 v -5.6 c 0,-0.055 -0.045,-0.1 -0.1,-0.1 h -2.7 c -0.1,0 0,0.1 0,0 v -5.4 c 0,-0.1 -0.1,0 0,0 h 2.7 c 0.055,0 0.1,-0.045 0.1,-0.1 v -5.6 c 0,-0.055 -0.045,-0.1 -0.1,-0.1 h -2.7 c -0.1,0 0,0.1 0,0 v -5.4 c 0,-0.1 -0.1,0 0,0 h 2.7 c 0.055,0 0.1,-0.045 0.1,-0.1 v -5.6 c 0,-0.055 -0.045,-0.1 -0.1,-0.1 h -2.7 c -0.1,0 0,0.1 0,0 v -5.4 c 0,-0.1 -0.1,0 0,0 h 2.7 c 0.055,0 0.1,-0.045 0.1,-0.1 v -6.8 -2.8 c 0,-0.055 -0.045,-0.1 -0.1,-0.1 h -2.8 -6.8 c -0.055,0 -0.1,0.045 -0.1,0.1 v 2.7 c 0,0.1 0.1,0 0,0 h -5.4 c -0.1,0 0,0.1 0,0 v -2.7 c 0,-0.055 -0.045,-0.1 -0.1,-0.1 H 105 c -0.055,0 -0.1,0.045 -0.1,0.1 v 2.7 c 0,0.1 0.1,0 0,0 h -5.4 c -0.1,0 0,0.1 0,0 v -2.7 c 0,-0.055 -0.045,-0.1 -0.1,-0.1 h -5.6 c -0.055,0 -0.1,0.045 -0.1,0.1 v 2.7 c 0,0.1 0.1,0 0,0 h -5.4 c -0.1,0 0,0.1 0,0 v -2.7 c 0,-0.055 -0.045,-0.1 -0.1,-0.1 h -5.6 c -0.055,0 -0.1,0.045 -0.1,0.1 v 2.7 c 0,0.1 0.1,0 0,0 h -5.4 c -0.1,0 0,0.1 0,0 v -2.7 c 0,-0.055 -0.045,-0.1 -0.1,-0.1 h -5.6 c -0.055,0 -0.1,0.045 -0.1,0.1 v 2.7 c 0,0.1 0.1,0 0,0 h -5.4 c -0.1,0 0,0.1 0,0 v -2.7 c 0,-0.055 -0.045,-0.1 -0.1,-0.1 h -5.6 c -0.055,0 -0.1,0.045 -0.1,0.1 v 2.7 c 0,0.1 0.1,0 0,0 h -5.4 c -0.1,0 0,0.1 0,0 v -2.7 c 0,-0.055 -0.045,-0.1 -0.1,-0.1 H 49 c -0.055,0 -0.1,0.045 -0.1,0.1 v 2.7 c 0,0.1 0.1,0 0,0 h -5.4 c -0.1,0 0,0.1 0,0 v -2.7 c 0,-0.055 -0.045,-0.1 -0.1,-0.1 h -5.6 c -0.055,0 -0.1,0.045 -0.1,0.1 v 2.7 c 0,0.1 0.1,0 0,0 h -5.4 c -0.1,0 0,0.1 0,0 v -2.7 c 0,-0.055 -0.045,-0.1 -0.1,-0.1 h -5.6 c -0.055,0 -0.1,0.045 -0.1,0.1 v 2.7 c 0,0.1 0.1,0 0,0 h -5.4 c -0.1,0 0,0.1 0,0 v -2.7 c 0,-0.055 -0.045,-0.1 -0.1,-0.1 h -5.6 c -0.055,0 -0.1,0.045 -0.1,0.1 v 2.7 c 0,0.1 0.1,0 0,0 H 9.9 c -0.1,0 0,0.1 0,0 v -2.7 c 0,-0.055 -0.045,-0.1 -0.1,-0.1 H 3 0.2 c -0.055,0 -0.1,0.045 -0.1,0.1 v 2.8 6.8 c 0,0.055 0.045,0.1 0.1,0.1 h 2.7 c 0.1,0 0,-0.1 0,0 v 5.4 c 0,0.1 0.1,0 0,0 H 0.2 c -0.055,0 -0.1,0.045 -0.1,0.1 v 5.6 c 0,0.055 0.045,0.1 0.1,0.1 h 2.7 c 0.1,0 0,-0.1 0,0 v 5.4 c 0,0.1 0.1,0 0,0 H 0.2 c -0.055,0 -0.1,0.045 -0.1,0.1 v 5.6 c 0,0.055 0.045,0.1 0.1,0.1 h 2.7 c 0.1,0 0,-0.1 0,0 v 5.4 c 0,0.1 0.1,0 0,0 H 0.2 c -0.055,0 -0.1,0.045 -0.1,0.1 v 5.6 c 0,0.055 0.045,0.1 0.1,0.1 h 2.7 c 0.1,0 0,-0.1 0,0 v 5.4 c 0,0.1 0.1,0 0,0 H 0.2 c -0.055,0 -0.1,0.045 -0.1,0.1 v 5.6 c 0,0.055 0.045,0.1 0.1,0.1 h 2.7 c 0.1,0 0,-0.1 0,0 v 5.4 c 0,0.1 0.1,0 0,0 H 0.2 c -0.055,0 -0.1,0.045 -0.1,0.1 v 5.6 c 0,0.055 0.045,0.1 0.1,0.1 h 2.7 c 0.1,0 0,-0.1 0,0 v 5.4 c 0,0.1 0.1,0 0,0 H 0.2 c -0.055,0 -0.1,0.045 -0.1,0.1 v 5.6 c 0,0.055 0.045,0.1 0.1,0.1 h 2.7 c 0.1,0 0,-0.1 0,0 v 5.400003 c 0,0.1 0.1,0 0,0 H 0.2 c -0.055,0 -0.1,0.045 -0.1,0.1 v 5.6 c 0,0.055 0.045,0.1 0.1,0.1 h 2.7 c 0.1,0 0,-0.1 0,0 v 5.4 c 0,0.1 0.1,0 0,0 H 0.2 c -0.055,0 -0.1,0.045 -0.1,0.1 v 5.6 c 0,0.055 0.045,0.1 0.1,0.1 h 2.7 c 0.1,0 0,-0.1 0,0 v 5.4 c 0,0.1 0.1,0 0,0 H 0.2 c -0.055,0 -0.1,0.045 -0.1,0.1 v 5.6 c 0,0.055 0.045,0.1 0.1,0.1 h 2.7 c 0.1,0 0,-0.1 0,0 v 5.4 c 0,0.1 0.1,0 0,0 H 0.2 c -0.055,0 -0.1,0.045 -0.1,0.1 v 6.8 2.8 c 0,0.055 0.045,0.1 0.1,0.1 H 3"
     stroke="rgb(0,0,0)"
     stroke-width="0.2"
     id="path44"
     style="fill:none;stroke:#ff0000;stroke-linecap:round;stroke-linejoin:round" />
  <path
     d="m 127.4,144.27102 h 120 c 0.055,0 0.1,-0.045 0.1,-0.1 V 24.171017 c 0,-0.055 -0.045,-0.1 -0.1,-0.1 h -120 c -0.055,0 -0.1,0.045 -0.1,0.1 V 144.17102 c 0,0.055 0.045,0.1 0.1,0.1"
     stroke="rgb(0,0,0)"
     stroke-width="0.2"
     id="path49"
     style="fill:none;stroke:#ff0000;stroke-linecap:round;stroke-linejoin:round" />
  <g
     id="g947"
     transform="translate(-9.9,-11.928983)"
     style="stroke:#ff0000">
    <path
       d="m 168.52202,32.228983 h 7.1 c 0.1,0 0,-0.1 0,0 v 2.7 c 0,0.055 0.045,0.1 0.1,0.1 h 5.6 c 0.056,0 0.1,-0.045 0.1,-0.1 v -2.7 c 0,-0.1 -0.1,0 0,0 h 7.1 c 0.056,0 0.1,-0.045 0.1,-0.1 v -7.1 c 0,-0.1 -0.1,0 0,0 h 2.7 c 0.056,0 0.1,-0.045 0.1,-0.1 v -5.6 c 0,-0.055 -0.044,-0.1 -0.1,-0.1 h -2.7 c -0.1,0 0,0.1 0,0 v -7.1 c 0,-0.055 -0.044,-0.1 -0.1,-0.1 -0.026,0 -0.051,0.011 -0.07,0.029 l -20,20 c -0.019,0.019 -0.03,0.044 -0.03,0.071 0,0.055 0.045,0.1 0.1,0.1 z"
       stroke="#000000"
       stroke-width="0.2"
       id="path52"
       style="fill:none;stroke:#ff0000;stroke-linecap:round;stroke-linejoin:round" />
    <path
       d="m 182.06434,14.828983 h -7.1 c -0.1,0 0,0.1 0,0 v -2.7 c 0,-0.055 -0.045,-0.1 -0.1,-0.1 h -5.6 c -0.055,0 -0.1,0.045 -0.1,0.1 v 2.7 c 0,0.1 0.1,0 0,0 h -7.1 c -0.055,0 -0.1,0.045 -0.1,0.1 v 7.1 c 0,0.1 0.1,0 0,0 h -2.7 c -0.055,0 -0.1,0.045 -0.1,0.1 v 5.6 c 0,0.055 0.045,0.1 0.1,0.1 h 2.7 c 0.1,0 0,-0.1 0,0 v 7.1 c 0,0.055 0.045,0.1 0.1,0.1 0.027,0 0.052,-0.011 0.071,-0.029 l 20,-20 c 0.018,-0.019 0.029,-0.044 0.029,-0.071 0,-0.055 -0.045,-0.1 -0.1,-0.1 z"
       stroke="#000000"
       stroke-width="0.2"
       id="path54"
       style="fill:none;stroke:#ff0000;stroke-linecap:round;stroke-linejoin:round" />
    <path
       d="m 202.91245,32.228982 h 7.1 c 0.1,0 0,-0.1 0,0 v 2.7 c 0,0.055 0.045,0.1 0.1,0.1 h 5.6 c 0.055,0 0.1,-0.045 0.1,-0.1 v -2.7 c 0,-0.1 -0.1,0 0,0 h 7.1 c 0.055,0 0.1,-0.045 0.1,-0.1 v -7.1 c 0,-0.1 -0.1,0 0,0 h 2.7 c 0.055,0 0.1,-0.045 0.1,-0.1 v -5.6 c 0,-0.055 -0.045,-0.1 -0.1,-0.1 h -2.7 c -0.1,0 0,0.1 0,0 v -7.099999 c 0,-0.055 -0.045,-0.1 -0.1,-0.1 -0.027,0 -0.052,0.011 -0.071,0.029 l -20,19.999999 c -0.018,0.019 -0.029,0.044 -0.029,0.071 0,0.055 0.045,0.1 0.1,0.1 z"
       stroke="#000000"
       stroke-width="0.2"
       id="path56"
       style="fill:none;stroke:#ff0000;stroke-linecap:round;stroke-linejoin:round" />
    <path
       d="m 216.98396,14.828983 h -7.1 c -0.1,0 0,0.1 0,0 v -2.7 c 0,-0.055 -0.044,-0.1 -0.1,-0.1 h -5.6 c -0.055,0 -0.1,0.045 -0.1,0.1 v 2.7 c 0,0.1 0.1,0 0,0 h -7.1 c -0.055,0 -0.1,0.045 -0.1,0.1 v 7.1 c 0,0.1 0.1,0 0,0 h -2.7 c -0.055,0 -0.1,0.045 -0.1,0.1 v 5.6 c 0,0.055 0.045,0.1 0.1,0.1 h 2.7 c 0.1,0 0,-0.1 0,0 v 7.1 c 0,0.055 0.045,0.1 0.1,0.1 0.027,0 0.052,-0.011 0.071,-0.029 l 20,-20 c 0.019,-0.019 0.029,-0.044 0.029,-0.071 0,-0.055 -0.044,-0.1 -0.1,-0.1 z"
       stroke="#000000"
       stroke-width="0.2"
       id="path58"
       style="fill:none;stroke:#ff0000;stroke-linecap:round;stroke-linejoin:round" />
  </g>
  <text
     alignment-baseline="hanging"
     font-size="4px"
     style="font-style:normal;font-weight:normal;font-family:sans-serif;fill:none;stroke:#ff0000;stroke-linecap:round;stroke-linejoin:round"
     text-anchor="middle"
     id="text60"
     x="165.1622"
     y="5.8189073" />
  <g
     id="g744"
     transform="translate(-9.9,-11.928983)"
     style="stroke:#ff0000">
    <g
       id="g413"
       style="stroke:#ff0000">
      <path
         d="m 22.9,163.2 h -2.7 c -0.1,0 0,0.1 0,0 v -2.6 c 0,-0.1 -0.1,0 0,0 h 5.4 c 0.1,0 0,-0.1 0,0 v 2.6 c 0,0.1 0.1,0 0,0 z"
         stroke="rgb(0,0,255)"
         stroke-width="0.2"
         id="path33"
         style="fill:none;stroke:#ff0000;stroke-linecap:round;stroke-linejoin:round" />
      <path
         d="m 122.9,160.6 h 2.7 c 0.1,0 0,-0.1 0,0 v 2.6 c 0,0.1 0.1,0 0,0 h -5.4 c -0.1,0 0,0.1 0,0 v -2.6 c 0,-0.1 -0.1,0 0,0 z"
         stroke="rgb(0,0,255)"
         stroke-width="0.2"
         id="path35"
         style="fill:none;stroke:#ff0000;stroke-linecap:round;stroke-linejoin:round" />
      <path
         d="m 12.9,233.4 h 6.7 c 0.1,0 0,-0.1 0,0 v 2.7 c 0,0.055 0.045,0.1 0.1,0.1 h 5.6 c 0.055,0 0.1,-0.045 0.1,-0.1 v -2.7 c 0,-0.1 -0.1,0 0,0 h 5.4 c 0.1,0 0,-0.1 0,0 v 2.7 c 0,0.055 0.045,0.1 0.1,0.1 h 5.6 c 0.055,0 0.1,-0.045 0.1,-0.1 v -2.7 c 0,-0.1 -0.1,0 0,0 H 42 c 0.1,0 0,-0.1 0,0 v 2.7 c 0,0.055 0.045,0.1 0.1,0.1 h 5.6 c 0.055,0 0.1,-0.045 0.1,-0.1 v -2.7 c 0,-0.1 -0.1,0 0,0 h 5.4 c 0.1,0 0,-0.1 0,0 v 2.7 c 0,0.055 0.045,0.1 0.1,0.1 h 5.6 c 0.055,0 0.1,-0.045 0.1,-0.1 v -2.7 c 0,-0.1 -0.1,0 0,0 h 5.4 c 0.1,0 0,-0.1 0,0 v 2.7 c 0,0.055 0.045,0.1 0.1,0.1 h 5.6 c 0.055,0 0.1,-0.045 0.1,-0.1 v -2.7 c 0,-0.1 -0.1,0 0,0 h 5.4 c 0.1,0 0,-0.1 0,0 v 2.7 c 0,0.055 0.045,0.1 0.1,0.1 h 5.6 c 0.055,0 0.1,-0.045 0.1,-0.1 v -2.7 c 0,-0.1 -0.1,0 0,0 h 5.4 c 0.1,0 0,-0.1 0,0 v 2.7 c 0,0.055 0.045,0.1 0.1,0.1 h 5.6 c 0.055,0 0.1,-0.045 0.1,-0.1 v -2.7 c 0,-0.1 -0.1,0 0,0 H 98 c 0.1,0 0,-0.1 0,0 v 2.7 c 0,0.055 0.045,0.1 0.1,0.1 h 5.6 c 0.055,0 0.1,-0.045 0.1,-0.1 v -2.7 c 0,-0.1 -0.1,0 0,0 h 5.4 c 0.1,0 0,-0.1 0,0 v 2.7 c 0,0.055 0.045,0.1 0.1,0.1 h 5.6 c 0.055,0 0.1,-0.045 0.1,-0.1 v -2.7 c 0,-0.1 -0.1,0 0,0 h 5.4 c 0.1,0 0,-0.1 0,0 v 2.7 c 0,0.055 0.045,0.1 0.1,0.1 h 5.6 c 0.055,0 0.1,-0.045 0.1,-0.1 v -2.7 c 0,-0.1 -0.1,0 0,0 h 6.7 2.8 c 0.055,0 0.1,-0.045 0.1,-0.1 v -7 c 0,-0.055 -0.045,-0.1 -0.1,-0.1 H 133 c -0.1,0 0,0.1 0,0 v -5.4 c 0,-0.1 -0.1,0 0,0 h 2.7 c 0.055,0 0.1,-0.045 0.1,-0.1 v -5.6 c 0,-0.055 -0.045,-0.1 -0.1,-0.1 H 133 c -0.1,0 0,0.1 0,0 v -5.4 c 0,-0.1 -0.1,0 0,0 h 2.7 c 0.055,0 0.1,-0.045 0.1,-0.1 v -5.6 c 0,-0.055 -0.045,-0.1 -0.1,-0.1 H 133 c -0.1,0 0,0.1 0,0 v -5.4 c 0,-0.1 -0.1,0 0,0 h 2.7 c 0.055,0 0.1,-0.045 0.1,-0.1 v -5.6 c 0,-0.055 -0.045,-0.1 -0.1,-0.1 H 133 c -0.1,0 0,0.1 0,0 v -5.4 c 0,-0.1 -0.1,0 0,0 h 2.7 c 0.055,0 0.1,-0.045 0.1,-0.1 v -5.6 c 0,-0.055 -0.045,-0.1 -0.1,-0.1 H 133 c -0.1,0 0,0.1 0,0 V 176 c 0,-0.1 -0.1,0 0,0 h 2.7 c 0.055,0 0.1,-0.045 0.1,-0.1 v -5.6 c 0,-0.055 -0.045,-0.1 -0.1,-0.1 H 133 c -0.1,0 0,0.1 0,0 v -5.4 c 0,-0.1 -0.1,0 0,0 h 2.7 c 0.055,0 0.1,-0.045 0.1,-0.1 v -7 c 0,-0.055 -0.045,-0.1 -0.1,-0.1 h -2.8 -120 -2.8 c -0.055,0 -0.1,0.045 -0.1,0.1 v 7 c 0,0.055 0.045,0.1 0.1,0.1 h 2.7 c 0.1,0 0,-0.1 0,0 v 5.4 c 0,0.1 0.1,0 0,0 h -2.7 c -0.055,0 -0.1,0.045 -0.1,0.1 v 5.6 c 0,0.055 0.045,0.1 0.1,0.1 h 2.7 c 0.1,0 0,-0.1 0,0 v 5.4 c 0,0.1 0.1,0 0,0 h -2.7 c -0.055,0 -0.1,0.045 -0.1,0.1 v 5.6 c 0,0.055 0.045,0.1 0.1,0.1 h 2.7 c 0.1,0 0,-0.1 0,0 v 5.4 c 0,0.1 0.1,0 0,0 h -2.7 c -0.055,0 -0.1,0.045 -0.1,0.1 v 5.6 c 0,0.055 0.045,0.1 0.1,0.1 h 2.7 c 0.1,0 0,-0.1 0,0 v 5.4 c 0,0.1 0.1,0 0,0 h -2.7 c -0.055,0 -0.1,0.045 -0.1,0.1 v 5.6 c 0,0.055 0.045,0.1 0.1,0.1 h 2.7 c 0.1,0 0,-0.1 0,0 v 5.4 c 0,0.1 0.1,0 0,0 h -2.7 c -0.055,0 -0.1,0.045 -0.1,0.1 v 5.6 c 0,0.055 0.045,0.1 0.1,0.1 h 2.7 c 0.1,0 0,-0.1 0,0 v 5.4 c 0,0.1 0.1,0 0,0 h -2.7 c -0.055,0 -0.1,0.045 -0.1,0.1 v 7 c 0,0.055 0.045,0.1 0.1,0.1 h 2.8"
         stroke="rgb(0,0,0)"
         stroke-width="0.2"
         id="path39"
         style="fill:none;stroke:#ff0000;stroke-linecap:round;stroke-linejoin:round" />
    </g>
    <rect
       style="fill:none;stroke:#ff0000;stroke-width:0.167315"
       id="rect176"
       width="25.832685"
       height="4.832685"
       x="59.983658"
       y="221.3694" />
  </g>
  <g
     id="g777"
     transform="translate(-9.9,-11.928983)"
     style="stroke:#ff0000">
    <g
       id="g758"
       style="stroke:#ff0000">
      <path
         d="m 22.9,243.2 h -2.7 c -0.1,0 0,0.1 0,0 v -2.6 c 0,-0.1 -0.1,0 0,0 h 5.4 c 0.1,0 0,-0.1 0,0 v 2.6 c 0,0.1 0.1,0 0,0 z"
         stroke="rgb(0,0,255)"
         stroke-width="0.2"
         id="path6"
         style="fill:none;stroke:#ff0000;stroke-linecap:round;stroke-linejoin:round" />
      <path
         d="m 122.9,240.6 h 2.7 c 0.1,0 0,-0.1 0,0 v 2.6 c 0,0.1 0.1,0 0,0 h -5.4 c -0.1,0 0,0.1 0,0 v -2.6 c 0,-0.1 -0.1,0 0,0 z"
         stroke="rgb(0,0,255)"
         stroke-width="0.2"
         id="path8"
         style="fill:none;stroke:#ff0000;stroke-linecap:round;stroke-linejoin:round" />
      <path
         d="m 12.9,313.4 h 6.7 c 0.1,0 0,-0.1 0,0 v 2.7 c 0,0.055 0.045,0.1 0.1,0.1 h 5.6 c 0.055,0 0.1,-0.045 0.1,-0.1 v -2.7 c 0,-0.1 -0.1,0 0,0 h 5.4 c 0.1,0 0,-0.1 0,0 v 2.7 c 0,0.055 0.045,0.1 0.1,0.1 h 5.6 c 0.055,0 0.1,-0.045 0.1,-0.1 v -2.7 c 0,-0.1 -0.1,0 0,0 H 42 c 0.1,0 0,-0.1 0,0 v 2.7 c 0,0.055 0.045,0.1 0.1,0.1 h 5.6 c 0.055,0 0.1,-0.045 0.1,-0.1 v -2.7 c 0,-0.1 -0.1,0 0,0 h 5.4 c 0.1,0 0,-0.1 0,0 v 2.7 c 0,0.055 0.045,0.1 0.1,0.1 h 5.6 c 0.055,0 0.1,-0.045 0.1,-0.1 v -2.7 c 0,-0.1 -0.1,0 0,0 h 5.4 c 0.1,0 0,-0.1 0,0 v 2.7 c 0,0.055 0.045,0.1 0.1,0.1 h 5.6 c 0.055,0 0.1,-0.045 0.1,-0.1 v -2.7 c 0,-0.1 -0.1,0 0,0 h 5.4 c 0.1,0 0,-0.1 0,0 v 2.7 c 0,0.055 0.045,0.1 0.1,0.1 h 5.6 c 0.055,0 0.1,-0.045 0.1,-0.1 v -2.7 c 0,-0.1 -0.1,0 0,0 h 5.4 c 0.1,0 0,-0.1 0,0 v 2.7 c 0,0.055 0.045,0.1 0.1,0.1 h 5.6 c 0.055,0 0.1,-0.045 0.1,-0.1 v -2.7 c 0,-0.1 -0.1,0 0,0 H 98 c 0.1,0 0,-0.1 0,0 v 2.7 c 0,0.055 0.045,0.1 0.1,0.1 h 5.6 c 0.055,0 0.1,-0.045 0.1,-0.1 v -2.7 c 0,-0.1 -0.1,0 0,0 h 5.4 c 0.1,0 0,-0.1 0,0 v 2.7 c 0,0.055 0.045,0.1 0.1,0.1 h 5.6 c 0.055,0 0.1,-0.045 0.1,-0.1 v -2.7 c 0,-0.1 -0.1,0 0,0 h 5.4 c 0.1,0 0,-0.1 0,0 v 2.7 c 0,0.055 0.045,0.1 0.1,0.1 h 5.6 c 0.055,0 0.1,-0.045 0.1,-0.1 v -2.7 c 0,-0.1 -0.1,0 0,0 h 6.7 2.8 c 0.055,0 0.1,-0.045 0.1,-0.1 v -7 c 0,-0.055 -0.045,-0.1 -0.1,-0.1 H 133 c -0.1,0 0,0.1 0,0 v -5.4 c 0,-0.1 -0.1,0 0,0 h 2.7 c 0.055,0 0.1,-0.045 0.1,-0.1 v -5.6 c 0,-0.055 -0.045,-0.1 -0.1,-0.1 H 133 c -0.1,0 0,0.1 0,0 v -5.4 c 0,-0.1 -0.1,0 0,0 h 2.7 c 0.055,0 0.1,-0.045 0.1,-0.1 v -5.6 c 0,-0.055 -0.045,-0.1 -0.1,-0.1 H 133 c -0.1,0 0,0.1 0,0 v -5.4 c 0,-0.1 -0.1,0 0,0 h 2.7 c 0.055,0 0.1,-0.045 0.1,-0.1 v -5.6 c 0,-0.055 -0.045,-0.1 -0.1,-0.1 H 133 c -0.1,0 0,0.1 0,0 v -5.4 c 0,-0.1 -0.1,0 0,0 h 2.7 c 0.055,0 0.1,-0.045 0.1,-0.1 v -5.6 c 0,-0.055 -0.045,-0.1 -0.1,-0.1 H 133 c -0.1,0 0,0.1 0,0 V 256 c 0,-0.1 -0.1,0 0,0 h 2.7 c 0.055,0 0.1,-0.045 0.1,-0.1 v -5.6 c 0,-0.055 -0.045,-0.1 -0.1,-0.1 H 133 c -0.1,0 0,0.1 0,0 v -5.4 c 0,-0.1 -0.1,0 0,0 h 2.7 c 0.055,0 0.1,-0.045 0.1,-0.1 v -7 c 0,-0.055 -0.045,-0.1 -0.1,-0.1 h -2.8 -120 -2.8 c -0.055,0 -0.1,0.045 -0.1,0.1 v 7 c 0,0.055 0.045,0.1 0.1,0.1 h 2.7 c 0.1,0 0,-0.1 0,0 v 5.4 c 0,0.1 0.1,0 0,0 h -2.7 c -0.055,0 -0.1,0.045 -0.1,0.1 v 5.6 c 0,0.055 0.045,0.1 0.1,0.1 h 2.7 c 0.1,0 0,-0.1 0,0 v 5.4 c 0,0.1 0.1,0 0,0 h -2.7 c -0.055,0 -0.1,0.045 -0.1,0.1 v 5.6 c 0,0.055 0.045,0.1 0.1,0.1 h 2.7 c 0.1,0 0,-0.1 0,0 v 5.4 c 0,0.1 0.1,0 0,0 h -2.7 c -0.055,0 -0.1,0.045 -0.1,0.1 v 5.6 c 0,0.055 0.045,0.1 0.1,0.1 h 2.7 c 0.1,0 0,-0.1 0,0 v 5.4 c 0,0.1 0.1,0 0,0 h -2.7 c -0.055,0 -0.1,0.045 -0.1,0.1 v 5.6 c 0,0.055 0.045,0.1 0.1,0.1 h 2.7 c 0.1,0 0,-0.1 0,0 v 5.4 c 0,0.1 0.1,0 0,0 h -2.7 c -0.055,0 -0.1,0.045 -0.1,0.1 v 5.6 c 0,0.055 0.045,0.1 0.1,0.1 h 2.7 c 0.1,0 0,-0.1 0,0 v 5.4 c 0,0.1 0.1,0 0,0 h -2.7 c -0.055,0 -0.1,0.045 -0.1,0.1 v 7 c 0,0.055 0.045,0.1 0.1,0.1 h 2.8"
         stroke="rgb(0,0,0)"
         stroke-width="0.2"
         id="path12"
         style="fill:none;stroke:#ff0000;stroke-linecap:round;stroke-linejoin:round" />
    </g>
    <rect
       style="fill:none;stroke:#ff0000;stroke-width:0.167315"
       id="rect176-3"
       width="25.832685"
       height="4.832685"
       x="59.983658"
       y="301.36777" />
  </g>
  <g
     id="g770"
     transform="translate(-9.9,-11.928983)"
     style="stroke:#ff0000">
    <g
       id="g763"
       style="stroke:#ff0000">
      <path
         d="m 150.1,243.2 h -2.7 c -0.1,0 0,0.1 0,0 v -2.6 c 0,-0.1 -0.1,0 0,0 h 5.4 c 0.1,0 0,-0.1 0,0 v 2.6 c 0,0.1 0.1,0 0,0 z"
         stroke="rgb(0,0,255)"
         stroke-width="0.2"
         id="path15"
         style="fill:none;stroke:#ff0000;stroke-linecap:round;stroke-linejoin:round" />
      <path
         d="m 250.1,240.6 h 2.7 c 0.1,0 0,-0.1 0,0 v 2.6 c 0,0.1 0.1,0 0,0 h -5.4 c -0.1,0 0,0.1 0,0 v -2.6 c 0,-0.1 -0.1,0 0,0 z"
         stroke="rgb(0,0,255)"
         stroke-width="0.2"
         id="path17"
         style="fill:none;stroke:#ff0000;stroke-linecap:round;stroke-linejoin:round" />
      <path
         d="m 140.1,313.4 h 6.7 c 0.1,0 0,-0.1 0,0 v 2.7 c 0,0.055 0.045,0.1 0.1,0.1 h 5.6 c 0.055,0 0.1,-0.045 0.1,-0.1 v -2.7 c 0,-0.1 -0.1,0 0,0 h 5.4 c 0.1,0 0,-0.1 0,0 v 2.7 c 0,0.055 0.045,0.1 0.1,0.1 h 5.6 c 0.055,0 0.1,-0.045 0.1,-0.1 v -2.7 c 0,-0.1 -0.1,0 0,0 h 5.4 c 0.1,0 0,-0.1 0,0 v 2.7 c 0,0.055 0.045,0.1 0.1,0.1 h 5.6 c 0.055,0 0.1,-0.045 0.1,-0.1 v -2.7 c 0,-0.1 -0.1,0 0,0 h 5.4 c 0.1,0 0,-0.1 0,0 v 2.7 c 0,0.055 0.045,0.1 0.1,0.1 h 5.6 c 0.055,0 0.1,-0.045 0.1,-0.1 v -2.7 c 0,-0.1 -0.1,0 0,0 h 5.4 c 0.1,0 0,-0.1 0,0 v 2.7 c 0,0.055 0.045,0.1 0.1,0.1 h 5.6 c 0.055,0 0.1,-0.045 0.1,-0.1 v -2.7 c 0,-0.1 -0.1,0 0,0 h 5.4 c 0.1,0 0,-0.1 0,0 v 2.7 c 0,0.055 0.045,0.1 0.1,0.1 h 5.6 c 0.055,0 0.1,-0.045 0.1,-0.1 v -2.7 c 0,-0.1 -0.1,0 0,0 h 5.4 c 0.1,0 0,-0.1 0,0 v 2.7 c 0,0.055 0.045,0.1 0.1,0.1 h 5.6 c 0.055,0 0.1,-0.045 0.1,-0.1 v -2.7 c 0,-0.1 -0.1,0 0,0 h 5.4 c 0.1,0 0,-0.1 0,0 v 2.7 c 0,0.055 0.045,0.1 0.1,0.1 h 5.6 c 0.055,0 0.1,-0.045 0.1,-0.1 v -2.7 c 0,-0.1 -0.1,0 0,0 h 5.4 c 0.1,0 0,-0.1 0,0 v 2.7 c 0,0.055 0.045,0.1 0.1,0.1 h 5.6 c 0.055,0 0.1,-0.045 0.1,-0.1 v -2.7 c 0,-0.1 -0.1,0 0,0 h 5.4 c 0.1,0 0,-0.1 0,0 v 2.7 c 0,0.055 0.045,0.1 0.1,0.1 h 5.6 c 0.055,0 0.1,-0.045 0.1,-0.1 v -2.7 c 0,-0.1 -0.1,0 0,0 h 6.7 c 0.055,0 0.1,-0.045 0.1,-0.1 v -6.9 c 0,-0.1 -0.1,0 0,0 h 2.7 c 0.055,0 0.1,-0.045 0.1,-0.1 v -5.6 c 0,-0.055 -0.045,-0.1 -0.1,-0.1 h -2.7 c -0.1,0 0,0.1 0,0 v -5.4 c 0,-0.1 -0.1,0 0,0 h 2.7 c 0.055,0 0.1,-0.045 0.1,-0.1 v -5.6 c 0,-0.055 -0.045,-0.1 -0.1,-0.1 h -2.7 c -0.1,0 0,0.1 0,0 V 284 c 0,-0.1 -0.1,0 0,0 h 2.7 c 0.055,0 0.1,-0.045 0.1,-0.1 v -5.6 c 0,-0.055 -0.045,-0.1 -0.1,-0.1 h -2.7 c -0.1,0 0,0.1 0,0 v -5.4 c 0,-0.1 -0.1,0 0,0 h 2.7 c 0.055,0 0.1,-0.045 0.1,-0.1 v -5.6 c 0,-0.055 -0.045,-0.1 -0.1,-0.1 h -2.7 c -0.1,0 0,0.1 0,0 v -5.4 c 0,-0.1 -0.1,0 0,0 h 2.7 c 0.055,0 0.1,-0.045 0.1,-0.1 v -5.6 c 0,-0.055 -0.045,-0.1 -0.1,-0.1 h -2.7 c -0.1,0 0,0.1 0,0 v -5.4 c 0,-0.1 -0.1,0 0,0 h 2.7 c 0.055,0 0.1,-0.045 0.1,-0.1 v -5.6 c 0,-0.055 -0.045,-0.1 -0.1,-0.1 h -2.7 c -0.1,0 0,0.1 0,0 v -6.9 c 0,-0.055 -0.045,-0.1 -0.1,-0.1 h -120 c -0.055,0 -0.1,0.045 -0.1,0.1 v 6.9 c 0,0.1 0.1,0 0,0 h -2.7 c -0.055,0 -0.1,0.045 -0.1,0.1 v 5.6 c 0,0.055 0.045,0.1 0.1,0.1 h 2.7 c 0.1,0 0,-0.1 0,0 v 5.4 c 0,0.1 0.1,0 0,0 h -2.7 c -0.055,0 -0.1,0.045 -0.1,0.1 v 5.6 c 0,0.055 0.045,0.1 0.1,0.1 h 2.7 c 0.1,0 0,-0.1 0,0 v 5.4 c 0,0.1 0.1,0 0,0 h -2.7 c -0.055,0 -0.1,0.045 -0.1,0.1 v 5.6 c 0,0.055 0.045,0.1 0.1,0.1 h 2.7 c 0.1,0 0,-0.1 0,0 v 5.4 c 0,0.1 0.1,0 0,0 h -2.7 c -0.055,0 -0.1,0.045 -0.1,0.1 v 5.6 c 0,0.055 0.045,0.1 0.1,0.1 h 2.7 c 0.1,0 0,-0.1 0,0 v 5.4 c 0,0.1 0.1,0 0,0 h -2.7 c -0.055,0 -0.1,0.045 -0.1,0.1 v 5.6 c 0,0.055 0.045,0.1 0.1,0.1 h 2.7 c 0.1,0 0,-0.1 0,0 v 5.4 c 0,0.1 0.1,0 0,0 h -2.7 c -0.055,0 -0.1,0.045 -0.1,0.1 v 5.6 c 0,0.055 0.045,0.1 0.1,0.1 h 2.7 c 0.1,0 0,-0.1 0,0 v 6.9 c 0,0.055 0.045,0.1 0.1,0.1"
         stroke="rgb(0,0,0)"
         stroke-width="0.2"
         id="path21"
         style="fill:none;stroke:#ff0000;stroke-linecap:round;stroke-linejoin:round" />
    </g>
    <rect
       style="fill:none;stroke:#ff0000;stroke-width:0.167315"
       id="rect176-6"
       width="25.832685"
       height="4.832685"
       x="187.18365"
       y="301.36777" />
  </g>
  <g
     id="g751"
     transform="translate(-34.770843,-11.928983)"
     style="stroke:#ff0000">
    <g
       id="g511"
       transform="translate(24.676253)"
       style="stroke:#ff0000">
      <path
         d="m 150.1,163.2 h -2.7 c -0.1,0 0,0.1 0,0 v -2.6 c 0,-0.1 -0.1,0 0,0 h 5.4 c 0.1,0 0,-0.1 0,0 v 2.6 c 0,0.1 0.1,0 0,0 z"
         stroke="rgb(0,0,255)"
         stroke-width="0.2"
         id="path24"
         style="fill:none;stroke:#ff0000;stroke-linecap:round;stroke-linejoin:round" />
      <path
         d="m 250.1,160.6 h 2.7 c 0.1,0 0,-0.1 0,0 v 2.6 c 0,0.1 0.1,0 0,0 h -5.4 c -0.1,0 0,0.1 0,0 v -2.6 c 0,-0.1 -0.1,0 0,0 z"
         stroke="rgb(0,0,255)"
         stroke-width="0.2"
         id="path26"
         style="fill:none;stroke:#ff0000;stroke-linecap:round;stroke-linejoin:round" />
      <path
         d="m 140.1,233.4 h 6.7 c 0.1,0 0,-0.1 0,0 v 2.7 c 0,0.055 0.045,0.1 0.1,0.1 h 5.6 c 0.055,0 0.1,-0.045 0.1,-0.1 v -2.7 c 0,-0.1 -0.1,0 0,0 h 5.4 c 0.1,0 0,-0.1 0,0 v 2.7 c 0,0.055 0.045,0.1 0.1,0.1 h 5.6 c 0.055,0 0.1,-0.045 0.1,-0.1 v -2.7 c 0,-0.1 -0.1,0 0,0 h 5.4 c 0.1,0 0,-0.1 0,0 v 2.7 c 0,0.055 0.045,0.1 0.1,0.1 h 5.6 c 0.055,0 0.1,-0.045 0.1,-0.1 v -2.7 c 0,-0.1 -0.1,0 0,0 h 5.4 c 0.1,0 0,-0.1 0,0 v 2.7 c 0,0.055 0.045,0.1 0.1,0.1 h 5.6 c 0.055,0 0.1,-0.045 0.1,-0.1 v -2.7 c 0,-0.1 -0.1,0 0,0 h 5.4 c 0.1,0 0,-0.1 0,0 v 2.7 c 0,0.055 0.045,0.1 0.1,0.1 h 5.6 c 0.055,0 0.1,-0.045 0.1,-0.1 v -2.7 c 0,-0.1 -0.1,0 0,0 h 5.4 c 0.1,0 0,-0.1 0,0 v 2.7 c 0,0.055 0.045,0.1 0.1,0.1 h 5.6 c 0.055,0 0.1,-0.045 0.1,-0.1 v -2.7 c 0,-0.1 -0.1,0 0,0 h 5.4 c 0.1,0 0,-0.1 0,0 v 2.7 c 0,0.055 0.045,0.1 0.1,0.1 h 5.6 c 0.055,0 0.1,-0.045 0.1,-0.1 v -2.7 c 0,-0.1 -0.1,0 0,0 h 5.4 c 0.1,0 0,-0.1 0,0 v 2.7 c 0,0.055 0.045,0.1 0.1,0.1 h 5.6 c 0.055,0 0.1,-0.045 0.1,-0.1 v -2.7 c 0,-0.1 -0.1,0 0,0 h 5.4 c 0.1,0 0,-0.1 0,0 v 2.7 c 0,0.055 0.045,0.1 0.1,0.1 h 5.6 c 0.055,0 0.1,-0.045 0.1,-0.1 v -2.7 c 0,-0.1 -0.1,0 0,0 h 5.4 c 0.1,0 0,-0.1 0,0 v 2.7 c 0,0.055 0.045,0.1 0.1,0.1 h 5.6 c 0.055,0 0.1,-0.045 0.1,-0.1 v -2.7 c 0,-0.1 -0.1,0 0,0 h 6.7 c 0.055,0 0.1,-0.045 0.1,-0.1 v -6.9 c 0,-0.1 -0.1,0 0,0 h 2.7 c 0.055,0 0.1,-0.045 0.1,-0.1 v -5.6 c 0,-0.055 -0.045,-0.1 -0.1,-0.1 h -2.7 c -0.1,0 0,0.1 0,0 v -5.4 c 0,-0.1 -0.1,0 0,0 h 2.7 c 0.055,0 0.1,-0.045 0.1,-0.1 v -5.6 c 0,-0.055 -0.045,-0.1 -0.1,-0.1 h -2.7 c -0.1,0 0,0.1 0,0 V 204 c 0,-0.1 -0.1,0 0,0 h 2.7 c 0.055,0 0.1,-0.045 0.1,-0.1 v -5.6 c 0,-0.055 -0.045,-0.1 -0.1,-0.1 h -2.7 c -0.1,0 0,0.1 0,0 v -5.4 c 0,-0.1 -0.1,0 0,0 h 2.7 c 0.055,0 0.1,-0.045 0.1,-0.1 v -5.6 c 0,-0.055 -0.045,-0.1 -0.1,-0.1 h -2.7 c -0.1,0 0,0.1 0,0 v -5.4 c 0,-0.1 -0.1,0 0,0 h 2.7 c 0.055,0 0.1,-0.045 0.1,-0.1 v -5.6 c 0,-0.055 -0.045,-0.1 -0.1,-0.1 h -2.7 c -0.1,0 0,0.1 0,0 v -5.4 c 0,-0.1 -0.1,0 0,0 h 2.7 c 0.055,0 0.1,-0.045 0.1,-0.1 v -5.6 c 0,-0.055 -0.045,-0.1 -0.1,-0.1 h -2.7 c -0.1,0 0,0.1 0,0 v -6.9 c 0,-0.055 -0.045,-0.1 -0.1,-0.1 h -120 c -0.055,0 -0.1,0.045 -0.1,0.1 v 6.9 c 0,0.1 0.1,0 0,0 h -2.7 c -0.055,0 -0.1,0.045 -0.1,0.1 v 5.6 c 0,0.055 0.045,0.1 0.1,0.1 h 2.7 c 0.1,0 0,-0.1 0,0 v 5.4 c 0,0.1 0.1,0 0,0 h -2.7 c -0.055,0 -0.1,0.045 -0.1,0.1 v 5.6 c 0,0.055 0.045,0.1 0.1,0.1 h 2.7 c 0.1,0 0,-0.1 0,0 v 5.4 c 0,0.1 0.1,0 0,0 h -2.7 c -0.055,0 -0.1,0.045 -0.1,0.1 v 5.6 c 0,0.055 0.045,0.1 0.1,0.1 h 2.7 c 0.1,0 0,-0.1 0,0 v 5.4 c 0,0.1 0.1,0 0,0 h -2.7 c -0.055,0 -0.1,0.045 -0.1,0.1 v 5.6 c 0,0.055 0.045,0.1 0.1,0.1 h 2.7 c 0.1,0 0,-0.1 0,0 v 5.4 c 0,0.1 0.1,0 0,0 h -2.7 c -0.055,0 -0.1,0.045 -0.1,0.1 v 5.6 c 0,0.055 0.045,0.1 0.1,0.1 h 2.7 c 0.1,0 0,-0.1 0,0 v 5.4 c 0,0.1 0.1,0 0,0 h -2.7 c -0.055,0 -0.1,0.045 -0.1,0.1 v 5.6 c 0,0.055 0.045,0.1 0.1,0.1 h 2.7 c 0.1,0 0,-0.1 0,0 v 6.9 c 0,0.055 0.045,0.1 0.1,0.1"
         stroke="rgb(0,0,0)"
         stroke-width="0.2"
         id="path30"
         style="fill:none;stroke:#ff0000;stroke-linecap:round;stroke-linejoin:round" />
    </g>
    <rect
       style="fill:none;stroke:#ff0000;stroke-width:0.167315"
       id="rect176-7"
       width="25.832685"
       height="4.832685"
       x="211.85991"
       y="221.3694" />
  </g>
  <circle
     style="fill:none;stroke:#ff0000;stroke-width:0.361793"
     id="path1010"
     cx="187.39999"
     cy="84.171021"
     r="42.819103" />
</svg>
