<?xml version="1.0" encoding="UTF-8" standalone="no"?>
<svg
   height="250.24416mm"
   viewBox="0 0 222.06591 250.24416"
   width="222.06592mm"
   version="1.1"
   id="svg63"
   sodipodi:docname="ElectronicsBox.svg"
   inkscape:version="1.1 (c68e22c387, 2021-05-23)"
   xmlns:inkscape="http://www.inkscape.org/namespaces/inkscape"
   xmlns:sodipodi="http://sodipodi.sourceforge.net/DTD/sodipodi-0.dtd"
   xmlns="http://www.w3.org/2000/svg"
   xmlns:svg="http://www.w3.org/2000/svg"
   xmlns:rdf="http://www.w3.org/1999/02/22-rdf-syntax-ns#"
   xmlns:cc="http://creativecommons.org/ns#"
   xmlns:dc="http://purl.org/dc/elements/1.1/">
  <defs
     id="defs67" />
  <sodipodi:namedview
     id="namedview65"
     pagecolor="#ffffff"
     bordercolor="#666666"
     borderopacity="1.0"
     inkscape:pageshadow="2"
     inkscape:pageopacity="0.0"
     inkscape:pagecheckerboard="0"
     inkscape:document-units="mm"
     showgrid="false"
     showguides="true"
     fit-margin-top="0"
     fit-margin-left="0"
     fit-margin-right="0"
     fit-margin-bottom="0"
     inkscape:zoom="0.69881996"
     inkscape:cx="573.10899"
     inkscape:cy="707.62146"
     inkscape:window-width="1551"
     inkscape:window-height="836"
     inkscape:window-x="0"
     inkscape:window-y="27"
     inkscape:window-maximized="1"
     inkscape:current-layer="svg63"
     inkscape:guide-bbox="true">
    <sodipodi:guide
       position="12.816097,37.867912"
       orientation="1,0"
       id="guide470" />
    <sodipodi:guide
       position="126.04285,34.462968"
       orientation="1,0"
       id="guide472" />
    <sodipodi:guide
       position="10.755078,10.040811"
       orientation="0,-1"
       id="guide474" />
    <sodipodi:guide
       position="105.65559,56.346043"
       orientation="0,-1"
       id="guide505" />
    <sodipodi:guide
       position="105.87059,102.85346"
       orientation="0,-1"
       id="guide507" />
  </sodipodi:namedview>
  <!--
ElectronicsBox - Closed box with screw on top and mounting holes

Created with Boxes.py (https://festi.info/boxes.py)
Creation date: 2021-09-21 08:59:19
Command line (remove spaces between dashes): boxes ElectronicsBox - -FingerJoint_angle=90.0 - -FingerJoint_style=rectangular - -FingerJoint_surroundingspaces=2.0 - -FingerJoint_edge_width=1.0 - -FingerJoint_finger=2.0 - -FingerJoint_play=0.0 - -FingerJoint_space=2.0 - -FingerJoint_width=1.0 - -x=110.0 - -y=110.0 - -h=45.0 - -outside=0 - -outside=1 - -triangle=25.0 - -d1=0 - -d2=0 - -d3=0 - -outsidemounts=0 - -holedist=7.0 - -thickness=2.8 - -format=svg - -tabs=0.0 - -debug=0 - -labels=0 - -labels=1 - -reference=0 - -burn=0.1
Url: http://www.festi.info/ElectronicsBox?FingerJoint_angle=90.0&FingerJoint_style=rectangular&FingerJoint_surroundingspaces=2.0&FingerJoint_edge_width=1.0&FingerJoint_finger=2.0&FingerJoint_play=0.0&FingerJoint_space=2.0&FingerJoint_width=1.0&x=110.0&y=110.0&h=45.0&outside=0&outside=1&triangle=25.0&d1=0&d2=0&d3=0&outsidemounts=0&holedist=7.0&thickness=2.8&format=svg&tabs=0.0&debug=0&labels=0&labels=1&reference=0&burn=0.1&render=1
SettingsUrl: http://www.festi.info/ElectronicsBox?FingerJoint_angle=90.0&FingerJoint_style=rectangular&FingerJoint_surroundingspaces=2.0&FingerJoint_edge_width=1.0&FingerJoint_finger=2.0&FingerJoint_play=0.0&FingerJoint_space=2.0&FingerJoint_width=1.0&x=110.0&y=110.0&h=45.0&outside=0&outside=1&triangle=25.0&d1=0&d2=0&d3=0&outsidemounts=0&holedist=7.0&thickness=2.8&format=svg&tabs=0.0&debug=0&labels=0&labels=1&reference=0&burn=0.1
-->
  <title
     id="title2">ElectronicsBox</title>
  <metadata
     id="metadata4">
    <rdf:RDF>
      <cc:Work>
        <dc:title>Box - ElectronicsBox</dc:title>
        <dc:date>2021-09-21 08:59:19</dc:date>
        <dc:source>http://www.festi.info/ElectronicsBox?FingerJoint_angle=90.0&amp;FingerJoint_style=rectangular&amp;FingerJoint_surroundingspaces=2.0&amp;FingerJoint_edge_width=1.0&amp;FingerJoint_finger=2.0&amp;FingerJoint_play=0.0&amp;FingerJoint_space=2.0&amp;FingerJoint_width=1.0&amp;x=110.0&amp;y=110.0&amp;h=45.0&amp;outside=0&amp;outside=1&amp;triangle=25.0&amp;d1=0&amp;d2=0&amp;d3=0&amp;outsidemounts=0&amp;holedist=7.0&amp;thickness=2.8&amp;format=svg&amp;tabs=0.0&amp;debug=0&amp;labels=0&amp;labels=1&amp;reference=0&amp;burn=0.1&amp;render=1</dc:source>
        <dc:description>Closed box with screw on top and mounting holes

Created with Boxes.py (https://festi.info/boxes.py)
Command line: boxes ElectronicsBox --FingerJoint_angle=90.0 --FingerJoint_style=rectangular --FingerJoint_surroundingspaces=2.0 --FingerJoint_edge_width=1.0 --FingerJoint_finger=2.0 --FingerJoint_play=0.0 --FingerJoint_space=2.0 --FingerJoint_width=1.0 --x=110.0 --y=110.0 --h=45.0 --outside=0 --outside=1 --triangle=25.0 --d1=0 --d2=0 --d3=0 --outsidemounts=0 --holedist=7.0 --thickness=2.8 --format=svg --tabs=0.0 --debug=0 --labels=0 --labels=1 --reference=0 --burn=0.1
Url: http://www.festi.info/ElectronicsBox?FingerJoint_angle=90.0&amp;FingerJoint_style=rectangular&amp;FingerJoint_surroundingspaces=2.0&amp;FingerJoint_edge_width=1.0&amp;FingerJoint_finger=2.0&amp;FingerJoint_play=0.0&amp;FingerJoint_space=2.0&amp;FingerJoint_width=1.0&amp;x=110.0&amp;y=110.0&amp;h=45.0&amp;outside=0&amp;outside=1&amp;triangle=25.0&amp;d1=0&amp;d2=0&amp;d3=0&amp;outsidemounts=0&amp;holedist=7.0&amp;thickness=2.8&amp;format=svg&amp;tabs=0.0&amp;debug=0&amp;labels=0&amp;labels=1&amp;reference=0&amp;burn=0.1&amp;render=1
SettingsUrl: http://www.festi.info/ElectronicsBox?FingerJoint_angle=90.0&amp;FingerJoint_style=rectangular&amp;FingerJoint_surroundingspaces=2.0&amp;FingerJoint_edge_width=1.0&amp;FingerJoint_finger=2.0&amp;FingerJoint_play=0.0&amp;FingerJoint_space=2.0&amp;FingerJoint_width=1.0&amp;x=110.0&amp;y=110.0&amp;h=45.0&amp;outside=0&amp;outside=1&amp;triangle=25.0&amp;d1=0&amp;d2=0&amp;d3=0&amp;outsidemounts=0&amp;holedist=7.0&amp;thickness=2.8&amp;format=svg&amp;tabs=0.0&amp;debug=0&amp;labels=0&amp;labels=1&amp;reference=0&amp;burn=0.1
</dc:description>
      </cc:Work>
    </rdf:RDF>
  </metadata>
  <g
     id="g249"
     transform="translate(-9.9,-37.373039)">
    <path
       d="m 25.4,201.8 h -2.7 c -0.1,0 0,0.1 0,0 v -2.6 c 0,-0.1 -0.1,0 0,0 h 5.4 c 0.1,0 0,-0.1 0,0 v 2.6 c 0,0.1 0.1,0 0,0 z"
       stroke="#0000ff"
       stroke-width="0.2"
       id="path6"
       style="fill:none;stroke:#ff0000;stroke-linecap:round;stroke-linejoin:round" />
    <path
       d="m 104.8,199.2 h 2.7 c 0.1,0 0,-0.1 0,0 v 2.6 c 0,0.1 0.1,0 0,0 h -5.4 c -0.1,0 0,0.1 0,0 v -2.6 c 0,-0.1 -0.1,0 0,0 z"
       stroke="#0000ff"
       stroke-width="0.2"
       id="path8"
       style="fill:none;stroke:#ff0000;stroke-linecap:round;stroke-linejoin:round" />
    <text
       alignment-baseline="hanging"
       font-size="4px"
       style="font-style:normal;font-weight:normal;font-family:sans-serif;fill:#000000;stroke:none;stroke-linecap:round;stroke-linejoin:round"
       text-anchor="middle"
       id="text10"
       x="65.099998"
       y="216.89999">Wall 1</text>
    <path
       d="M 12.9,238.6 H 23 c 0.1,0 0,-0.1 0,0 v 2.7 c 0,0.055 0.045,0.1 0.1,0.1 h 5.6 c 0.055,0 0.1,-0.045 0.1,-0.1 v -2.7 c 0,-0.1 -0.1,0 0,0 h 5.4 c 0.1,0 0,-0.1 0,0 v 2.7 c 0,0.055 0.045,0.1 0.1,0.1 h 5.6 c 0.055,0 0.1,-0.045 0.1,-0.1 v -2.7 c 0,-0.1 -0.1,0 0,0 h 5.4 c 0.1,0 0,-0.1 0,0 v 2.7 c 0,0.055 0.045,0.1 0.1,0.1 h 5.6 c 0.055,0 0.1,-0.045 0.1,-0.1 v -2.7 c 0,-0.1 -0.1,0 0,0 h 5.4 c 0.1,0 0,-0.1 0,0 v 2.7 c 0,0.055 0.045,0.1 0.1,0.1 h 5.6 c 0.055,0 0.1,-0.045 0.1,-0.1 v -2.7 c 0,-0.1 -0.1,0 0,0 h 5.4 c 0.1,0 0,-0.1 0,0 v 2.7 c 0,0.055 0.045,0.1 0.1,0.1 h 5.6 c 0.055,0 0.1,-0.045 0.1,-0.1 v -2.7 c 0,-0.1 -0.1,0 0,0 H 79 c 0.1,0 0,-0.1 0,0 v 2.7 c 0,0.055 0.045,0.1 0.1,0.1 h 5.6 c 0.055,0 0.1,-0.045 0.1,-0.1 v -2.7 c 0,-0.1 -0.1,0 0,0 h 5.4 c 0.1,0 0,-0.1 0,0 v 2.7 c 0,0.055 0.045,0.1 0.1,0.1 h 5.6 c 0.055,0 0.1,-0.045 0.1,-0.1 v -2.7 c 0,-0.1 -0.1,0 0,0 h 5.4 c 0.1,0 0,-0.1 0,0 v 2.7 c 0,0.055 0.045,0.1 0.1,0.1 h 5.6 c 0.055,0 0.1,-0.045 0.1,-0.1 v -2.7 c 0,-0.1 -0.1,0 0,0 h 10.1 2.8 c 0.055,0 0.1,-0.045 0.1,-0.1 v -7.1 c 0,-0.055 -0.045,-0.1 -0.1,-0.1 h -2.7 c -0.1,0 0,0.1 0,0 v -5.4 c 0,-0.1 -0.1,0 0,0 h 2.7 c 0.055,0 0.1,-0.045 0.1,-0.1 v -5.6 c 0,-0.055 -0.045,-0.1 -0.1,-0.1 h -2.7 c -0.1,0 0,0.1 0,0 v -5.4 c 0,-0.1 -0.1,0 0,0 h 2.7 c 0.055,0 0.1,-0.045 0.1,-0.1 V 209 c 0,-0.055 -0.045,-0.1 -0.1,-0.1 h -2.7 c -0.1,0 0,0.1 0,0 v -5.4 c 0,-0.1 -0.1,0 0,0 h 2.7 c 0.055,0 0.1,-0.045 0.1,-0.1 v -7.1 c 0,-0.055 -0.045,-0.1 -0.1,-0.1 H 117.3 12.9 10.1 c -0.055,0 -0.1,0.045 -0.1,0.1 v 7.1 c 0,0.055 0.045,0.1 0.1,0.1 h 2.7 c 0.1,0 0,-0.1 0,0 v 5.4 c 0,0.1 0.1,0 0,0 h -2.7 c -0.055,0 -0.1,0.045 -0.1,0.1 v 5.6 c 0,0.055 0.045,0.1 0.1,0.1 h 2.7 c 0.1,0 0,-0.1 0,0 v 5.4 c 0,0.1 0.1,0 0,0 h -2.7 c -0.055,0 -0.1,0.045 -0.1,0.1 v 5.6 c 0,0.055 0.045,0.1 0.1,0.1 h 2.7 c 0.1,0 0,-0.1 0,0 v 5.4 c 0,0.1 0.1,0 0,0 h -2.7 c -0.055,0 -0.1,0.045 -0.1,0.1 v 7.1 c 0,0.055 0.045,0.1 0.1,0.1 h 2.8"
       stroke="#000000"
       stroke-width="0.2"
       id="path12"
       style="fill:none;stroke:#ff0000;stroke-linecap:round;stroke-linejoin:round" />
  </g>
  <g
     id="g261"
     transform="translate(-121.5,8.7441603)">
    <path
       d="m 137,201.8 h -2.7 c -0.1,0 0,0.1 0,0 v -2.6 c 0,-0.1 -0.1,0 0,0 h 5.4 c 0.1,0 0,-0.1 0,0 v 2.6 c 0,0.1 0.1,0 0,0 z"
       stroke="#0000ff"
       stroke-width="0.2"
       id="path15"
       style="fill:none;stroke:#ff0000;stroke-linecap:round;stroke-linejoin:round" />
    <path
       d="m 216.4,199.2 h 2.7 c 0.1,0 0,-0.1 0,0 v 2.6 c 0,0.1 0.1,0 0,0 h -5.4 c -0.1,0 0,0.1 0,0 v -2.6 c 0,-0.1 -0.1,0 0,0 z"
       stroke="#0000ff"
       stroke-width="0.2"
       id="path17"
       style="fill:none;stroke:#ff0000;stroke-linecap:round;stroke-linejoin:round" />
    <text
       alignment-baseline="hanging"
       font-size="4px"
       style="font-style:normal;font-weight:normal;font-family:sans-serif;fill:#000000;stroke:none;stroke-linecap:round;stroke-linejoin:round"
       text-anchor="middle"
       id="text19"
       x="176.7"
       y="216.89999">Wall 2</text>
    <path
       d="m 124.5,238.6 h 10.1 c 0.1,0 0,-0.1 0,0 v 2.7 c 0,0.055 0.045,0.1 0.1,0.1 h 5.6 c 0.055,0 0.1,-0.045 0.1,-0.1 v -2.7 c 0,-0.1 -0.1,0 0,0 h 5.4 c 0.1,0 0,-0.1 0,0 v 2.7 c 0,0.055 0.045,0.1 0.1,0.1 h 5.6 c 0.055,0 0.1,-0.045 0.1,-0.1 v -2.7 c 0,-0.1 -0.1,0 0,0 h 5.4 c 0.1,0 0,-0.1 0,0 v 2.7 c 0,0.055 0.045,0.1 0.1,0.1 h 5.6 c 0.055,0 0.1,-0.045 0.1,-0.1 v -2.7 c 0,-0.1 -0.1,0 0,0 h 5.4 c 0.1,0 0,-0.1 0,0 v 2.7 c 0,0.055 0.045,0.1 0.1,0.1 h 5.6 c 0.055,0 0.1,-0.045 0.1,-0.1 v -2.7 c 0,-0.1 -0.1,0 0,0 h 5.4 c 0.1,0 0,-0.1 0,0 v 2.7 c 0,0.055 0.045,0.1 0.1,0.1 h 5.6 c 0.055,0 0.1,-0.045 0.1,-0.1 v -2.7 c 0,-0.1 -0.1,0 0,0 h 5.4 c 0.1,0 0,-0.1 0,0 v 2.7 c 0,0.055 0.045,0.1 0.1,0.1 h 5.6 c 0.055,0 0.1,-0.045 0.1,-0.1 v -2.7 c 0,-0.1 -0.1,0 0,0 h 5.4 c 0.1,0 0,-0.1 0,0 v 2.7 c 0,0.055 0.045,0.1 0.1,0.1 h 5.6 c 0.055,0 0.1,-0.045 0.1,-0.1 v -2.7 c 0,-0.1 -0.1,0 0,0 h 5.4 c 0.1,0 0,-0.1 0,0 v 2.7 c 0,0.055 0.045,0.1 0.1,0.1 h 5.6 c 0.055,0 0.1,-0.045 0.1,-0.1 v -2.7 c 0,-0.1 -0.1,0 0,0 h 10.1 c 0.055,0 0.1,-0.045 0.1,-0.1 v -7 c 0,-0.1 -0.1,0 0,0 h 2.7 c 0.055,0 0.1,-0.045 0.1,-0.1 v -5.6 c 0,-0.055 -0.045,-0.1 -0.1,-0.1 H 229 c -0.1,0 0,0.1 0,0 v -5.4 c 0,-0.1 -0.1,0 0,0 h 2.7 c 0.055,0 0.1,-0.045 0.1,-0.1 v -5.6 c 0,-0.055 -0.045,-0.1 -0.1,-0.1 H 229 c -0.1,0 0,0.1 0,0 v -5.4 c 0,-0.1 -0.1,0 0,0 h 2.7 c 0.055,0 0.1,-0.045 0.1,-0.1 v -5.6 c 0,-0.055 -0.045,-0.1 -0.1,-0.1 H 229 c -0.1,0 0,0.1 0,0 v -7 c 0,-0.055 -0.045,-0.1 -0.1,-0.1 H 124.5 c -0.055,0 -0.1,0.045 -0.1,0.1 v 7 c 0,0.1 0.1,0 0,0 h -2.7 c -0.055,0 -0.1,0.045 -0.1,0.1 v 5.6 c 0,0.055 0.045,0.1 0.1,0.1 h 2.7 c 0.1,0 0,-0.1 0,0 v 5.4 c 0,0.1 0.1,0 0,0 h -2.7 c -0.055,0 -0.1,0.045 -0.1,0.1 v 5.6 c 0,0.055 0.045,0.1 0.1,0.1 h 2.7 c 0.1,0 0,-0.1 0,0 v 5.4 c 0,0.1 0.1,0 0,0 h -2.7 c -0.055,0 -0.1,0.045 -0.1,0.1 v 5.6 c 0,0.055 0.045,0.1 0.1,0.1 h 2.7 c 0.1,0 0,-0.1 0,0 v 7 c 0,0.055 0.045,0.1 0.1,0.1"
       stroke="#000000"
       stroke-width="0.2"
       id="path21"
       style="fill:none;stroke:#ff0000;stroke-linecap:round;stroke-linejoin:round" />
  </g>
  <g
     id="g243"
     transform="translate(-9.9,-37.316123)">
    <path
       d="m 25.4,155.2 h -2.7 c -0.1,0 0,0.1 0,0 v -2.6 c 0,-0.1 -0.1,0 0,0 h 5.4 c 0.1,0 0,-0.1 0,0 v 2.6 c 0,0.1 0.1,0 0,0 z"
       stroke="#0000ff"
       stroke-width="0.2"
       id="path33"
       style="fill:none;stroke:#ff0000;stroke-linecap:round;stroke-linejoin:round" />
    <path
       d="m 104.8,152.6 h 2.7 c 0.1,0 0,-0.1 0,0 v 2.6 c 0,0.1 0.1,0 0,0 h -5.4 c -0.1,0 0,0.1 0,0 v -2.6 c 0,-0.1 -0.1,0 0,0 z"
       stroke="#0000ff"
       stroke-width="0.2"
       id="path35"
       style="fill:none;stroke:#ff0000;stroke-linecap:round;stroke-linejoin:round" />
    <text
       alignment-baseline="hanging"
       font-size="4px"
       style="font-style:normal;font-weight:normal;font-family:sans-serif;fill:#000000;stroke:none;stroke-linecap:round;stroke-linejoin:round"
       text-anchor="middle"
       id="text37"
       x="65.099998"
       y="170.3">Wall 3</text>
    <path
       d="M 12.9,192 H 23 c 0.1,0 0,-0.1 0,0 v 2.7 c 0,0.055 0.045,0.1 0.1,0.1 h 5.6 c 0.055,0 0.1,-0.045 0.1,-0.1 V 192 c 0,-0.1 -0.1,0 0,0 h 5.4 c 0.1,0 0,-0.1 0,0 v 2.7 c 0,0.055 0.045,0.1 0.1,0.1 h 5.6 c 0.055,0 0.1,-0.045 0.1,-0.1 V 192 c 0,-0.1 -0.1,0 0,0 h 5.4 c 0.1,0 0,-0.1 0,0 v 2.7 c 0,0.055 0.045,0.1 0.1,0.1 h 5.6 c 0.055,0 0.1,-0.045 0.1,-0.1 V 192 c 0,-0.1 -0.1,0 0,0 h 5.4 c 0.1,0 0,-0.1 0,0 v 2.7 c 0,0.055 0.045,0.1 0.1,0.1 h 5.6 c 0.055,0 0.1,-0.045 0.1,-0.1 V 192 c 0,-0.1 -0.1,0 0,0 h 5.4 c 0.1,0 0,-0.1 0,0 v 2.7 c 0,0.055 0.045,0.1 0.1,0.1 h 5.6 c 0.055,0 0.1,-0.045 0.1,-0.1 V 192 c 0,-0.1 -0.1,0 0,0 H 79 c 0.1,0 0,-0.1 0,0 v 2.7 c 0,0.055 0.045,0.1 0.1,0.1 h 5.6 c 0.055,0 0.1,-0.045 0.1,-0.1 V 192 c 0,-0.1 -0.1,0 0,0 h 5.4 c 0.1,0 0,-0.1 0,0 v 2.7 c 0,0.055 0.045,0.1 0.1,0.1 h 5.6 c 0.055,0 0.1,-0.045 0.1,-0.1 V 192 c 0,-0.1 -0.1,0 0,0 h 5.4 c 0.1,0 0,-0.1 0,0 v 2.7 c 0,0.055 0.045,0.1 0.1,0.1 h 5.6 c 0.055,0 0.1,-0.045 0.1,-0.1 V 192 c 0,-0.1 -0.1,0 0,0 h 10.1 2.8 c 0.055,0 0.1,-0.045 0.1,-0.1 v -7.1 c 0,-0.055 -0.045,-0.1 -0.1,-0.1 h -2.7 c -0.1,0 0,0.1 0,0 v -5.4 c 0,-0.1 -0.1,0 0,0 h 2.7 c 0.055,0 0.1,-0.045 0.1,-0.1 v -5.6 c 0,-0.055 -0.045,-0.1 -0.1,-0.1 h -2.7 c -0.1,0 0,0.1 0,0 v -5.4 c 0,-0.1 -0.1,0 0,0 h 2.7 c 0.055,0 0.1,-0.045 0.1,-0.1 v -5.6 c 0,-0.055 -0.045,-0.1 -0.1,-0.1 h -2.7 c -0.1,0 0,0.1 0,0 v -5.4 c 0,-0.1 -0.1,0 0,0 h 2.7 c 0.055,0 0.1,-0.045 0.1,-0.1 v -7.1 c 0,-0.055 -0.045,-0.1 -0.1,-0.1 H 117.3 12.9 10.1 c -0.055,0 -0.1,0.045 -0.1,0.1 v 7.1 c 0,0.055 0.045,0.1 0.1,0.1 h 2.7 c 0.1,0 0,-0.1 0,0 v 5.4 c 0,0.1 0.1,0 0,0 h -2.7 c -0.055,0 -0.1,0.045 -0.1,0.1 v 5.6 c 0,0.055 0.045,0.1 0.1,0.1 h 2.7 c 0.1,0 0,-0.1 0,0 v 5.4 c 0,0.1 0.1,0 0,0 h -2.7 c -0.055,0 -0.1,0.045 -0.1,0.1 v 5.6 c 0,0.055 0.045,0.1 0.1,0.1 h 2.7 c 0.1,0 0,-0.1 0,0 v 5.4 c 0,0.1 0.1,0 0,0 h -2.7 c -0.055,0 -0.1,0.045 -0.1,0.1 v 7.1 c 0,0.055 0.045,0.1 0.1,0.1 h 2.8"
       stroke="#000000"
       stroke-width="0.2"
       id="path39"
       style="fill:none;stroke:#ff0000;stroke-linecap:round;stroke-linejoin:round" />
  </g>
  <g
     id="g237"
     transform="translate(-12.44531,-28.910795)">
    <g
       id="g267"
       transform="translate(2.6893723,-8.9892046)">
      <text
         alignment-baseline="hanging"
         font-size="4px"
         style="font-style:normal;font-weight:normal;font-family:sans-serif;fill:#000000;stroke:none;stroke-linecap:round;stroke-linejoin:round"
         text-anchor="middle"
         id="text42"
         x="65.099998"
         y="91.199997">Bottom</text>
      <path
         d="m 12.9,148.2 h 10.2 c 0.055,0 0.1,-0.045 0.1,-0.1 v -2.7 c 0,-0.1 -0.1,0 0,0 h 5.4 c 0.1,0 0,-0.1 0,0 v 2.7 c 0,0.055 0.045,0.1 0.1,0.1 h 5.6 c 0.055,0 0.1,-0.045 0.1,-0.1 v -2.7 c 0,-0.1 -0.1,0 0,0 h 5.4 c 0.1,0 0,-0.1 0,0 v 2.7 c 0,0.055 0.045,0.1 0.1,0.1 h 5.6 c 0.055,0 0.1,-0.045 0.1,-0.1 v -2.7 c 0,-0.1 -0.1,0 0,0 H 51 c 0.1,0 0,-0.1 0,0 v 2.7 c 0,0.055 0.045,0.1 0.1,0.1 h 5.6 c 0.055,0 0.1,-0.045 0.1,-0.1 v -2.7 c 0,-0.1 -0.1,0 0,0 h 5.4 c 0.1,0 0,-0.1 0,0 v 2.7 c 0,0.055 0.045,0.1 0.1,0.1 h 5.6 c 0.055,0 0.1,-0.045 0.1,-0.1 v -2.7 c 0,-0.1 -0.1,0 0,0 h 5.4 c 0.1,0 0,-0.1 0,0 v 2.7 c 0,0.055 0.045,0.1 0.1,0.1 h 5.6 c 0.055,0 0.1,-0.045 0.1,-0.1 v -2.7 c 0,-0.1 -0.1,0 0,0 h 5.4 c 0.1,0 0,-0.1 0,0 v 2.7 c 0,0.055 0.045,0.1 0.1,0.1 h 5.6 c 0.055,0 0.1,-0.045 0.1,-0.1 v -2.7 c 0,-0.1 -0.1,0 0,0 h 5.4 c 0.1,0 0,-0.1 0,0 v 2.7 c 0,0.055 0.045,0.1 0.1,0.1 h 5.6 c 0.055,0 0.1,-0.045 0.1,-0.1 v -2.7 c 0,-0.1 -0.1,0 0,0 h 5.4 c 0.1,0 0,-0.1 0,0 v 2.7 c 0,0.055 0.045,0.1 0.1,0.1 h 10.2 2.8 c 0.055,0 0.1,-0.045 0.1,-0.1 v -2.8 -10.2 c 0,-0.055 -0.045,-0.1 -0.1,-0.1 h -2.7 c -0.1,0 0,0.1 0,0 v -5.4 c 0,-0.1 -0.1,0 0,0 h 2.7 c 0.055,0 0.1,-0.045 0.1,-0.1 v -5.6 c 0,-0.055 -0.045,-0.1 -0.1,-0.1 h -2.7 c -0.1,0 0,0.1 0,0 v -5.4 c 0,-0.1 -0.1,0 0,0 h 2.7 c 0.055,0 0.1,-0.045 0.1,-0.1 v -5.6 c 0,-0.055 -0.045,-0.1 -0.1,-0.1 h -2.7 c -0.1,0 0,0.1 0,0 v -5.4 c 0,-0.1 -0.1,0 0,0 h 2.7 c 0.055,0 0.1,-0.045 0.1,-0.1 v -5.6 c 0,-0.055 -0.045,-0.1 -0.1,-0.1 h -2.7 c -0.1,0 0,0.1 0,0 V 96 c 0,-0.1 -0.1,0 0,0 h 2.7 c 0.055,0 0.1,-0.045 0.1,-0.1 v -5.6 c 0,-0.055 -0.045,-0.1 -0.1,-0.1 h -2.7 c -0.1,0 0,0.1 0,0 v -5.4 c 0,-0.1 -0.1,0 0,0 h 2.7 c 0.055,0 0.1,-0.045 0.1,-0.1 v -5.6 c 0,-0.055 -0.045,-0.1 -0.1,-0.1 h -2.7 c -0.1,0 0,0.1 0,0 v -5.4 c 0,-0.1 -0.1,0 0,0 h 2.7 c 0.055,0 0.1,-0.045 0.1,-0.1 v -5.6 c 0,-0.055 -0.045,-0.1 -0.1,-0.1 h -2.7 c -0.1,0 0,0.1 0,0 v -5.4 c 0,-0.1 -0.1,0 0,0 h 2.7 c 0.055,0 0.1,-0.045 0.1,-0.1 v -5.6 c 0,-0.055 -0.045,-0.1 -0.1,-0.1 h -2.7 c -0.1,0 0,0.1 0,0 v -5.4 c 0,-0.1 -0.1,0 0,0 h 2.7 c 0.055,0 0.1,-0.045 0.1,-0.1 V 40.9 38.1 c 0,-0.055 -0.045,-0.1 -0.1,-0.1 h -2.8 -10.2 c -0.055,0 -0.1,0.045 -0.1,0.1 v 2.7 c 0,0.1 0.1,0 0,0 h -5.4 c -0.1,0 0,0.1 0,0 v -2.7 c 0,-0.055 -0.045,-0.1 -0.1,-0.1 h -5.6 c -0.055,0 -0.1,0.045 -0.1,0.1 v 2.7 c 0,0.1 0.1,0 0,0 h -5.4 c -0.1,0 0,0.1 0,0 V 38.1 C 90.4,38.045 90.355,38 90.3,38 h -5.6 c -0.055,0 -0.1,0.045 -0.1,0.1 v 2.7 c 0,0.1 0.1,0 0,0 h -5.4 c -0.1,0 0,0.1 0,0 V 38.1 C 79.2,38.045 79.155,38 79.1,38 h -5.6 c -0.055,0 -0.1,0.045 -0.1,0.1 v 2.7 c 0,0.1 0.1,0 0,0 H 68 c -0.1,0 0,0.1 0,0 V 38.1 C 68,38.045 67.955,38 67.9,38 h -5.6 c -0.055,0 -0.1,0.045 -0.1,0.1 v 2.7 c 0,0.1 0.1,0 0,0 h -5.4 c -0.1,0 0,0.1 0,0 V 38.1 C 56.8,38.045 56.755,38 56.7,38 H 51.1 C 51.045,38 51,38.045 51,38.1 v 2.7 c 0,0.1 0.1,0 0,0 h -5.4 c -0.1,0 0,0.1 0,0 V 38.1 C 45.6,38.045 45.555,38 45.5,38 h -5.6 c -0.055,0 -0.1,0.045 -0.1,0.1 v 2.7 c 0,0.1 0.1,0 0,0 h -5.4 c -0.1,0 0,0.1 0,0 V 38.1 C 34.4,38.045 34.355,38 34.3,38 h -5.6 c -0.055,0 -0.1,0.045 -0.1,0.1 v 2.7 c 0,0.1 0.1,0 0,0 h -5.4 c -0.1,0 0,0.1 0,0 V 38.1 C 23.2,38.045 23.155,38 23.1,38 H 12.9 10.1 C 10.045,38 10,38.045 10,38.1 v 2.8 10.2 c 0,0.055 0.045,0.1 0.1,0.1 h 2.7 c 0.1,0 0,-0.1 0,0 v 5.4 c 0,0.1 0.1,0 0,0 h -2.7 c -0.055,0 -0.1,0.045 -0.1,0.1 v 5.6 c 0,0.055 0.045,0.1 0.1,0.1 h 2.7 c 0.1,0 0,-0.1 0,0 v 5.4 c 0,0.1 0.1,0 0,0 h -2.7 c -0.055,0 -0.1,0.045 -0.1,0.1 v 5.6 c 0,0.055 0.045,0.1 0.1,0.1 h 2.7 c 0.1,0 0,-0.1 0,0 V 79 c 0,0.1 0.1,0 0,0 H 10.1 C 10.045,79 10,79.045 10,79.1 v 5.6 c 0,0.055 0.045,0.1 0.1,0.1 h 2.7 c 0.1,0 0,-0.1 0,0 v 5.4 c 0,0.1 0.1,0 0,0 h -2.7 c -0.055,0 -0.1,0.045 -0.1,0.1 v 5.6 c 0,0.055 0.045,0.1 0.1,0.1 h 2.7 c 0.1,0 0,-0.1 0,0 v 5.4 c 0,0.1 0.1,0 0,0 h -2.7 c -0.055,0 -0.1,0.045 -0.1,0.1 v 5.6 c 0,0.055 0.045,0.1 0.1,0.1 h 2.7 c 0.1,0 0,-0.1 0,0 v 5.4 c 0,0.1 0.1,0 0,0 h -2.7 c -0.055,0 -0.1,0.045 -0.1,0.1 v 5.6 c 0,0.055 0.045,0.1 0.1,0.1 h 2.7 c 0.1,0 0,-0.1 0,0 v 5.4 c 0,0.1 0.1,0 0,0 h -2.7 c -0.055,0 -0.1,0.045 -0.1,0.1 v 5.6 c 0,0.055 0.045,0.1 0.1,0.1 h 2.7 c 0.1,0 0,-0.1 0,0 v 5.4 c 0,0.1 0.1,0 0,0 h -2.7 c -0.055,0 -0.1,0.045 -0.1,0.1 v 10.2 2.8 c 0,0.055 0.045,0.1 0.1,0.1 h 2.8"
         stroke="#000000"
         stroke-width="0.2"
         id="path44"
         style="fill:none;stroke:#ff0000;stroke-linecap:round;stroke-linejoin:round" />
    </g>
  </g>
  <g
     id="g255"
     transform="translate(-9.83408,55.34416)">
    <text
       alignment-baseline="hanging"
       font-size="4px"
       style="font-style:normal;font-weight:normal;font-family:sans-serif;fill:#000000;stroke:none;stroke-linecap:round;stroke-linejoin:round"
       text-anchor="middle"
       id="text28"
       x="176.7"
       y="170.3">Wall 4</text>
    <path
       d="m 124.5,192 h 10.1 c 0.1,0 0,-0.1 0,0 v 2.7 c 0,0.055 0.045,0.1 0.1,0.1 h 5.6 c 0.055,0 0.1,-0.045 0.1,-0.1 V 192 c 0,-0.1 -0.1,0 0,0 h 5.4 c 0.1,0 0,-0.1 0,0 v 2.7 c 0,0.055 0.045,0.1 0.1,0.1 h 5.6 c 0.055,0 0.1,-0.045 0.1,-0.1 V 192 c 0,-0.1 -0.1,0 0,0 h 5.4 c 0.1,0 0,-0.1 0,0 v 2.7 c 0,0.055 0.045,0.1 0.1,0.1 h 5.6 c 0.055,0 0.1,-0.045 0.1,-0.1 V 192 c 0,-0.1 -0.1,0 0,0 h 5.4 c 0.1,0 0,-0.1 0,0 v 2.7 c 0,0.055 0.045,0.1 0.1,0.1 h 5.6 c 0.055,0 0.1,-0.045 0.1,-0.1 V 192 c 0,-0.1 -0.1,0 0,0 h 5.4 c 0.1,0 0,-0.1 0,0 v 2.7 c 0,0.055 0.045,0.1 0.1,0.1 h 5.6 c 0.055,0 0.1,-0.045 0.1,-0.1 V 192 c 0,-0.1 -0.1,0 0,0 h 5.4 c 0.1,0 0,-0.1 0,0 v 2.7 c 0,0.055 0.045,0.1 0.1,0.1 h 5.6 c 0.055,0 0.1,-0.045 0.1,-0.1 V 192 c 0,-0.1 -0.1,0 0,0 h 5.4 c 0.1,0 0,-0.1 0,0 v 2.7 c 0,0.055 0.045,0.1 0.1,0.1 h 5.6 c 0.055,0 0.1,-0.045 0.1,-0.1 V 192 c 0,-0.1 -0.1,0 0,0 h 5.4 c 0.1,0 0,-0.1 0,0 v 2.7 c 0,0.055 0.045,0.1 0.1,0.1 h 5.6 c 0.055,0 0.1,-0.045 0.1,-0.1 V 192 c 0,-0.1 -0.1,0 0,0 h 10.1 c 0.055,0 0.1,-0.045 0.1,-0.1 v -7 c 0,-0.1 -0.1,0 0,0 h 2.7 c 0.055,0 0.1,-0.045 0.1,-0.1 v -5.6 c 0,-0.055 -0.045,-0.1 -0.1,-0.1 H 229 c -0.1,0 0,0.1 0,0 v -5.4 c 0,-0.1 -0.1,0 0,0 h 2.7 c 0.055,0 0.1,-0.045 0.1,-0.1 V 168 c 0,-0.055 -0.045,-0.1 -0.1,-0.1 H 229 c -0.1,0 0,0.1 0,0 v -5.4 c 0,-0.1 -0.1,0 0,0 h 2.7 c 0.055,0 0.1,-0.045 0.1,-0.1 v -5.6 c 0,-0.055 -0.045,-0.1 -0.1,-0.1 H 229 c -0.1,0 0,0.1 0,0 v -7 c 0,-0.055 -0.045,-0.1 -0.1,-0.1 H 124.5 c -0.055,0 -0.1,0.045 -0.1,0.1 v 7 c 0,0.1 0.1,0 0,0 h -2.7 c -0.055,0 -0.1,0.045 -0.1,0.1 v 5.6 c 0,0.055 0.045,0.1 0.1,0.1 h 2.7 c 0.1,0 0,-0.1 0,0 v 5.4 c 0,0.1 0.1,0 0,0 h -2.7 c -0.055,0 -0.1,0.045 -0.1,0.1 v 5.6 c 0,0.055 0.045,0.1 0.1,0.1 h 2.7 c 0.1,0 0,-0.1 0,0 v 5.4 c 0,0.1 0.1,0 0,0 h -2.7 c -0.055,0 -0.1,0.045 -0.1,0.1 v 5.6 c 0,0.055 0.045,0.1 0.1,0.1 h 2.7 c 0.1,0 0,-0.1 0,0 v 7 c 0,0.055 0.045,0.1 0.1,0.1"
       stroke="#000000"
       stroke-width="0.2"
       id="path30"
       style="fill:none;stroke:#ff0000;stroke-linecap:round;stroke-linejoin:round" />
    <path
       d="m 137,155.2 h -2.7 c -0.1,0 0,0.1 0,0 v -2.6 c 0,-0.1 -0.1,0 0,0 h 5.4 c 0.1,0 0,-0.1 0,0 v 2.6 c 0,0.1 0.1,0 0,0 z"
       stroke="#0000ff"
       stroke-width="0.2"
       id="path24"
       style="fill:none;stroke:#ff0000;stroke-linecap:round;stroke-linejoin:round" />
    <path
       d="m 216.4,152.6 h 2.7 c 0.1,0 0,-0.1 0,0 v 2.6 c 0,0.1 0.1,0 0,0 h -5.4 c -0.1,0 0,0.1 0,0 v -2.6 c 0,-0.1 -0.1,0 0,0 z"
       stroke="#0000ff"
       stroke-width="0.2"
       id="path26"
       style="fill:none;stroke:#ff0000;stroke-linecap:round;stroke-linejoin:round" />
  </g>
  <g
     id="g233"
     transform="translate(-9.83408,52.733282)">
    <text
       alignment-baseline="hanging"
       font-size="4px"
       style="font-style:normal;font-weight:normal;font-family:sans-serif;fill:#000000;stroke:none;stroke-linecap:round;stroke-linejoin:round"
       text-anchor="middle"
       id="text47"
       x="173.89999"
       y="94">Top</text>
    <path
       d="m 121.7,148.2 h 104.4 c 0.055,0 0.1,-0.045 0.1,-0.1 V 43.7 c 0,-0.055 -0.045,-0.1 -0.1,-0.1 H 121.7 c -0.055,0 -0.1,0.045 -0.1,0.1 v 104.4 c 0,0.055 0.045,0.1 0.1,0.1"
       stroke="#000000"
       stroke-width="0.2"
       id="path49"
       style="fill:none;stroke:#ff0000;stroke-linecap:round;stroke-linejoin:round" />
  </g>
  <g
     id="p-6"
     style="fill:none;stroke:#ff0000;stroke-linecap:round;stroke-linejoin:round"
     transform="translate(-11.43408,52.352554)">
    <path
       d="m 127.7,39.4 h 9.6 c 0.1,0 0,-0.1 0,0 v 2.7 c 0,0.055 0.045,0.1 0.1,0.1 h 5.6 c 0.055,0 0.1,-0.045 0.1,-0.1 v -2.7 c 0,-0.1 -0.1,0 0,0 h 9.6 c 0.055,0 0.1,-0.045 0.1,-0.1 v -9.6 c 0,-0.1 -0.1,0 0,0 h 2.7 c 0.055,0 0.1,-0.045 0.1,-0.1 V 24 c 0,-0.055 -0.045,-0.1 -0.1,-0.1 h -2.7 c -0.1,0 0,0.1 0,0 v -9.6 c 0,-0.055 -0.045,-0.1 -0.1,-0.1 -0.027,0 -0.052,0.011 -0.071,0.029 l -25,25 c -0.018,0.019 -0.029,0.044 -0.029,0.071 0,0.055 0.045,0.1 0.1,0.1 z"
       stroke="#000000"
       stroke-width="0.2"
       id="path52"
       style="stroke:#ff0000" />
    <path
       d="m 151.1,12.8 h -9.6 c -0.1,0 0,0.1 0,0 v -2.7 c 0,-0.055 -0.045,-0.1 -0.1,-0.1 h -5.6 c -0.055,0 -0.1,0.045 -0.1,0.1 v 2.7 c 0,0.1 0.1,0 0,0 h -9.6 c -0.055,0 -0.1,0.045 -0.1,0.1 v 9.6 c 0,0.1 0.1,0 0,0 h -2.7 c -0.055,0 -0.1,0.045 -0.1,0.1 v 5.6 c 0,0.055 0.045,0.1 0.1,0.1 h 2.7 c 0.1,0 0,-0.1 0,0 v 9.6 c 0,0.055 0.045,0.1 0.1,0.1 0.027,0 0.052,-0.011 0.071,-0.029 l 25,-25 c 0.018,-0.019 0.029,-0.044 0.029,-0.071 0,-0.055 -0.045,-0.1 -0.1,-0.1 z"
       stroke="#000000"
       stroke-width="0.2"
       id="path54"
       style="stroke:#ff0000" />
    <path
       d="m 161.5,39.4 h 9.6 c 0.1,0 0,-0.1 0,0 v 2.7 c 0,0.055 0.045,0.1 0.1,0.1 h 5.6 c 0.055,0 0.1,-0.045 0.1,-0.1 v -2.7 c 0,-0.1 -0.1,0 0,0 h 9.6 c 0.055,0 0.1,-0.045 0.1,-0.1 v -9.6 c 0,-0.1 -0.1,0 0,0 h 2.7 c 0.055,0 0.1,-0.045 0.1,-0.1 V 24 c 0,-0.055 -0.045,-0.1 -0.1,-0.1 h -2.7 c -0.1,0 0,0.1 0,0 v -9.6 c 0,-0.055 -0.045,-0.1 -0.1,-0.1 -0.027,0 -0.052,0.011 -0.071,0.029 l -25,25 c -0.018,0.019 -0.029,0.044 -0.029,0.071 0,0.055 0.045,0.1 0.1,0.1 z"
       stroke="#000000"
       stroke-width="0.2"
       id="path56"
       style="stroke:#ff0000" />
    <path
       d="m 184.9,12.8 h -9.6 c -0.1,0 0,0.1 0,0 v -2.7 c 0,-0.055 -0.045,-0.1 -0.1,-0.1 h -5.6 c -0.055,0 -0.1,0.045 -0.1,0.1 v 2.7 c 0,0.1 0.1,0 0,0 h -9.6 c -0.055,0 -0.1,0.045 -0.1,0.1 v 9.6 c 0,0.1 0.1,0 0,0 h -2.7 c -0.055,0 -0.1,0.045 -0.1,0.1 v 5.6 c 0,0.055 0.045,0.1 0.1,0.1 h 2.7 c 0.1,0 0,-0.1 0,0 v 9.6 c 0,0.055 0.045,0.1 0.1,0.1 0.027,0 0.052,-0.011 0.071,-0.029 l 25,-25 C 184.989,12.952 185,12.927 185,12.9 c 0,-0.055 -0.045,-0.1 -0.1,-0.1 z"
       stroke="#000000"
       stroke-width="0.2"
       id="path58"
       style="stroke:#ff0000" />
    <text
       alignment-baseline="hanging"
       font-size="4px"
       style="font-style:normal;font-weight:normal;font-family:sans-serif;fill:#ff0000;stroke:#ff0000"
       text-anchor="middle"
       transform="translate(155.5,24.1)"
       id="text60" />
  </g>
  <circle
     style="fill:none;stroke:#ff0000;stroke-width:0.131312"
     id="path352-3"
     cx="15.320919"
     cy="144.78416"
     r="2.5" />
  <circle
     style="fill:none;stroke:#ff0000;stroke-width:0.131312"
     id="path352-6"
     cx="15.41235"
     cy="191.33687"
     r="2.5" />
  <circle
     style="fill:none;stroke:#ff0000;stroke-width:0.131312"
     id="path352-7"
     cx="15.383663"
     cy="237.63048"
     r="2.5" />
  <circle
     style="fill:none;stroke:#ff0000;stroke-width:0.131312"
     id="path352-5"
     cx="128.61206"
     cy="237.59572"
     r="2.5" />
</svg>
